<svg xmlns="http://www.w3.org/2000/svg" xmlns:xlink="http://www.w3.org/1999/xlink" viewBox="0 0 1814.37 901.75">
  <defs>
    <linearGradient id="a" x1="537.73" y1="312.97" x2="537.97" y2="312.97" gradientTransform="matrix(126.28, 125.58, 125.3, -126.56, -106221.21, -27311.13)" gradientUnits="userSpaceOnUse">
      <stop offset="0" stop-color="#387eb8"/>
      <stop offset="1" stop-color="#366994"/>
    </linearGradient>
    <linearGradient id="b" x1="537.16" y1="312.88" x2="537.4" y2="312.88" gradientTransform="matrix(135.63, 128.78, 128.5, -135.93, -112140.83, -26023.05)" gradientUnits="userSpaceOnUse">
      <stop offset="0" stop-color="#ffe052"/>
      <stop offset="1" stop-color="#ffc331"/>
    </linearGradient>
    <radialGradient id="c" cx="536.65" cy="310.57" r="0.23" gradientTransform="matrix(168.1, 0, 0, -168.1, -89500.62, 52803.52)" gradientUnits="userSpaceOnUse">
      <stop offset="0" stop-color="#fff"/>
      <stop offset="0.5" stop-color="#4c6b97"/>
      <stop offset="1" stop-color="#231f20"/>
    </radialGradient>
    <linearGradient id="d" x1="531.38" y1="820.97" x2="531.55" y2="820.97" gradientTransform="matrix(-123.27, -85.14, -85.14, 123.27, 136905.94, -55091.11)" gradientUnits="userSpaceOnUse">
      <stop offset="0" stop-color="#fb7655"/>
      <stop offset="0.41" stop-color="#e42b1e"/>
      <stop offset="0.99" stop-color="#900"/>
      <stop offset="1" stop-color="#900"/>
    </linearGradient>
    <linearGradient id="e" x1="528.77" y1="823.38" x2="528.94" y2="823.38" gradientTransform="matrix(-113.48, -16, -16, 113.48, 74671.59, -84127.3)" gradientUnits="userSpaceOnUse">
      <stop offset="0" stop-color="#871101"/>
      <stop offset="0.99" stop-color="#911209"/>
      <stop offset="1" stop-color="#911209"/>
    </linearGradient>
    <linearGradient id="f" x1="528.77" y1="822.39" x2="528.94" y2="822.39" gradientTransform="matrix(-113.47, -16, -16, 113.47, 74650.55, -83989.68)" xlink:href="#e"/>
    <linearGradient id="g" x1="540.19" y1="832.18" x2="540.36" y2="832.18" gradientTransform="matrix(55.06, 79.86, 79.86, -55.06, -94746.23, 3546.34)" gradientUnits="userSpaceOnUse">
      <stop offset="0" stop-color="#fff"/>
      <stop offset="0.23" stop-color="#e57252"/>
      <stop offset="0.46" stop-color="#de3b20"/>
      <stop offset="0.99" stop-color="#a60003"/>
      <stop offset="1" stop-color="#a60003"/>
    </linearGradient>
    <linearGradient id="h" x1="540.04" y1="831.66" x2="540.21" y2="831.66" gradientTransform="matrix(47.54, 85.69, 85.69, -47.54, -95475.65, -5900.96)" gradientUnits="userSpaceOnUse">
      <stop offset="0" stop-color="#fff"/>
      <stop offset="0.23" stop-color="#e4714e"/>
      <stop offset="0.56" stop-color="#be1a0d"/>
      <stop offset="0.99" stop-color="#a80d00"/>
      <stop offset="1" stop-color="#a80d00"/>
    </linearGradient>
    <linearGradient id="i" x1="544.32" y1="831.85" x2="544.49" y2="831.85" gradientTransform="matrix(45.21, 56.02, 56.02, -45.21, -69739.04, 7933.19)" gradientUnits="userSpaceOnUse">
      <stop offset="0" stop-color="#fff"/>
      <stop offset="0.18" stop-color="#e46342"/>
      <stop offset="0.4" stop-color="#c82410"/>
      <stop offset="0.99" stop-color="#a80d00"/>
      <stop offset="1" stop-color="#a80d00"/>
    </linearGradient>
    <linearGradient id="j" x1="540.37" y1="813.52" x2="540.54" y2="813.52" gradientTransform="matrix(47.83, -62.11, -62.11, -47.83, 26147.15, 73291.27)" gradientUnits="userSpaceOnUse">
      <stop offset="0" stop-color="#fff"/>
      <stop offset="0.54" stop-color="#c81f11"/>
      <stop offset="0.99" stop-color="#bf0905"/>
      <stop offset="1" stop-color="#bf0905"/>
    </linearGradient>
    <linearGradient id="k" x1="543.37" y1="838.95" x2="543.54" y2="838.95" gradientTransform="matrix(30.38, 49.49, 49.49, -30.38, -56582.38, -542.21)" gradientUnits="userSpaceOnUse">
      <stop offset="0" stop-color="#fff"/>
      <stop offset="0.31" stop-color="#de4024"/>
      <stop offset="0.99" stop-color="#bf190b"/>
      <stop offset="1" stop-color="#bf190b"/>
    </linearGradient>
    <linearGradient id="l" x1="536.07" y1="821.66" x2="536.24" y2="821.66" gradientTransform="matrix(122.57, -369.31, -369.31, -122.57, 239230.44, 299654.68)" gradientUnits="userSpaceOnUse">
      <stop offset="0" stop-color="#bd0012"/>
      <stop offset="0.07" stop-color="#fff"/>
      <stop offset="0.17" stop-color="#fff"/>
      <stop offset="0.27" stop-color="#c82f1c"/>
      <stop offset="0.33" stop-color="#820c01"/>
      <stop offset="0.46" stop-color="#a31601"/>
      <stop offset="0.72" stop-color="#b31301"/>
      <stop offset="0.99" stop-color="#e82609"/>
      <stop offset="1" stop-color="#e82609"/>
    </linearGradient>
    <linearGradient id="m" x1="525.2" y1="825.41" x2="525.37" y2="825.41" gradientTransform="matrix(-82.33, 17.46, 17.46, 82.33, 30354.19, -76178.37)" gradientUnits="userSpaceOnUse">
      <stop offset="0" stop-color="#8c0c01"/>
      <stop offset="0.54" stop-color="#990c00"/>
      <stop offset="0.99" stop-color="#a80d0e"/>
      <stop offset="1" stop-color="#a80d0e"/>
    </linearGradient>
    <linearGradient id="n" x1="527.29" y1="822.52" x2="527.46" y2="822.52" gradientTransform="matrix(-93.69, -26.92, -26.92, 93.69, 73084.36, -61942.65)" gradientUnits="userSpaceOnUse">
      <stop offset="0" stop-color="#7e110b"/>
      <stop offset="0.99" stop-color="#9e0c00"/>
      <stop offset="1" stop-color="#9e0c00"/>
    </linearGradient>
    <linearGradient id="o" x1="520.01" y1="821.61" x2="520.18" y2="821.61" gradientTransform="matrix(-49.39, -19.03, -19.03, 49.39, 42859.21, -29778.26)" gradientUnits="userSpaceOnUse">
      <stop offset="0" stop-color="#79130d"/>
      <stop offset="0.99" stop-color="#9e120b"/>
      <stop offset="1" stop-color="#9e120b"/>
    </linearGradient>
    <radialGradient id="p" cx="558.12" cy="806.61" r="1" gradientTransform="matrix(13.73, -6.65, -6.65, -13.73, -770.41, 15702.74)" gradientUnits="userSpaceOnUse">
      <stop offset="0" stop-color="#a80d00"/>
      <stop offset="0.99" stop-color="#7e0e08"/>
      <stop offset="1" stop-color="#7e0e08"/>
    </radialGradient>
    <radialGradient id="q" cx="552.39" cy="810.92" r="1" gradientTransform="matrix(18.25, -8.84, -8.84, -18.25, -1395.25, 20626.3)" gradientUnits="userSpaceOnUse">
      <stop offset="0" stop-color="#a30c00"/>
      <stop offset="0.99" stop-color="#800e08"/>
      <stop offset="1" stop-color="#800e08"/>
    </radialGradient>
    <linearGradient id="r" x1="530.09" y1="816.66" x2="530.26" y2="816.66" gradientTransform="matrix(-70.1, -77.13, -77.13, 70.1, 101661.75, -15386.51)" gradientUnits="userSpaceOnUse">
      <stop offset="0" stop-color="#8b2114"/>
      <stop offset="0.43" stop-color="#9e100a"/>
      <stop offset="0.99" stop-color="#b3100c"/>
      <stop offset="1" stop-color="#b3100c"/>
    </linearGradient>
    <linearGradient id="s" x1="546.83" y1="820.91" x2="547" y2="820.91" gradientTransform="matrix(72.17, -2.55, -2.55, -72.17, -35849.45, 61540.06)" gradientUnits="userSpaceOnUse">
      <stop offset="0" stop-color="#b31000"/>
      <stop offset="0.44" stop-color="#910f08"/>
      <stop offset="0.99" stop-color="#791c12"/>
      <stop offset="1" stop-color="#791c12"/>
    </linearGradient>
  </defs>
  <title>bg-github</title>
  <g>
    <g>
      <g>
        <path d="M73,88.14l1.25,1.6-17,16.4,17,16.4L73,124.14l-19-18Z" transform="translate(-54.04 -88.14)" fill="#f07167"/>
        <path d="M92.49,113.79l-.9-23h5.1l-1,23Zm-.65,3h4.6v7.4h-4.6Z" transform="translate(-54.04 -88.14)" fill="#f07167"/>
        <path d="M118.59,109.54h11.1v3.15h-11.1Z" transform="translate(-54.04 -88.14)" fill="#f07167"/>
        <path d="M148.59,109.54h11.1v3.15h-11.1Z" transform="translate(-54.04 -88.14)" fill="#f07167"/>
        <path d="M188.94,90.79h4.2l1,33.35h-3.55l-.65-27.8h-.1l-5.7,16.75-5.7-16.75h-.1l-.65,27.8h-3.5l1-33.35h4.15l4.8,14.15Z" transform="translate(-54.04 -88.14)" fill="#f07167"/>
        <path d="M221.09,97.44l3.15,1.65-8.45,15v10.05h-3.35V114.09l-8.4-15,3.15-1.65,7,13.4Z" transform="translate(-54.04 -88.14)" fill="#f07167"/>
        <path d="M268.79,121.14h3.65V101.09h-3.65v-3h10.7v3h-3.7v20.05h3.7v3h-10.7Z" transform="translate(-54.04 -88.14)" fill="#f07167"/>
        <path d="M295.44,98.09h4.15l10.1,22,.1-.1-.3-6.75V98.09h3.35v26.05h-4.15l-10.1-22-.1.1.3,6.8v15.05h-3.35Z" transform="translate(-54.04 -88.14)" fill="#f07167"/>
        <path d="M332.54,101.09h-7.2v-3h17.6v3h-7.05v23.05h-3.35Z" transform="translate(-54.04 -88.14)" fill="#f07167"/>
        <path d="M357,98.09h16.25v3h-12.9v7.8H371v3H360.34v9.25h12.9v3H357Z" transform="translate(-54.04 -88.14)" fill="#f07167"/>
        <path d="M386.59,98.09h8.85c4.35,0,7.8,2.05,7.8,7.1a7.73,7.73,0,0,1-5.3,7.3l6.4,10.55-2.9,1.75L394.79,113h-4.85v11.15h-3.35Zm7.75,11.9c3.25,0,5.4-1.85,5.4-4.8,0-2.35-1.4-4.1-4.4-4.1h-5.4V110Z" transform="translate(-54.04 -88.14)" fill="#f07167"/>
        <path d="M417,98.09h16.25v3h-12.9v7.8H431v3H420.34v9.25h12.9v3H417Z" transform="translate(-54.04 -88.14)" fill="#f07167"/>
        <path d="M448.69,115.89c.65,3.2,2.2,5.55,5.7,5.55,2.75,0,4.9-1.5,4.9-4.4,0-3.2-2.7-4-5.25-5.05-3.8-1.6-7.4-2.6-7.4-7.5,0-4.4,3.55-6.85,7.65-6.85,4.35,0,6.9,2.5,8,6.55l-3.2,1c-.6-2.55-2-4.35-4.8-4.35-2.15,0-4.25,1.1-4.25,3.45s1.5,3.15,3.5,4.05l5.55,2.45a6.63,6.63,0,0,1,3.6,6.1c0,5-3.45,7.75-8.25,7.75s-7.9-3.1-8.7-7.75Z" transform="translate(-54.04 -88.14)" fill="#f07167"/>
        <path d="M482.54,101.09h-7.2v-3h17.6v3h-7.05v23.05h-3.35Z" transform="translate(-54.04 -88.14)" fill="#f07167"/>
        <path d="M508.69,115.89c.65,3.2,2.2,5.55,5.7,5.55,2.75,0,4.9-1.5,4.9-4.4,0-3.2-2.7-4-5.25-5.05-3.8-1.6-7.4-2.6-7.4-7.5,0-4.4,3.55-6.85,7.65-6.85,4.35,0,6.9,2.5,8,6.55l-3.2,1c-.6-2.55-2-4.35-4.8-4.35-2.15,0-4.25,1.1-4.25,3.45s1.5,3.15,3.5,4.05l5.55,2.45a6.63,6.63,0,0,1,3.6,6.1c0,5-3.45,7.75-8.25,7.75s-7.9-3.1-8.7-7.75Z" transform="translate(-54.04 -88.14)" fill="#f07167"/>
        <path d="M538.59,109.54h11.1v3.15h-11.1Z" transform="translate(-54.04 -88.14)" fill="#f07167"/>
        <path d="M568.59,109.54h11.1v3.15h-11.1Z" transform="translate(-54.04 -88.14)" fill="#f07167"/>
        <path d="M614.24,106.14l-19,18-1.25-1.6,17-16.4-17-16.4,1.25-1.6Z" transform="translate(-54.04 -88.14)" fill="#f07167"/>
      </g>
      <g>
        <path d="M73,642.14l1.25,1.6-17,16.4,17,16.4L73,678.14l-19-18Z" transform="translate(-54.04 -88.14)" fill="#f07167"/>
        <path d="M92.49,667.79l-.9-23h5.1l-1,23Zm-.65,2.95h4.6v7.4h-4.6Z" transform="translate(-54.04 -88.14)" fill="#f07167"/>
        <path d="M118.59,663.54h11.1v3.15h-11.1Z" transform="translate(-54.04 -88.14)" fill="#f07167"/>
        <path d="M148.59,663.54h11.1v3.15h-11.1Z" transform="translate(-54.04 -88.14)" fill="#f07167"/>
        <path d="M188.94,644.79h4.2l1,33.35h-3.55l-.65-27.8h-.1l-5.7,16.75-5.7-16.75h-.1l-.65,27.8h-3.5l1-33.35h4.15l4.8,14.15Z" transform="translate(-54.04 -88.14)" fill="#f07167"/>
        <path d="M221.09,651.44l3.15,1.65-8.45,15v10.05h-3.35V668.09l-8.4-15,3.15-1.65,7,13.4Z" transform="translate(-54.04 -88.14)" fill="#f07167"/>
        <path d="M268.69,669.89c.65,3.2,2.2,5.55,5.7,5.55,2.75,0,4.9-1.5,4.9-4.4,0-3.2-2.7-4-5.25-5.05-3.8-1.6-7.4-2.6-7.4-7.5,0-4.4,3.55-6.85,7.65-6.85,4.35,0,6.9,2.5,8,6.55l-3.2,1c-.6-2.55-2-4.35-4.8-4.35-2.15,0-4.25,1.1-4.25,3.45s1.5,3.15,3.5,4l5.55,2.45a6.63,6.63,0,0,1,3.6,6.1c0,5-3.45,7.75-8.25,7.75s-7.9-3.1-8.7-7.75Z" transform="translate(-54.04 -88.14)" fill="#f07167"/>
        <path d="M300.59,663.19h1.25l9-11.75,2.55,2-8.65,11,10.15,12.25-2.55,2.15-10.55-12.85h-1.15v12.2h-3.35V652.09h3.35Z" transform="translate(-54.04 -88.14)" fill="#f07167"/>
        <path d="M328.79,675.14h3.65V655.09h-3.65v-3h10.7v3h-3.7v20.05h3.7v3h-10.7Z" transform="translate(-54.04 -88.14)" fill="#f07167"/>
        <path d="M357.64,652.09H361v23.05h13.65v3h-17Z" transform="translate(-54.04 -88.14)" fill="#f07167"/>
        <path d="M387.64,652.09H391v23.05h13.65v3h-17Z" transform="translate(-54.04 -88.14)" fill="#f07167"/>
        <path d="M418.69,669.89c.65,3.2,2.2,5.55,5.7,5.55,2.75,0,4.9-1.5,4.9-4.4,0-3.2-2.7-4-5.25-5.05-3.8-1.6-7.4-2.6-7.4-7.5,0-4.4,3.55-6.85,7.65-6.85,4.35,0,6.9,2.5,8,6.55l-3.2,1c-.6-2.55-2-4.35-4.8-4.35-2.15,0-4.25,1.1-4.25,3.45s1.5,3.15,3.5,4l5.55,2.45a6.63,6.63,0,0,1,3.6,6.1c0,5-3.45,7.75-8.25,7.75s-7.9-3.1-8.7-7.75Z" transform="translate(-54.04 -88.14)" fill="#f07167"/>
        <path d="M448.59,663.54h11.1v3.15h-11.1Z" transform="translate(-54.04 -88.14)" fill="#f07167"/>
        <path d="M478.59,663.54h11.1v3.15h-11.1Z" transform="translate(-54.04 -88.14)" fill="#f07167"/>
        <path d="M524.24,660.14l-19,18-1.25-1.6,17-16.4-17-16.4,1.25-1.6Z" transform="translate(-54.04 -88.14)" fill="#f07167"/>
      </g>
      <g>
        <path d="M1581.52,236.22h16.4v3h-13.05v11h11v3h-11v16.35h-3.35Z" transform="translate(-54.04 -88.14)" fill="#f07167"/>
        <path d="M1612.92,243.52v17.75c0,3.8,1.1,5.6,4.55,5.6,4.2,0,5.1-1.85,5.1-5.6V243.52h3.35v19.35c0,3.45-2.45,7.15-8.2,7.15s-8.15-3.55-8.15-7.35V243.52Z" transform="translate(-54.04 -88.14)" fill="#f07167"/>
        <path d="M1641.22,243.52h3.35v23.05h13.65v3h-17Z" transform="translate(-54.04 -88.14)" fill="#f07167"/>
        <path d="M1671.22,243.52h3.35v23.05h13.65v3h-17Z" transform="translate(-54.04 -88.14)" fill="#f07167"/>
        <path d="M1702.17,255h11.1v3.15h-11.1Z" transform="translate(-54.04 -88.14)" fill="#f07167"/>
        <path d="M1742.52,243.82c-.55-2.45-1.75-4.9-4.6-4.9-3.15,0-4.4,2.55-4.4,5.35s.55,3.55,5.8,6.7c4.1,2.45,6.9,4.5,6.9,9.65s-2.8,9.4-8.4,9.4c-5.9,0-8-3.9-8.55-9.2l3.35-.45c.45,3.7,1.25,6.5,5.3,6.5,2.9,0,5-2,5-6,0-4.4-2.85-5.9-6.3-7.9-3.85-2.25-6.4-3.85-6.4-8.75,0-4.5,3-8.5,7.75-8.5s7,3.35,7.85,7.55Z" transform="translate(-54.04 -88.14)" fill="#f07167"/>
        <path d="M1766.12,246.52h-7.2v-3h17.6v3h-7.05v23.05h-3.35Z" transform="translate(-54.04 -88.14)" fill="#f07167"/>
        <path d="M1793.12,262.47l-2.45,7.75-3.3-1.2,8.2-25.5h4.3l8.2,25.5-3.3,1.2-2.4-7.75Zm4.6-15.05-3.7,12.05h7.4Z" transform="translate(-54.04 -88.14)" fill="#f07167"/>
        <path d="M1837.07,264.57c-2.1,3.3-4.6,5.45-8.65,5.45-7.6,0-10-7-10-13.45,0-10.4,5.5-13.5,9.7-13.5,4,0,6.4,2.1,8.25,5.55l-3,1.55c-1.1-2.1-2.6-4-5.15-4-5.2,0-6.25,6.3-6.25,10.3s1,10.35,6.25,10.35c3,0,4.6-1.85,6.15-4.2Z" transform="translate(-54.04 -88.14)" fill="#f07167"/>
        <path d="M1854.17,254.62h1.25l9-11.75,2.55,2-8.65,11,10.15,12.25-2.55,2.15-10.55-12.85h-1.15v12.2h-3.35V243.52h3.35Z" transform="translate(-54.04 -88.14)" fill="#f07167"/>
        <path d="M1593.67,299.22v-3h8.8c6.7,0,10.65,3,10.65,16.7,0,7.35-.4,16.65-10.55,16.65h-8.9v-3h2.7V299.22Zm6.05,27.35h2.75c4,0,7.15-1.05,7.15-13.65s-3.4-13.7-6.35-13.7h-3.55Z" transform="translate(-54.04 -88.14)" fill="#f07167"/>
        <path d="M1625.57,303.52h16.25v3h-12.9v7.8h10.65v3h-10.65v9.25h12.9v3h-16.25Z" transform="translate(-54.04 -88.14)" fill="#f07167"/>
        <path d="M1669.82,302.87l3.2,1.2-10,26.15h-.6l-10-26.15,3.2-1.2,7.1,19.1Z" transform="translate(-54.04 -88.14)" fill="#f07167"/>
        <path d="M1685.57,303.52h16.25v3h-12.9v7.8h10.65v3h-10.65v9.25h12.9v3h-16.25Z" transform="translate(-54.04 -88.14)" fill="#f07167"/>
        <path d="M1716.22,303.52h3.35v23.05h13.65v3h-17Z" transform="translate(-54.04 -88.14)" fill="#f07167"/>
        <path d="M1762,316.57c0,2.1-.15,13.45-9.25,13.45-4.2,0-9.25-3-9.25-13.45s5-13.5,9.25-13.5C1756.87,303.07,1762,306.07,1762,316.57Zm-15,0c0,3.8.7,10.3,5.75,10.3s5.75-6.5,5.75-10.3-.7-10.35-5.75-10.35S1747,312.72,1747,316.57Z" transform="translate(-54.04 -88.14)" fill="#f07167"/>
        <path d="M1779.17,329.57h-3.35V303.52h8.1c6,0,8.4,3.3,8.4,7.1,0,5.5-3.9,7.75-7.55,7.75h-5.6Zm4.6-14.2c3.3,0,5.05-1.5,5.05-4.5,0-3.55-2.3-4.35-5.05-4.35h-4.6v8.85Z" transform="translate(-54.04 -88.14)" fill="#f07167"/>
        <path d="M1805.57,303.52h16.25v3h-12.9v7.8h10.65v3h-10.65v9.25h12.9v3h-16.25Z" transform="translate(-54.04 -88.14)" fill="#f07167"/>
        <path d="M1835.17,303.52H1844c4.35,0,7.8,2.05,7.8,7.1a7.73,7.73,0,0,1-5.3,7.3l6.4,10.55-2.9,1.75-6.65-11.8h-4.85v11.15h-3.35Zm7.75,11.9c3.25,0,5.4-1.85,5.4-4.8,0-2.35-1.4-4.1-4.4-4.1h-5.4v8.9Z" transform="translate(-54.04 -88.14)" fill="#f07167"/>
      </g>
    </g>
    <g>
      <g>
        <path d="M163.19,340v-2.4h7c5.36,0,8.52,2.36,8.52,13.36,0,5.88-.32,13.32-8.44,13.32h-7.12v-2.4h2.16V340ZM168,361.89h2.2c3.24,0,5.72-.84,5.72-10.92s-2.72-11-5.08-11H168Z" transform="translate(-54.04 -88.14)" fill="#00afb9"/>
        <path d="M190.75,358.61l-2,6.2-2.64-1,6.56-20.4h3.44l6.56,20.4-2.64,1-1.92-6.2Zm3.68-12-3,9.64h5.92Z" transform="translate(-54.04 -88.14)" fill="#00afb9"/>
        <path d="M217.15,345.85h-5.76v-2.4h14.08v2.4h-5.64v18.44h-2.68Z" transform="translate(-54.04 -88.14)" fill="#00afb9"/>
        <path d="M238.75,358.61l-2,6.2-2.64-1,6.56-20.4h3.44l6.56,20.4-2.64,1-1.92-6.2Zm3.68-12-3,9.64h5.92Z" transform="translate(-54.04 -88.14)" fill="#00afb9"/>
        <path d="M286.78,356l-2.08,8.76-2.64-.72,6.76-26.48H292l6.76,26.48-2.64.72L294.06,356Zm3.68-14.88h-.08l-3,12.48h6Z" transform="translate(-54.04 -88.14)" fill="#00afb9"/>
        <path d="M307.46,343.45h3.32L318.86,361l.08-.08-.24-5.4V343.45h2.68v20.84h-3.32L310,346.73l-.08.08.24,5.44v12h-2.68Z" transform="translate(-54.04 -88.14)" fill="#00afb9"/>
        <path d="M334.74,358.61l-2,6.2-2.64-1,6.56-20.4h3.44l6.56,20.4-2.64,1-1.92-6.2Zm3.68-12-3,9.64h5.92Z" transform="translate(-54.04 -88.14)" fill="#00afb9"/>
        <path d="M357.22,343.45h2.68v18.44h10.92v2.4h-13.6Z" transform="translate(-54.04 -88.14)" fill="#00afb9"/>
        <path d="M392,342.93l2.52,1.32-6.76,12v8h-2.68v-8l-6.72-12,2.52-1.32,5.56,10.72Z" transform="translate(-54.04 -88.14)" fill="#00afb9"/>
        <path d="M409.14,345.85h-5.76v-2.4h14.08v2.4h-5.64v18.44h-2.68Z" transform="translate(-54.04 -88.14)" fill="#00afb9"/>
        <path d="M430.14,361.89h2.92v-16h-2.92v-2.4h8.56v2.4h-3v16h3v2.4h-8.56Z" transform="translate(-54.04 -88.14)" fill="#00afb9"/>
        <path d="M465.9,360.29c-1.68,2.64-3.68,4.36-6.92,4.36-6.08,0-8-5.6-8-10.76,0-8.32,4.4-10.8,7.76-10.8s5.12,1.68,6.6,4.44l-2.44,1.24c-.88-1.68-2.08-3.16-4.12-3.16-4.16,0-5,5-5,8.24s.76,8.28,5,8.28c2.44,0,3.68-1.48,4.92-3.36Z" transform="translate(-54.04 -88.14)" fill="#00afb9"/>
        <path d="M478.06,357.69c.52,2.56,1.76,4.44,4.56,4.44,2.2,0,3.92-1.2,3.92-3.52,0-2.56-2.16-3.2-4.2-4-3-1.28-5.92-2.08-5.92-6,0-3.52,2.84-5.48,6.12-5.48,3.48,0,5.52,2,6.36,5.24l-2.56.76c-.48-2-1.56-3.48-3.84-3.48-1.72,0-3.4.88-3.4,2.76s1.2,2.52,2.8,3.24l4.44,2a5.3,5.3,0,0,1,2.88,4.88c0,4-2.76,6.2-6.6,6.2s-6.32-2.48-7-6.2Z" transform="translate(-54.04 -88.14)" fill="#00afb9"/>
      </g>
      <g>
        <path d="M192.6,166l-2.68,27.2h-1.16l-4.44-16.12h-.08l-4.44,16.12h-1.16L176,166l2.68-.52,1.28,20H180l3.88-14h.8l3.88,14h.08l1.28-20Z" transform="translate(-54.04 -88.14)" fill="#00afb9"/>
        <path d="M202.56,171.88h13v2.4H205.24v6.24h8.52v2.4h-8.52v7.4h10.32v2.4h-13Z" transform="translate(-54.04 -88.14)" fill="#00afb9"/>
        <path d="M225.16,192.71v-2.4h2.16v-16h-2.16v-2.4h6.56c5.28,0,7.56,2,7.56,5.56a4.66,4.66,0,0,1-2.36,4.28,5,5,0,0,1,3.56,5c0,3.76-2.48,6-6.84,6ZM233,180.8a3.18,3.18,0,0,0,3.48-3.36c0-2.48-1.76-3.16-3.64-3.16H230v6.52Zm.12,9.52c2.36,0,4.56-.52,4.56-3.36a3.61,3.61,0,0,0-3.92-3.76H230v7.12Z" transform="translate(-54.04 -88.14)" fill="#00afb9"/>
        <path d="M273,168.44V166h7c5.36,0,8.52,2.36,8.52,13.36,0,5.88-.32,13.32-8.44,13.32H273v-2.4h2.16V168.44Zm4.84,21.88h2.2c3.24,0,5.72-.84,5.72-10.92s-2.72-11-5.08-11h-2.84Z" transform="translate(-54.04 -88.14)" fill="#00afb9"/>
        <path d="M298.56,171.88h13v2.4H301.24v6.24h8.52v2.4h-8.52v7.4h10.32v2.4h-13Z" transform="translate(-54.04 -88.14)" fill="#00afb9"/>
        <path d="M334,171.36l2.56,1-8,20.92H328l-8-20.92,2.56-1,5.68,15.28Z" transform="translate(-54.04 -88.14)" fill="#00afb9"/>
        <path d="M346.56,171.88h13v2.4H349.24v6.24h8.52v2.4h-8.52v7.4h10.32v2.4h-13Z" transform="translate(-54.04 -88.14)" fill="#00afb9"/>
        <path d="M371.08,171.88h2.68v18.44h10.92v2.4h-13.6Z" transform="translate(-54.04 -88.14)" fill="#00afb9"/>
        <path d="M407.68,182.32c0,1.68-.12,10.76-7.4,10.76-3.36,0-7.4-2.4-7.4-10.76s4-10.8,7.4-10.8S407.68,173.92,407.68,182.32Zm-12,0c0,3,.56,8.24,4.6,8.24s4.6-5.2,4.6-8.24-.56-8.28-4.6-8.28S395.68,179.24,395.68,182.32Z" transform="translate(-54.04 -88.14)" fill="#00afb9"/>
        <path d="M421.44,192.71h-2.68V171.88h6.48c4.84,0,6.72,2.64,6.72,5.68a5.78,5.78,0,0,1-6,6.2h-4.48Zm3.68-11.36c2.64,0,4-1.2,4-3.6,0-2.84-1.84-3.48-4-3.48h-3.68v7.08Z" transform="translate(-54.04 -88.14)" fill="#00afb9"/>
        <path d="M443.6,175.84h-.08L443,192.71h-2.84l.84-20.84h3.52l3.76,9,3.76-9h3.52l.84,20.84h-2.84L453,175.84H453l-4.68,11Z" transform="translate(-54.04 -88.14)" fill="#00afb9"/>
        <path d="M466.56,171.88h13v2.4H469.24v6.24h8.52v2.4h-8.52v7.4h10.32v2.4h-13Z" transform="translate(-54.04 -88.14)" fill="#00afb9"/>
        <path d="M489.32,171.88h3.32l8.08,17.56.08-.08-.24-5.4V171.88h2.68v20.84h-3.32l-8.08-17.56-.08.08.24,5.44v12h-2.68Z" transform="translate(-54.04 -88.14)" fill="#00afb9"/>
        <path d="M519,174.28h-5.76v-2.4h14.08v2.4h-5.64v18.44H519Z" transform="translate(-54.04 -88.14)" fill="#00afb9"/>
      </g>
      <g>
        <path d="M149.89,306.61a10.06,10.06,0,0,1-6.2,2.32c-6.88,0-8.08-8.32-8.08-13.64,0-5,1.16-13.76,7.8-13.76,3,0,5.2,1.84,6.68,4.28l-2.36,1.44c-1-1.72-2.36-3.2-4.48-3.2-4.44,0-4.84,8.16-4.84,11.32,0,9.16,2.68,11,5.32,11a6,6,0,0,0,3.48-1.24v-8h-5v-2.4h7.68Z" transform="translate(-54.04 -88.14)" fill="#00afb9"/>
        <path d="M160.82,287.73h7.08c3.48,0,6.24,1.64,6.24,5.68a6.19,6.19,0,0,1-4.24,5.84l5.12,8.44-2.32,1.4-5.32-9.44H163.5v8.92h-2.68Zm6.2,9.52c2.6,0,4.32-1.48,4.32-3.84,0-1.88-1.12-3.28-3.52-3.28H163.5v7.12Z" transform="translate(-54.04 -88.14)" fill="#00afb9"/>
        <path d="M187.17,302.89l-2,6.2-2.64-1,6.56-20.4h3.44l6.56,20.4-2.64,1-1.92-6.2Zm3.68-12-3,9.64h5.92Z" transform="translate(-54.04 -88.14)" fill="#00afb9"/>
        <path d="M212,308.57h-2.68V287.73h6.48c4.84,0,6.72,2.64,6.72,5.68a5.78,5.78,0,0,1-6,6.2H212Zm3.68-11.36c2.64,0,4-1.2,4-3.6,0-2.84-1.84-3.48-4-3.48H212v7.08Z" transform="translate(-54.04 -88.14)" fill="#00afb9"/>
        <path d="M232.05,287.73h2.68v8.64H243v-8.64h2.68v20.84H243v-9.8h-8.24v9.8h-2.68Z" transform="translate(-54.04 -88.14)" fill="#00afb9"/>
        <path d="M258.57,306.17h2.92v-16h-2.92v-2.4h8.56v2.4h-3v16h3v2.4h-8.56Z" transform="translate(-54.04 -88.14)" fill="#00afb9"/>
        <path d="M294.33,304.57c-1.68,2.64-3.68,4.36-6.92,4.36-6.08,0-8-5.6-8-10.76,0-8.32,4.4-10.8,7.76-10.8s5.12,1.68,6.6,4.44l-2.44,1.24c-.88-1.68-2.08-3.16-4.12-3.16-4.16,0-5,5-5,8.24s.76,8.28,5,8.28c2.44,0,3.68-1.48,4.92-3.36Z" transform="translate(-54.04 -88.14)" fill="#00afb9"/>
        <path d="M327.61,284.3v-2.4h7c5.36,0,8.52,2.36,8.52,13.36,0,5.88-.32,13.32-8.44,13.32h-7.12v-2.4h2.16V284.3Zm4.84,21.88h2.2c3.24,0,5.72-.84,5.72-10.92s-2.72-11-5.08-11h-2.84Z" transform="translate(-54.04 -88.14)" fill="#00afb9"/>
        <path d="M353.13,287.73h13v2.4H355.81v6.24h8.52v2.4h-8.52v7.4h10.32v2.4h-13Z" transform="translate(-54.04 -88.14)" fill="#00afb9"/>
        <path d="M378.49,302c.52,2.56,1.76,4.44,4.56,4.44,2.2,0,3.92-1.2,3.92-3.52,0-2.56-2.16-3.2-4.2-4-3-1.28-5.92-2.08-5.92-6,0-3.52,2.84-5.48,6.12-5.48,3.48,0,5.52,2,6.36,5.24l-2.56.76c-.48-2-1.56-3.48-3.84-3.48-1.72,0-3.4.88-3.4,2.76s1.2,2.52,2.8,3.24l4.44,2a5.3,5.3,0,0,1,2.88,4.88c0,4-2.76,6.2-6.6,6.2s-6.32-2.48-7-6.2Z" transform="translate(-54.04 -88.14)" fill="#00afb9"/>
        <path d="M402.57,306.17h2.92v-16h-2.92v-2.4h8.56v2.4h-3v16h3v2.4h-8.56Z" transform="translate(-54.04 -88.14)" fill="#00afb9"/>
        <path d="M437.89,306.65a11.13,11.13,0,0,1-6.4,2.28c-6.12,0-7.88-5.68-7.88-10.8s1.84-10.76,7.8-10.76a7.93,7.93,0,0,1,6.68,4l-2.28,1.48a5.36,5.36,0,0,0-4.56-3c-4.12,0-4.84,5.16-4.84,8.32s.72,8.2,4.92,8.2a7.38,7.38,0,0,0,3.88-1.08v-5.48h-5v-2.4h7.68Z" transform="translate(-54.04 -88.14)" fill="#00afb9"/>
        <path d="M447.89,287.73h3.32l8.08,17.56.08-.08-.24-5.4V287.73h2.68v20.84h-3.32L450.41,291l-.08.08.24,5.44v12h-2.68Z" transform="translate(-54.04 -88.14)" fill="#00afb9"/>
      </g>
      <g>
        <path d="M193.9,228.29v-2.4h7c5.36,0,8.52,2.36,8.52,13.36,0,5.88-.32,13.32-8.44,13.32H193.9v-2.4h2.16V228.29Zm4.84,21.88h2.2c3.24,0,5.72-.84,5.72-10.92s-2.72-11-5.08-11h-2.84Z" transform="translate(-54.04 -88.14)" fill="#00afb9"/>
        <path d="M221.46,246.89l-2,6.2-2.64-1,6.56-20.4h3.44l6.56,20.4-2.64,1-1.92-6.2Zm3.68-12-3,9.64h5.92Z" transform="translate(-54.04 -88.14)" fill="#00afb9"/>
        <path d="M247.86,234.13H242.1v-2.4h14.08v2.4h-5.64v18.44h-2.68Z" transform="translate(-54.04 -88.14)" fill="#00afb9"/>
        <path d="M269.46,246.89l-2,6.2-2.64-1,6.56-20.4h3.44l6.56,20.4-2.64,1-1.92-6.2Zm3.68-12-3,9.64h5.92Z" transform="translate(-54.04 -88.14)" fill="#00afb9"/>
        <path d="M290,252.57v-2.4h2.16v-16H290v-2.4h6.56c5.28,0,7.56,2,7.56,5.56a4.66,4.66,0,0,1-2.36,4.28,5,5,0,0,1,3.56,5c0,3.76-2.48,6-6.84,6Zm7.84-11.92a3.18,3.18,0,0,0,3.48-3.36c0-2.48-1.76-3.16-3.64-3.16h-2.84v6.52Zm.12,9.52c2.36,0,4.56-.52,4.56-3.36a3.61,3.61,0,0,0-3.92-3.76h-3.76v7.12Z" transform="translate(-54.04 -88.14)" fill="#00afb9"/>
        <path d="M317.46,246.89l-2,6.2-2.64-1,6.56-20.4h3.44l6.56,20.4-2.64,1-1.92-6.2Zm3.68-12-3,9.64h5.92Z" transform="translate(-54.04 -88.14)" fill="#00afb9"/>
        <path d="M340.78,246c.52,2.56,1.76,4.44,4.56,4.44,2.2,0,3.92-1.2,3.92-3.52,0-2.56-2.16-3.2-4.2-4-3-1.28-5.92-2.08-5.92-6,0-3.52,2.84-5.48,6.12-5.48,3.48,0,5.52,2,6.36,5.24l-2.56.76c-.48-2-1.56-3.48-3.84-3.48-1.72,0-3.4.88-3.4,2.76s1.2,2.52,2.8,3.24l4.44,2a5.3,5.3,0,0,1,2.88,4.88c0,4-2.76,6.2-6.6,6.2s-6.32-2.48-7-6.2Z" transform="translate(-54.04 -88.14)" fill="#00afb9"/>
        <path d="M363.42,231.73h13v2.4H366.1v6.24h8.52v2.4H366.1v7.4h10.32v2.4h-13Z" transform="translate(-54.04 -88.14)" fill="#00afb9"/>
        <path d="M409.9,228.29v-2.4h7c5.36,0,8.52,2.36,8.52,13.36,0,5.88-.32,13.32-8.44,13.32H409.9v-2.4h2.16V228.29Zm4.84,21.88h2.2c3.24,0,5.72-.84,5.72-10.92s-2.72-11-5.08-11h-2.84Z" transform="translate(-54.04 -88.14)" fill="#00afb9"/>
        <path d="M435.42,231.73h13v2.4H438.1v6.24h8.52v2.4H438.1v7.4h10.32v2.4h-13Z" transform="translate(-54.04 -88.14)" fill="#00afb9"/>
        <path d="M460.78,246c.52,2.56,1.76,4.44,4.56,4.44,2.2,0,3.92-1.2,3.92-3.52,0-2.56-2.16-3.2-4.2-4-3-1.28-5.92-2.08-5.92-6,0-3.52,2.84-5.48,6.12-5.48,3.48,0,5.52,2,6.36,5.24l-2.56.76c-.48-2-1.56-3.48-3.84-3.48-1.72,0-3.4.88-3.4,2.76s1.2,2.52,2.8,3.24l4.44,2a5.3,5.3,0,0,1,2.88,4.88c0,4-2.76,6.2-6.6,6.2s-6.32-2.48-7-6.2Z" transform="translate(-54.04 -88.14)" fill="#00afb9"/>
        <path d="M484.86,250.17h2.92v-16h-2.92v-2.4h8.56v2.4h-3v16h3v2.4h-8.56Z" transform="translate(-54.04 -88.14)" fill="#00afb9"/>
        <path d="M520.17,250.65a11.13,11.13,0,0,1-6.4,2.28c-6.12,0-7.88-5.68-7.88-10.8s1.84-10.76,7.8-10.76a7.93,7.93,0,0,1,6.68,4l-2.28,1.48a5.36,5.36,0,0,0-4.56-3c-4.12,0-4.84,5.16-4.84,8.32s.72,8.2,4.92,8.2a7.38,7.38,0,0,0,3.88-1.08v-5.48h-5v-2.4h7.68Z" transform="translate(-54.04 -88.14)" fill="#00afb9"/>
        <path d="M530.18,231.73h3.32l8.08,17.56.08-.08-.24-5.4V231.73h2.68v20.84h-3.32L532.69,235l-.08.08.24,5.44v12h-2.68Z" transform="translate(-54.04 -88.14)" fill="#00afb9"/>
      </g>
      <g>
        <path d="M115.32,391.47h3.36l7.92,22.44.08-.08-.12-6v-16.4h2.68v26.68h-3.36L118,395.67l-.08.08.12,6v16.36h-2.68Z" transform="translate(-54.04 -88.14)" fill="#00afb9"/>
        <path d="M142.6,412.46l-2,6.2-2.64-1,6.56-20.4H148l6.56,20.4-2.64,1-1.92-6.2Zm3.68-12-3,9.64h5.92Z" transform="translate(-54.04 -88.14)" fill="#00afb9"/>
        <path d="M169,399.71h-5.76v-2.4h14.08v2.4h-5.64v18.44H169Z" transform="translate(-54.04 -88.14)" fill="#00afb9"/>
        <path d="M190.44,397.31v14.2c0,3,.88,4.48,3.64,4.48,3.36,0,4.08-1.48,4.08-4.48v-14.2h2.68v15.48c0,2.76-2,5.72-6.56,5.72s-6.52-2.84-6.52-5.88V397.31Z" transform="translate(-54.04 -88.14)" fill="#00afb9"/>
        <path d="M212.24,397.31h7.08c3.48,0,6.24,1.64,6.24,5.68a6.19,6.19,0,0,1-4.24,5.84l5.12,8.44-2.32,1.4-5.32-9.44h-3.88v8.92h-2.68Zm6.2,9.52c2.6,0,4.32-1.48,4.32-3.84,0-1.88-1.12-3.28-3.52-3.28h-4.32v7.12Z" transform="translate(-54.04 -88.14)" fill="#00afb9"/>
        <path d="M238.6,412.46l-2,6.2-2.64-1,6.56-20.4H244l6.56,20.4-2.64,1-1.92-6.2Zm3.68-12-3,9.64h5.92Z" transform="translate(-54.04 -88.14)" fill="#00afb9"/>
        <path d="M261.08,397.31h2.68v18.44h10.92v2.4h-13.6Z" transform="translate(-54.04 -88.14)" fill="#00afb9"/>
        <path d="M309,391.47h2.68v24.28h11v2.4H309Z" transform="translate(-54.04 -88.14)" fill="#00afb9"/>
        <path d="M334.6,412.46l-2,6.2-2.64-1,6.56-20.4H340l6.56,20.4-2.64,1-1.92-6.2Zm3.68-12-3,9.64h5.92Z" transform="translate(-54.04 -88.14)" fill="#00afb9"/>
        <path d="M355.32,397.31h3.32l8.08,17.56.08-.08-.24-5.4V397.31h2.68v20.84h-3.32l-8.08-17.56-.08.08.24,5.44v12h-2.68Z" transform="translate(-54.04 -88.14)" fill="#00afb9"/>
        <path d="M393.32,416.22a11.14,11.14,0,0,1-6.4,2.28c-6.12,0-7.88-5.68-7.88-10.8s1.84-10.76,7.8-10.76a7.93,7.93,0,0,1,6.68,4l-2.28,1.48a5.36,5.36,0,0,0-4.56-3c-4.12,0-4.84,5.16-4.84,8.32s.72,8.2,4.92,8.2a7.38,7.38,0,0,0,3.88-1.08v-5.48h-5V407h7.68Z" transform="translate(-54.04 -88.14)" fill="#00afb9"/>
        <path d="M406.44,397.31v14.2c0,3,.88,4.48,3.64,4.48,3.36,0,4.08-1.48,4.08-4.48v-14.2h2.68v15.48c0,2.76-2,5.72-6.56,5.72s-6.52-2.84-6.52-5.88V397.31Z" transform="translate(-54.04 -88.14)" fill="#00afb9"/>
        <path d="M430.6,412.46l-2,6.2-2.64-1,6.56-20.4H436l6.56,20.4-2.64,1-1.92-6.2Zm3.68-12-3,9.64h5.92Z" transform="translate(-54.04 -88.14)" fill="#00afb9"/>
        <path d="M465.32,416.22a11.14,11.14,0,0,1-6.4,2.28c-6.12,0-7.88-5.68-7.88-10.8s1.84-10.76,7.8-10.76a7.93,7.93,0,0,1,6.68,4l-2.28,1.48a5.36,5.36,0,0,0-4.56-3c-4.12,0-4.84,5.16-4.84,8.32s.72,8.2,4.92,8.2a7.38,7.38,0,0,0,3.88-1.08v-5.48h-5V407h7.68Z" transform="translate(-54.04 -88.14)" fill="#00afb9"/>
        <path d="M476.56,397.31h13v2.4H479.24v6.24h8.52v2.4h-8.52v7.4h10.32v2.4h-13Z" transform="translate(-54.04 -88.14)" fill="#00afb9"/>
        <path d="M527.44,418.14h-2.68V391.47h5.8c4.72,0,7.36,2.52,7.36,7.08,0,5-2.8,7.72-6.48,7.72h-4Zm0-14.28,3.76,0c2.48,0,3.92-1.92,3.92-5.28s-1.72-4.68-4.6-4.68h-3.08Z" transform="translate(-54.04 -88.14)" fill="#00afb9"/>
        <path d="M548.24,397.31h7.08c3.48,0,6.24,1.64,6.24,5.68a6.19,6.19,0,0,1-4.24,5.84l5.12,8.44-2.32,1.4-5.32-9.44h-3.88v8.92h-2.68Zm6.2,9.52c2.6,0,4.32-1.48,4.32-3.84,0-1.88-1.12-3.28-3.52-3.28h-4.32v7.12Z" transform="translate(-54.04 -88.14)" fill="#00afb9"/>
        <path d="M585.67,407.74c0,1.68-.12,10.76-7.4,10.76-3.36,0-7.4-2.4-7.4-10.76s4-10.8,7.4-10.8S585.67,399.35,585.67,407.74Zm-12,0c0,3,.56,8.24,4.6,8.24s4.6-5.2,4.6-8.24-.56-8.28-4.6-8.28S573.68,404.67,573.68,407.74Z" transform="translate(-54.04 -88.14)" fill="#00afb9"/>
        <path d="M609.75,414.14c-1.68,2.64-3.68,4.36-6.92,4.36-6.08,0-8-5.6-8-10.76,0-8.32,4.4-10.8,7.76-10.8s5.12,1.68,6.6,4.44l-2.44,1.24c-.88-1.68-2.08-3.16-4.12-3.16-4.16,0-5,5-5,8.24s.76,8.28,5,8.28c2.44,0,3.68-1.48,4.92-3.36Z" transform="translate(-54.04 -88.14)" fill="#00afb9"/>
        <path d="M620.55,397.31h13v2.4H623.23v6.24h8.52v2.4h-8.52v7.4h10.32v2.4h-13Z" transform="translate(-54.04 -88.14)" fill="#00afb9"/>
        <path d="M645.91,411.54c.52,2.56,1.76,4.44,4.56,4.44,2.2,0,3.92-1.2,3.92-3.52,0-2.56-2.16-3.2-4.2-4-3-1.28-5.92-2.08-5.92-6,0-3.52,2.84-5.48,6.12-5.48,3.48,0,5.52,2,6.36,5.24l-2.56.76c-.48-2-1.56-3.48-3.84-3.48-1.72,0-3.4.88-3.4,2.76s1.2,2.52,2.8,3.24l4.44,2a5.3,5.3,0,0,1,2.88,4.88c0,4-2.76,6.2-6.6,6.2s-6.32-2.48-7-6.2Z" transform="translate(-54.04 -88.14)" fill="#00afb9"/>
        <path d="M669.91,411.54c.52,2.56,1.76,4.44,4.56,4.44,2.2,0,3.92-1.2,3.92-3.52,0-2.56-2.16-3.2-4.2-4-3-1.28-5.92-2.08-5.92-6,0-3.52,2.84-5.48,6.12-5.48,3.48,0,5.52,2,6.36,5.24l-2.56.76c-.48-2-1.56-3.48-3.84-3.48-1.72,0-3.4.88-3.4,2.76s1.2,2.52,2.8,3.24l4.44,2a5.3,5.3,0,0,1,2.88,4.88c0,4-2.76,6.2-6.6,6.2s-6.32-2.48-7-6.2Z" transform="translate(-54.04 -88.14)" fill="#00afb9"/>
        <path d="M694,415.74h2.92v-16H694v-2.4h8.56v2.4h-3v16h3v2.4H694Z" transform="translate(-54.04 -88.14)" fill="#00afb9"/>
        <path d="M715.31,397.31h3.32l8.08,17.56.08-.08-.24-5.4V397.31h2.68v20.84h-3.32l-8.08-17.56-.08.08.24,5.44v12h-2.68Z" transform="translate(-54.04 -88.14)" fill="#00afb9"/>
        <path d="M753.31,416.22a11.14,11.14,0,0,1-6.4,2.28c-6.12,0-7.88-5.68-7.88-10.8s1.84-10.76,7.8-10.76a7.93,7.93,0,0,1,6.68,4l-2.28,1.48a5.36,5.36,0,0,0-4.56-3c-4.12,0-4.84,5.16-4.84,8.32s.72,8.2,4.92,8.2a7.38,7.38,0,0,0,3.88-1.08v-5.48h-5V407h7.68Z" transform="translate(-54.04 -88.14)" fill="#00afb9"/>
      </g>
      <g>
        <path d="M139.22,466.9l-2.08,8.76-2.64-.72,6.76-26.48h3.2l6.76,26.48-2.64.72-2.08-8.76ZM142.9,452h-.08l-3,12.48h6Z" transform="translate(-54.04 -88.14)" fill="#00afb9"/>
        <path d="M160.82,454.31h7.08c3.48,0,6.24,1.64,6.24,5.68a6.19,6.19,0,0,1-4.24,5.84l5.12,8.44-2.32,1.4-5.32-9.44H163.5v8.92h-2.68Zm6.2,9.52c2.6,0,4.32-1.48,4.32-3.84,0-1.88-1.12-3.28-3.52-3.28H163.5v7.12Z" transform="translate(-54.04 -88.14)" fill="#00afb9"/>
        <path d="M189.57,456.71h-5.76v-2.4h14.08v2.4h-5.64v18.44h-2.68Z" transform="translate(-54.04 -88.14)" fill="#00afb9"/>
        <path d="M210.57,472.74h2.92v-16h-2.92v-2.4h8.56v2.4h-3v16h3v2.4h-8.56Z" transform="translate(-54.04 -88.14)" fill="#00afb9"/>
        <path d="M233.89,454.31H247v2.4H236.57v6.24h8.76v2.4h-8.76v9.8h-2.68Z" transform="translate(-54.04 -88.14)" fill="#00afb9"/>
        <path d="M258.57,472.74h2.92v-16h-2.92v-2.4h8.56v2.4h-3v16h3v2.4h-8.56Z" transform="translate(-54.04 -88.14)" fill="#00afb9"/>
        <path d="M294.33,471.14c-1.68,2.64-3.68,4.36-6.92,4.36-6.08,0-8-5.6-8-10.76,0-8.32,4.4-10.8,7.76-10.8s5.12,1.68,6.6,4.44l-2.44,1.24c-.88-1.68-2.08-3.16-4.12-3.16-4.16,0-5,5-5,8.24s.76,8.28,5,8.28c2.44,0,3.68-1.48,4.92-3.36Z" transform="translate(-54.04 -88.14)" fill="#00afb9"/>
        <path d="M306.57,472.74h2.92v-16h-2.92v-2.4h8.56v2.4h-3v16h3v2.4h-8.56Z" transform="translate(-54.04 -88.14)" fill="#00afb9"/>
        <path d="M331.17,469.46l-2,6.2-2.64-1,6.56-20.4h3.44l6.56,20.4-2.64,1-1.92-6.2Zm3.68-12-3,9.64h5.92Z" transform="translate(-54.04 -88.14)" fill="#00afb9"/>
        <path d="M353.65,454.31h2.68v18.44h10.92v2.4h-13.6Z" transform="translate(-54.04 -88.14)" fill="#00afb9"/>
        <path d="M405.49,450.87h-3.6v-2.4h9.92v2.4h-3.64v21.88h3.64v2.4h-9.92v-2.4h3.6Z" transform="translate(-54.04 -88.14)" fill="#00afb9"/>
        <path d="M423.89,454.31h3.32l8.08,17.56.08-.08-.24-5.4V454.31h2.68v20.84h-3.32l-8.08-17.56-.08.08.24,5.44v12h-2.68Z" transform="translate(-54.04 -88.14)" fill="#00afb9"/>
        <path d="M453.57,456.71h-5.76v-2.4h14.08v2.4h-5.64v18.44h-2.68Z" transform="translate(-54.04 -88.14)" fill="#00afb9"/>
        <path d="M473.13,454.31h13v2.4H475.81v6.24h8.52v2.4h-8.52v7.4h10.32v2.4h-13Z" transform="translate(-54.04 -88.14)" fill="#00afb9"/>
        <path d="M497.65,454.31h2.68v18.44h10.92v2.4h-13.6Z" transform="translate(-54.04 -88.14)" fill="#00afb9"/>
        <path d="M521.65,454.31h2.68v18.44h10.92v2.4h-13.6Z" transform="translate(-54.04 -88.14)" fill="#00afb9"/>
        <path d="M546.57,472.74h2.92v-16h-2.92v-2.4h8.56v2.4h-3v16h3v2.4h-8.56Z" transform="translate(-54.04 -88.14)" fill="#00afb9"/>
        <path d="M581.88,473.22a11.14,11.14,0,0,1-6.4,2.28c-6.12,0-7.88-5.68-7.88-10.8s1.84-10.76,7.8-10.76a7.93,7.93,0,0,1,6.68,4l-2.28,1.48a5.36,5.36,0,0,0-4.56-3c-4.12,0-4.84,5.16-4.84,8.32s.72,8.2,4.92,8.2a7.38,7.38,0,0,0,3.88-1.08v-5.48h-5V464h7.68Z" transform="translate(-54.04 -88.14)" fill="#00afb9"/>
        <path d="M593.13,454.31h13v2.4H595.81v6.24h8.52v2.4h-8.52v7.4h10.32v2.4h-13Z" transform="translate(-54.04 -88.14)" fill="#00afb9"/>
        <path d="M615.89,454.31h3.32l8.08,17.56.08-.08-.24-5.4V454.31h2.68v20.84h-3.32l-8.08-17.56-.08.08.24,5.44v12h-2.68Z" transform="translate(-54.04 -88.14)" fill="#00afb9"/>
        <path d="M654.32,471.14c-1.68,2.64-3.68,4.36-6.92,4.36-6.08,0-8-5.6-8-10.76,0-8.32,4.4-10.8,7.76-10.8s5.12,1.68,6.6,4.44l-2.44,1.24c-.88-1.68-2.08-3.16-4.12-3.16-4.16,0-5,5-5,8.24s.76,8.28,5,8.28c2.44,0,3.68-1.48,4.92-3.36Z" transform="translate(-54.04 -88.14)" fill="#00afb9"/>
        <path d="M665.13,454.31h13v2.4H667.8v6.24h8.52v2.4H667.8v7.4h10.32v2.4h-13Z" transform="translate(-54.04 -88.14)" fill="#00afb9"/>
      </g>
    </g>
  </g>
  <g>
    <g>
      <path d="M447.62,822.15h-.8v-1.29h1.05l.35-1.73h-1.41v-1.29h1.67l.46-2.29h1.31l-.46,2.29h1.29l.45-2.29h1.36l-.47,2.29h.81v1.29h-1.07l-.35,1.73h1.42v1.29h-1.69l-.46,2.29h-1.31l.45-2.29h-1.3l-.46,2.29h-1.32Zm1.93-3-.35,1.73h1.3l.34-1.73Z" transform="translate(-54.04 -88.14)" fill="#00afb9"/>
      <path d="M454.29,822.15h-.8v-1.29h1.05l.35-1.73h-1.41v-1.29h1.67l.46-2.29h1.31l-.46,2.29h1.29l.45-2.29h1.36l-.47,2.29h.81v1.29h-1.07l-.35,1.73h1.42v1.29h-1.69l-.46,2.29h-1.31l.45-2.29h-1.3l-.46,2.29h-1.32Zm1.93-3-.35,1.73h1.3l.34-1.73Z" transform="translate(-54.04 -88.14)" fill="#00afb9"/>
      <path d="M461,822.15h-.8v-1.29h1.05l.35-1.73h-1.41v-1.29h1.67l.46-2.29h1.31l-.46,2.29h1.29l.45-2.29h1.36l-.47,2.29h.81v1.29h-1.07l-.35,1.73h1.42v1.29h-1.69l-.46,2.29h-1.31l.45-2.29h-1.3l-.46,2.29H460.5Zm1.93-3-.35,1.73h1.3l.34-1.73Z" transform="translate(-54.04 -88.14)" fill="#00afb9"/>
      <path d="M467.64,822.15h-.8v-1.29h1.05l.35-1.73h-1.41v-1.29h1.67l.46-2.29h1.31l-.46,2.29h1.29l.45-2.29h1.36l-.47,2.29h.81v1.29H472.2l-.35,1.73h1.42v1.29h-1.69l-.46,2.29h-1.31l.45-2.29H469l-.46,2.29h-1.32Zm1.93-3-.35,1.73h1.3l.34-1.73Z" transform="translate(-54.04 -88.14)" fill="#00afb9"/>
      <path d="M474.31,822.15h-.8v-1.29h1.05l.35-1.73h-1.41v-1.29h1.67l.46-2.29H477l-.46,2.29h1.29l.45-2.29h1.36l-.47,2.29h.81v1.29h-1.07l-.35,1.73h1.42v1.29h-1.69l-.46,2.29h-1.31l.45-2.29h-1.3l-.46,2.29h-1.32Zm1.93-3-.35,1.73h1.3l.34-1.73Z" transform="translate(-54.04 -88.14)" fill="#00afb9"/>
      <path d="M481,822.15h-.8v-1.29h1.05l.35-1.73h-1.41v-1.29h1.67l.46-2.29h1.31l-.46,2.29h1.29l.45-2.29h1.36l-.47,2.29h.81v1.29h-1.07l-.35,1.73h1.42v1.29h-1.69l-.46,2.29h-1.31l.45-2.29h-1.3l-.46,2.29h-1.32Zm1.93-3-.35,1.73h1.3l.34-1.73Z" transform="translate(-54.04 -88.14)" fill="#00afb9"/>
      <path d="M487.66,822.15h-.8v-1.29h1.05l.35-1.73h-1.41v-1.29h1.67l.46-2.29h1.31l-.46,2.29h1.29l.45-2.29H493l-.47,2.29h.81v1.29h-1.07l-.35,1.73h1.42v1.29H491.6l-.46,2.29h-1.31l.45-2.29H489l-.46,2.29H487.2Zm1.93-3-.35,1.73h1.3l.34-1.73Z" transform="translate(-54.04 -88.14)" fill="#00afb9"/>
      <path d="M494.33,822.15h-.8v-1.29h1.05l.35-1.73h-1.41v-1.29h1.67l.46-2.29H497l-.46,2.29h1.29l.45-2.29h1.36l-.47,2.29H500v1.29h-1.07l-.35,1.73H500v1.29h-1.69l-.46,2.29h-1.31l.45-2.29h-1.3l-.46,2.29h-1.32Zm1.93-3-.35,1.73h1.3l.34-1.73Z" transform="translate(-54.04 -88.14)" fill="#00afb9"/>
    </g>
    <g>
      <path d="M597.62,772.15h-.8v-1.29h1.05l.35-1.73h-1.41v-1.29h1.67l.46-2.29h1.31l-.46,2.29h1.29l.45-2.29h1.36l-.47,2.29h.81v1.29h-1.07l-.35,1.73h1.42v1.29h-1.69l-.46,2.29h-1.31l.45-2.29h-1.3l-.46,2.29h-1.32Zm1.93-3-.35,1.73h1.3l.34-1.73Z" transform="translate(-54.04 -88.14)" fill="#00afb9"/>
      <path d="M604.29,772.15h-.8v-1.29h1.05l.35-1.73h-1.41v-1.29h1.67l.46-2.29h1.31l-.46,2.29h1.29l.45-2.29h1.36l-.47,2.29h.81v1.29h-1.07l-.35,1.73h1.42v1.29h-1.69l-.46,2.29h-1.31l.45-2.29h-1.3l-.46,2.29h-1.32Zm1.93-3-.35,1.73h1.3l.34-1.73Z" transform="translate(-54.04 -88.14)" fill="#00afb9"/>
      <path d="M611,772.15h-.8v-1.29h1.05l.35-1.73h-1.41v-1.29h1.67l.46-2.29h1.31l-.46,2.29h1.29l.45-2.29h1.36l-.47,2.29h.81v1.29h-1.07l-.35,1.73h1.42v1.29h-1.69l-.46,2.29h-1.31l.45-2.29h-1.3l-.46,2.29H610.5Zm1.93-3-.35,1.73h1.3l.34-1.73Z" transform="translate(-54.04 -88.14)" fill="#00afb9"/>
      <path d="M617.64,772.15h-.8v-1.29h1.05l.35-1.73h-1.41v-1.29h1.67l.46-2.29h1.31l-.46,2.29h1.29l.45-2.29h1.36l-.47,2.29h.81v1.29H622.2l-.35,1.73h1.42v1.29h-1.69l-.46,2.29h-1.31l.45-2.29H619l-.46,2.29h-1.32Zm1.93-3-.35,1.73h1.3l.34-1.73Z" transform="translate(-54.04 -88.14)" fill="#00afb9"/>
      <path d="M624.31,772.15h-.8v-1.29h1.05l.35-1.73h-1.41v-1.29h1.67l.46-2.29H627l-.46,2.29h1.29l.45-2.29h1.36l-.47,2.29h.81v1.29h-1.07l-.35,1.73h1.42v1.29h-1.69l-.46,2.29h-1.31l.45-2.29h-1.3l-.46,2.29h-1.32Zm1.93-3-.35,1.73h1.3l.34-1.73Z" transform="translate(-54.04 -88.14)" fill="#00afb9"/>
      <path d="M631,772.15h-.8v-1.29h1.05l.35-1.73h-1.41v-1.29h1.67l.46-2.29h1.31l-.46,2.29h1.29l.45-2.29h1.36l-.47,2.29h.81v1.29h-1.07l-.35,1.73h1.42v1.29h-1.69l-.46,2.29h-1.31l.45-2.29h-1.3l-.46,2.29h-1.32Zm1.93-3-.35,1.73h1.3l.34-1.73Z" transform="translate(-54.04 -88.14)" fill="#00afb9"/>
      <path d="M637.66,772.15h-.8v-1.29h1.05l.35-1.73h-1.41v-1.29h1.67l.46-2.29h1.31l-.46,2.29h1.29l.45-2.29H643l-.47,2.29h.81v1.29h-1.07l-.35,1.73h1.42v1.29H641.6l-.46,2.29h-1.31l.45-2.29H639l-.46,2.29H637.2Zm1.93-3-.35,1.73h1.3l.34-1.73Z" transform="translate(-54.04 -88.14)" fill="#00afb9"/>
      <path d="M644.33,772.15h-.8v-1.29h1.05l.35-1.73h-1.41v-1.29h1.67l.46-2.29H647l-.46,2.29h1.29l.45-2.29h1.36l-.47,2.29H650v1.29h-1.07l-.35,1.73H650v1.29h-1.69l-.46,2.29h-1.31l.45-2.29h-1.3l-.46,2.29h-1.32Zm1.93-3-.35,1.73h1.3l.34-1.73Z" transform="translate(-54.04 -88.14)" fill="#00afb9"/>
    </g>
    <g>
      <path d="M747.62,722.15h-.8v-1.29h1.05l.35-1.73h-1.41v-1.29h1.67l.46-2.29h1.31l-.46,2.29h1.29l.45-2.29h1.36l-.47,2.29h.81v1.29h-1.07l-.35,1.73h1.42v1.29h-1.69l-.46,2.29h-1.31l.45-2.29h-1.3l-.46,2.29h-1.32Zm1.93-3-.35,1.73h1.3l.34-1.73Z" transform="translate(-54.04 -88.14)" fill="#00afb9"/>
      <path d="M754.29,722.15h-.8v-1.29h1.05l.35-1.73h-1.41v-1.29h1.67l.46-2.29h1.31l-.46,2.29h1.29l.45-2.29h1.36l-.47,2.29h.81v1.29h-1.07l-.35,1.73h1.42v1.29h-1.69l-.46,2.29h-1.31l.45-2.29h-1.3l-.46,2.29h-1.32Zm1.93-3-.35,1.73h1.3l.34-1.73Z" transform="translate(-54.04 -88.14)" fill="#00afb9"/>
      <path d="M761,722.15h-.8v-1.29h1.05l.35-1.73h-1.41v-1.29h1.67l.46-2.29h1.31l-.46,2.29h1.29l.45-2.29h1.36l-.47,2.29h.81v1.29h-1.07l-.35,1.73h1.42v1.29h-1.69l-.46,2.29h-1.31l.45-2.29h-1.3l-.46,2.29H760.5Zm1.93-3-.35,1.73h1.3l.34-1.73Z" transform="translate(-54.04 -88.14)" fill="#00afb9"/>
      <path d="M767.64,722.15h-.8v-1.29h1.05l.35-1.73h-1.41v-1.29h1.67l.46-2.29h1.31l-.46,2.29h1.29l.45-2.29h1.36l-.47,2.29h.81v1.29H772.2l-.35,1.73h1.42v1.29h-1.69l-.46,2.29h-1.31l.45-2.29H769l-.46,2.29h-1.32Zm1.93-3-.35,1.73h1.3l.34-1.73Z" transform="translate(-54.04 -88.14)" fill="#00afb9"/>
      <path d="M774.31,722.15h-.8v-1.29h1.05l.35-1.73h-1.41v-1.29h1.67l.46-2.29H777l-.46,2.29h1.29l.45-2.29h1.36l-.47,2.29h.81v1.29h-1.07l-.35,1.73h1.42v1.29h-1.69l-.46,2.29h-1.31l.45-2.29h-1.3l-.46,2.29h-1.32Zm1.93-3-.35,1.73h1.3l.34-1.73Z" transform="translate(-54.04 -88.14)" fill="#00afb9"/>
      <path d="M781,722.15h-.8v-1.29h1.05l.35-1.73h-1.41v-1.29h1.67l.46-2.29h1.31l-.46,2.29h1.29l.45-2.29h1.36l-.47,2.29h.81v1.29h-1.07l-.35,1.73h1.42v1.29h-1.69l-.46,2.29h-1.31l.45-2.29h-1.3l-.46,2.29h-1.32Zm1.93-3-.35,1.73h1.3l.34-1.73Z" transform="translate(-54.04 -88.14)" fill="#00afb9"/>
      <path d="M787.66,722.15h-.8v-1.29h1.05l.35-1.73h-1.41v-1.29h1.67l.46-2.29h1.31l-.46,2.29h1.29l.45-2.29H793l-.47,2.29h.81v1.29h-1.07l-.35,1.73h1.42v1.29H791.6l-.46,2.29h-1.31l.45-2.29H789l-.46,2.29H787.2Zm1.93-3-.35,1.73h1.3l.34-1.73Z" transform="translate(-54.04 -88.14)" fill="#00afb9"/>
      <path d="M794.33,722.15h-.8v-1.29h1.05l.35-1.73h-1.41v-1.29h1.67l.46-2.29H797l-.46,2.29h1.29l.45-2.29h1.36l-.47,2.29H800v1.29h-1.07l-.35,1.73H800v1.29h-1.69l-.46,2.29h-1.31l.45-2.29h-1.3l-.46,2.29h-1.32Zm1.93-3-.35,1.73h1.3l.34-1.73Z" transform="translate(-54.04 -88.14)" fill="#00afb9"/>
    </g>
    <g>
      <path d="M897.62,672.15h-.8v-1.29h1.05l.35-1.73h-1.41v-1.29h1.67l.46-2.29h1.31l-.46,2.29h1.29l.45-2.29h1.36l-.47,2.29h.81v1.29h-1.07l-.35,1.73h1.42v1.29h-1.69l-.46,2.29h-1.31l.45-2.29h-1.3l-.46,2.29h-1.32Zm1.93-3-.35,1.73h1.3l.34-1.73Z" transform="translate(-54.04 -88.14)" fill="#00afb9"/>
      <path d="M904.29,672.15h-.8v-1.29h1.05l.35-1.73h-1.41v-1.29h1.67l.46-2.29h1.31l-.46,2.29h1.29l.45-2.29h1.36l-.47,2.29h.81v1.29h-1.07l-.35,1.73h1.42v1.29h-1.69l-.46,2.29h-1.31l.45-2.29h-1.3l-.46,2.29h-1.32Zm1.93-3-.35,1.73h1.3l.34-1.73Z" transform="translate(-54.04 -88.14)" fill="#00afb9"/>
      <path d="M911,672.15h-.8v-1.29h1.05l.35-1.73h-1.41v-1.29h1.67l.46-2.29h1.31l-.46,2.29h1.29l.45-2.29h1.36l-.47,2.29h.81v1.29h-1.07l-.35,1.73h1.42v1.29h-1.69l-.46,2.29h-1.31l.45-2.29h-1.3l-.46,2.29H910.5Zm1.93-3-.35,1.73h1.3l.34-1.73Z" transform="translate(-54.04 -88.14)" fill="#00afb9"/>
      <path d="M917.64,672.15h-.8v-1.29h1.05l.35-1.73h-1.41v-1.29h1.67l.46-2.29h1.31l-.46,2.29h1.29l.45-2.29h1.36l-.47,2.29h.81v1.29H922.2l-.35,1.73h1.42v1.29h-1.69l-.46,2.29h-1.31l.45-2.29H919l-.46,2.29h-1.32Zm1.93-3-.35,1.73h1.3l.34-1.73Z" transform="translate(-54.04 -88.14)" fill="#00afb9"/>
      <path d="M924.31,672.15h-.8v-1.29h1.05l.35-1.73h-1.41v-1.29h1.67l.46-2.29H927l-.46,2.29h1.29l.45-2.29h1.36l-.47,2.29h.81v1.29h-1.07l-.35,1.73h1.42v1.29h-1.69l-.46,2.29h-1.31l.45-2.29h-1.3l-.46,2.29h-1.32Zm1.93-3-.35,1.73h1.3l.34-1.73Z" transform="translate(-54.04 -88.14)" fill="#00afb9"/>
      <path d="M931,672.15h-.8v-1.29h1.05l.35-1.73h-1.41v-1.29h1.67l.46-2.29h1.31l-.46,2.29h1.29l.45-2.29h1.36l-.47,2.29h.81v1.29h-1.07l-.35,1.73h1.42v1.29h-1.69l-.46,2.29h-1.31l.45-2.29h-1.3l-.46,2.29h-1.32Zm1.93-3-.35,1.73h1.3l.34-1.73Z" transform="translate(-54.04 -88.14)" fill="#00afb9"/>
      <path d="M937.66,672.15h-.8v-1.29h1.05l.35-1.73h-1.41v-1.29h1.67l.46-2.29h1.31l-.46,2.29h1.29l.45-2.29H943l-.47,2.29h.81v1.29h-1.07l-.35,1.73h1.42v1.29H941.6l-.46,2.29h-1.31l.45-2.29H939l-.46,2.29H937.2Zm1.93-3-.35,1.73h1.3l.34-1.73Z" transform="translate(-54.04 -88.14)" fill="#00afb9"/>
      <path d="M944.33,672.15h-.8v-1.29h1.05l.35-1.73h-1.41v-1.29h1.67l.46-2.29H947l-.46,2.29h1.29l.45-2.29h1.36l-.47,2.29H950v1.29h-1.07l-.35,1.73H950v1.29h-1.69l-.46,2.29h-1.31l.45-2.29h-1.3l-.46,2.29h-1.32Zm1.93-3-.35,1.73h1.3l.34-1.73Z" transform="translate(-54.04 -88.14)" fill="#00afb9"/>
    </g>
    <g>
      <path d="M1047.62,622.15h-.8v-1.29h1.05l.35-1.73h-1.41v-1.29h1.67l.46-2.29h1.31l-.46,2.29h1.29l.45-2.29h1.36l-.47,2.29h.81v1.29h-1.07l-.35,1.73h1.42v1.29h-1.69l-.46,2.29h-1.31l.45-2.29h-1.3l-.46,2.29h-1.32Zm1.93-3-.35,1.73h1.3l.34-1.73Z" transform="translate(-54.04 -88.14)" fill="#00afb9"/>
      <path d="M1054.29,622.15h-.8v-1.29h1.05l.35-1.73h-1.41v-1.29h1.67l.46-2.29h1.31l-.46,2.29h1.29l.45-2.29h1.36l-.47,2.29h.81v1.29h-1.07l-.35,1.73h1.42v1.29h-1.69l-.46,2.29h-1.31l.45-2.29h-1.3l-.46,2.29h-1.32Zm1.93-3-.35,1.73h1.3l.34-1.73Z" transform="translate(-54.04 -88.14)" fill="#00afb9"/>
      <path d="M1061,622.15h-.8v-1.29h1.05l.35-1.73h-1.41v-1.29h1.67l.46-2.29h1.31l-.46,2.29h1.29l.45-2.29h1.36l-.47,2.29h.81v1.29h-1.07l-.35,1.73h1.42v1.29h-1.69l-.46,2.29h-1.31l.45-2.29h-1.3l-.46,2.29h-1.32Zm1.93-3-.35,1.73h1.3l.34-1.73Z" transform="translate(-54.04 -88.14)" fill="#00afb9"/>
      <path d="M1067.64,622.15h-.8v-1.29h1.05l.35-1.73h-1.41v-1.29h1.67l.46-2.29h1.31l-.46,2.29h1.29l.45-2.29h1.36l-.47,2.29h.81v1.29h-1.07l-.35,1.73h1.42v1.29h-1.69l-.46,2.29h-1.31l.45-2.29H1069l-.46,2.29h-1.32Zm1.93-3-.35,1.73h1.3l.34-1.73Z" transform="translate(-54.04 -88.14)" fill="#00afb9"/>
      <path d="M1074.31,622.15h-.8v-1.29h1.05l.35-1.73h-1.41v-1.29h1.67l.46-2.29H1077l-.46,2.29h1.29l.45-2.29h1.36l-.47,2.29h.81v1.29h-1.07l-.35,1.73h1.42v1.29h-1.69l-.46,2.29h-1.31l.45-2.29h-1.3l-.46,2.29h-1.32Zm1.93-3-.35,1.73h1.3l.34-1.73Z" transform="translate(-54.04 -88.14)" fill="#00afb9"/>
      <path d="M1081,622.15h-.8v-1.29h1.05l.35-1.73h-1.41v-1.29h1.67l.46-2.29h1.31l-.46,2.29h1.29l.45-2.29h1.36l-.47,2.29h.81v1.29h-1.07l-.35,1.73h1.42v1.29h-1.69l-.46,2.29h-1.31l.45-2.29h-1.3l-.46,2.29h-1.32Zm1.93-3-.35,1.73h1.3l.34-1.73Z" transform="translate(-54.04 -88.14)" fill="#00afb9"/>
      <path d="M1087.66,622.15h-.8v-1.29h1.05l.35-1.73h-1.41v-1.29h1.67l.46-2.29h1.31l-.46,2.29h1.29l.45-2.29H1093l-.47,2.29h.81v1.29h-1.07l-.35,1.73h1.42v1.29h-1.69l-.46,2.29h-1.31l.45-2.29H1089l-.46,2.29h-1.32Zm1.93-3-.35,1.73h1.3l.34-1.73Z" transform="translate(-54.04 -88.14)" fill="#00afb9"/>
      <path d="M1094.33,622.15h-.8v-1.29h1.05l.35-1.73h-1.41v-1.29h1.67l.46-2.29H1097l-.46,2.29h1.29l.45-2.29h1.36l-.47,2.29h.81v1.29h-1.07l-.35,1.73H1100v1.29h-1.69l-.46,2.29h-1.31l.45-2.29h-1.3l-.46,2.29h-1.32Zm1.93-3-.35,1.73h1.3l.34-1.73Z" transform="translate(-54.04 -88.14)" fill="#00afb9"/>
    </g>
    <g>
      <path d="M1197.62,572.15h-.8v-1.29h1.05l.35-1.73h-1.41v-1.29h1.67l.46-2.29h1.31l-.46,2.29h1.29l.45-2.29h1.36l-.47,2.29h.81v1.29h-1.07l-.35,1.73h1.42v1.29h-1.69l-.46,2.29h-1.31l.45-2.29h-1.3l-.46,2.29h-1.32Zm1.93-3-.35,1.73h1.3l.34-1.73Z" transform="translate(-54.04 -88.14)" fill="#00afb9"/>
      <path d="M1204.29,572.15h-.8v-1.29h1.05l.35-1.73h-1.41v-1.29h1.67l.46-2.29h1.31l-.46,2.29h1.29l.45-2.29h1.36l-.47,2.29h.81v1.29h-1.07l-.35,1.73h1.42v1.29h-1.69l-.46,2.29h-1.31l.45-2.29h-1.3l-.46,2.29h-1.32Zm1.93-3-.35,1.73h1.3l.34-1.73Z" transform="translate(-54.04 -88.14)" fill="#00afb9"/>
      <path d="M1211,572.15h-.8v-1.29h1.05l.35-1.73h-1.41v-1.29h1.67l.46-2.29h1.31l-.46,2.29h1.29l.45-2.29h1.36l-.47,2.29h.81v1.29h-1.07l-.35,1.73h1.42v1.29h-1.69l-.46,2.29h-1.31l.45-2.29h-1.3l-.46,2.29h-1.32Zm1.93-3-.35,1.73h1.3l.34-1.73Z" transform="translate(-54.04 -88.14)" fill="#00afb9"/>
      <path d="M1217.64,572.15h-.8v-1.29h1.05l.35-1.73h-1.41v-1.29h1.67l.46-2.29h1.31l-.46,2.29h1.29l.45-2.29h1.36l-.47,2.29h.81v1.29h-1.07l-.35,1.73h1.42v1.29h-1.69l-.46,2.29h-1.31l.45-2.29H1219l-.46,2.29h-1.32Zm1.93-3-.35,1.73h1.3l.34-1.73Z" transform="translate(-54.04 -88.14)" fill="#00afb9"/>
      <path d="M1224.31,572.15h-.8v-1.29h1.05l.35-1.73h-1.41v-1.29h1.67l.46-2.29H1227l-.46,2.29h1.29l.45-2.29h1.36l-.47,2.29h.81v1.29h-1.07l-.35,1.73h1.42v1.29h-1.69l-.46,2.29h-1.31l.45-2.29h-1.3l-.46,2.29h-1.32Zm1.93-3-.35,1.73h1.3l.34-1.73Z" transform="translate(-54.04 -88.14)" fill="#00afb9"/>
      <path d="M1231,572.15h-.8v-1.29h1.05l.35-1.73h-1.41v-1.29h1.67l.46-2.29h1.31l-.46,2.29h1.29l.45-2.29h1.36l-.47,2.29h.81v1.29h-1.07l-.35,1.73h1.42v1.29h-1.69l-.46,2.29h-1.31l.45-2.29h-1.3l-.46,2.29h-1.32Zm1.93-3-.35,1.73h1.3l.34-1.73Z" transform="translate(-54.04 -88.14)" fill="#00afb9"/>
      <path d="M1237.66,572.15h-.8v-1.29h1.05l.35-1.73h-1.41v-1.29h1.67l.46-2.29h1.31l-.46,2.29h1.29l.45-2.29H1243l-.47,2.29h.81v1.29h-1.07l-.35,1.73h1.42v1.29h-1.69l-.46,2.29h-1.31l.45-2.29H1239l-.46,2.29h-1.32Zm1.93-3-.35,1.73h1.3l.34-1.73Z" transform="translate(-54.04 -88.14)" fill="#00afb9"/>
      <path d="M1244.33,572.15h-.8v-1.29h1.05l.35-1.73h-1.41v-1.29h1.67l.46-2.29H1247l-.46,2.29h1.29l.45-2.29h1.36l-.47,2.29h.81v1.29h-1.07l-.35,1.73H1250v1.29h-1.69l-.46,2.29h-1.31l.45-2.29h-1.3l-.46,2.29h-1.32Zm1.93-3-.35,1.73h1.3l.34-1.73Z" transform="translate(-54.04 -88.14)" fill="#00afb9"/>
    </g>
    <g>
      <path d="M1347.62,522.15h-.8v-1.29h1.05l.35-1.73h-1.41v-1.29h1.67l.46-2.29h1.31l-.46,2.29h1.29l.45-2.29h1.36l-.47,2.29h.81v1.29h-1.07l-.35,1.73h1.42v1.29h-1.69l-.46,2.29h-1.31l.45-2.29h-1.3l-.46,2.29h-1.32Zm1.93-3-.35,1.73h1.3l.34-1.73Z" transform="translate(-54.04 -88.14)" fill="#00afb9"/>
      <path d="M1354.29,522.15h-.8v-1.29h1.05l.35-1.73h-1.41v-1.29h1.67l.46-2.29h1.31l-.46,2.29h1.29l.45-2.29h1.36l-.47,2.29h.81v1.29h-1.07l-.35,1.73h1.42v1.29h-1.69l-.46,2.29h-1.31l.45-2.29h-1.3l-.46,2.29h-1.32Zm1.93-3-.35,1.73h1.3l.34-1.73Z" transform="translate(-54.04 -88.14)" fill="#00afb9"/>
      <path d="M1361,522.15h-.8v-1.29h1.05l.35-1.73h-1.41v-1.29h1.67l.46-2.29h1.31l-.46,2.29h1.29l.45-2.29h1.36l-.47,2.29h.81v1.29h-1.07l-.35,1.73h1.42v1.29h-1.69l-.46,2.29h-1.31l.45-2.29h-1.3l-.46,2.29h-1.32Zm1.93-3-.35,1.73h1.3l.34-1.73Z" transform="translate(-54.04 -88.14)" fill="#00afb9"/>
      <path d="M1367.64,522.15h-.8v-1.29h1.05l.35-1.73h-1.41v-1.29h1.67l.46-2.29h1.31l-.46,2.29h1.29l.45-2.29h1.36l-.47,2.29h.81v1.29h-1.07l-.35,1.73h1.42v1.29h-1.69l-.46,2.29h-1.31l.45-2.29H1369l-.46,2.29h-1.32Zm1.93-3-.35,1.73h1.3l.34-1.73Z" transform="translate(-54.04 -88.14)" fill="#00afb9"/>
      <path d="M1374.31,522.15h-.8v-1.29h1.05l.35-1.73h-1.41v-1.29h1.67l.46-2.29H1377l-.46,2.29h1.29l.45-2.29h1.36l-.47,2.29h.81v1.29h-1.07l-.35,1.73h1.42v1.29h-1.69l-.46,2.29h-1.31l.45-2.29h-1.3l-.46,2.29h-1.32Zm1.93-3-.35,1.73h1.3l.34-1.73Z" transform="translate(-54.04 -88.14)" fill="#00afb9"/>
      <path d="M1381,522.15h-.8v-1.29h1.05l.35-1.73h-1.41v-1.29h1.67l.46-2.29h1.31l-.46,2.29h1.29l.45-2.29h1.36l-.47,2.29h.81v1.29h-1.07l-.35,1.73h1.42v1.29h-1.69l-.46,2.29h-1.31l.45-2.29h-1.3l-.46,2.29h-1.32Zm1.93-3-.35,1.73h1.3l.34-1.73Z" transform="translate(-54.04 -88.14)" fill="#00afb9"/>
      <path d="M1387.66,522.15h-.8v-1.29h1.05l.35-1.73h-1.41v-1.29h1.67l.46-2.29h1.31l-.46,2.29h1.29l.45-2.29H1393l-.47,2.29h.81v1.29h-1.07l-.35,1.73h1.42v1.29h-1.69l-.46,2.29h-1.31l.45-2.29H1389l-.46,2.29h-1.32Zm1.93-3-.35,1.73h1.3l.34-1.73Z" transform="translate(-54.04 -88.14)" fill="#00afb9"/>
      <path d="M1394.33,522.15h-.8v-1.29h1.05l.35-1.73h-1.41v-1.29h1.67l.46-2.29H1397l-.46,2.29h1.29l.45-2.29h1.36l-.47,2.29h.81v1.29h-1.07l-.35,1.73H1400v1.29h-1.69l-.46,2.29h-1.31l.45-2.29h-1.3l-.46,2.29h-1.32Zm1.93-3-.35,1.73h1.3l.34-1.73Z" transform="translate(-54.04 -88.14)" fill="#00afb9"/>
    </g>
    <g>
      <path d="M1497.62,472.15h-.8v-1.29h1.05l.35-1.73h-1.41v-1.29h1.67l.46-2.29h1.31l-.46,2.29h1.29l.45-2.29h1.36l-.47,2.29h.81v1.29h-1.07l-.35,1.73h1.42v1.29h-1.69l-.46,2.29h-1.31l.45-2.29h-1.3l-.46,2.29h-1.32Zm1.93-3-.35,1.73h1.3l.34-1.73Z" transform="translate(-54.04 -88.14)" fill="#00afb9"/>
      <path d="M1504.29,472.15h-.8v-1.29h1.05l.35-1.73h-1.41v-1.29h1.67l.46-2.29h1.31l-.46,2.29h1.29l.45-2.29h1.36l-.47,2.29h.81v1.29h-1.07l-.35,1.73h1.42v1.29h-1.69l-.46,2.29h-1.31l.45-2.29h-1.3l-.46,2.29h-1.32Zm1.93-3-.35,1.73h1.3l.34-1.73Z" transform="translate(-54.04 -88.14)" fill="#00afb9"/>
      <path d="M1511,472.15h-.8v-1.29h1.05l.35-1.73h-1.41v-1.29h1.67l.46-2.29h1.31l-.46,2.29h1.29l.45-2.29h1.36l-.47,2.29h.81v1.29h-1.07l-.35,1.73h1.42v1.29h-1.69l-.46,2.29h-1.31l.45-2.29h-1.3l-.46,2.29h-1.32Zm1.93-3-.35,1.73h1.3l.34-1.73Z" transform="translate(-54.04 -88.14)" fill="#00afb9"/>
      <path d="M1517.64,472.15h-.8v-1.29h1.05l.35-1.73h-1.41v-1.29h1.67l.46-2.29h1.31l-.46,2.29h1.29l.45-2.29h1.36l-.47,2.29h.81v1.29h-1.07l-.35,1.73h1.42v1.29h-1.69l-.46,2.29h-1.31l.45-2.29H1519l-.46,2.29h-1.32Zm1.93-3-.35,1.73h1.3l.34-1.73Z" transform="translate(-54.04 -88.14)" fill="#00afb9"/>
      <path d="M1524.31,472.15h-.8v-1.29h1.05l.35-1.73h-1.41v-1.29h1.67l.46-2.29H1527l-.46,2.29h1.29l.45-2.29h1.36l-.47,2.29h.81v1.29h-1.07l-.35,1.73h1.42v1.29h-1.69l-.46,2.29h-1.31l.45-2.29h-1.3l-.46,2.29h-1.32Zm1.93-3-.35,1.73h1.3l.34-1.73Z" transform="translate(-54.04 -88.14)" fill="#00afb9"/>
      <path d="M1531,472.15h-.8v-1.29h1.05l.35-1.73h-1.41v-1.29h1.67l.46-2.29h1.31l-.46,2.29h1.29l.45-2.29h1.36l-.47,2.29h.81v1.29h-1.07l-.35,1.73h1.42v1.29h-1.69l-.46,2.29h-1.31l.45-2.29h-1.3l-.46,2.29h-1.32Zm1.93-3-.35,1.73h1.3l.34-1.73Z" transform="translate(-54.04 -88.14)" fill="#00afb9"/>
      <path d="M1537.66,472.15h-.8v-1.29h1.05l.35-1.73h-1.41v-1.29h1.67l.46-2.29h1.31l-.46,2.29h1.29l.45-2.29H1543l-.47,2.29h.81v1.29h-1.07l-.35,1.73h1.42v1.29h-1.69l-.46,2.29h-1.31l.45-2.29H1539l-.46,2.29h-1.32Zm1.93-3-.35,1.73h1.3l.34-1.73Z" transform="translate(-54.04 -88.14)" fill="#00afb9"/>
      <path d="M1544.33,472.15h-.8v-1.29h1.05l.35-1.73h-1.41v-1.29h1.67l.46-2.29H1547l-.46,2.29h1.29l.45-2.29h1.36l-.47,2.29h.81v1.29h-1.07l-.35,1.73H1550v1.29h-1.69l-.46,2.29h-1.31l.45-2.29h-1.3l-.46,2.29h-1.32Zm1.93-3-.35,1.73h1.3l.34-1.73Z" transform="translate(-54.04 -88.14)" fill="#00afb9"/>
    </g>
    <g>
      <path d="M1647.62,422.15h-.8v-1.29h1.05l.35-1.73h-1.41v-1.29h1.67l.46-2.29h1.31l-.46,2.29h1.29l.45-2.29h1.36l-.47,2.29h.81v1.29h-1.07l-.35,1.73h1.42v1.29h-1.69l-.46,2.29h-1.31l.45-2.29h-1.3l-.46,2.29h-1.32Zm1.93-3-.35,1.73h1.3l.34-1.73Z" transform="translate(-54.04 -88.14)" fill="#00afb9"/>
      <path d="M1654.29,422.15h-.8v-1.29h1.05l.35-1.73h-1.41v-1.29h1.67l.46-2.29h1.31l-.46,2.29h1.29l.45-2.29h1.36l-.47,2.29h.81v1.29h-1.07l-.35,1.73h1.42v1.29h-1.69l-.46,2.29h-1.31l.45-2.29h-1.3l-.46,2.29h-1.32Zm1.93-3-.35,1.73h1.3l.34-1.73Z" transform="translate(-54.04 -88.14)" fill="#00afb9"/>
      <path d="M1661,422.15h-.8v-1.29h1.05l.35-1.73h-1.41v-1.29h1.67l.46-2.29h1.31l-.46,2.29h1.29l.45-2.29h1.36l-.47,2.29h.81v1.29h-1.07l-.35,1.73h1.42v1.29h-1.69l-.46,2.29h-1.31l.45-2.29h-1.3l-.46,2.29h-1.32Zm1.93-3-.35,1.73h1.3l.34-1.73Z" transform="translate(-54.04 -88.14)" fill="#00afb9"/>
      <path d="M1667.64,422.15h-.8v-1.29h1.05l.35-1.73h-1.41v-1.29h1.67l.46-2.29h1.31l-.46,2.29h1.29l.45-2.29h1.36l-.47,2.29h.81v1.29h-1.07l-.35,1.73h1.42v1.29h-1.69l-.46,2.29h-1.31l.45-2.29H1669l-.46,2.29h-1.32Zm1.93-3-.35,1.73h1.3l.34-1.73Z" transform="translate(-54.04 -88.14)" fill="#00afb9"/>
      <path d="M1674.31,422.15h-.8v-1.29h1.05l.35-1.73h-1.41v-1.29h1.67l.46-2.29H1677l-.46,2.29h1.29l.45-2.29h1.36l-.47,2.29h.81v1.29h-1.07l-.35,1.73h1.42v1.29h-1.69l-.46,2.29h-1.31l.45-2.29h-1.3l-.46,2.29h-1.32Zm1.93-3-.35,1.73h1.3l.34-1.73Z" transform="translate(-54.04 -88.14)" fill="#00afb9"/>
      <path d="M1681,422.15h-.8v-1.29h1.05l.35-1.73h-1.41v-1.29h1.67l.46-2.29h1.31l-.46,2.29h1.29l.45-2.29h1.36l-.47,2.29h.81v1.29h-1.07l-.35,1.73h1.42v1.29h-1.69l-.46,2.29h-1.31l.45-2.29h-1.3l-.46,2.29h-1.32Zm1.93-3-.35,1.73h1.3l.34-1.73Z" transform="translate(-54.04 -88.14)" fill="#00afb9"/>
      <path d="M1687.66,422.15h-.8v-1.29h1.05l.35-1.73h-1.41v-1.29h1.67l.46-2.29h1.31l-.46,2.29h1.29l.45-2.29H1693l-.47,2.29h.81v1.29h-1.07l-.35,1.73h1.42v1.29h-1.69l-.46,2.29h-1.31l.45-2.29H1689l-.46,2.29h-1.32Zm1.93-3-.35,1.73h1.3l.34-1.73Z" transform="translate(-54.04 -88.14)" fill="#00afb9"/>
      <path d="M1694.33,422.15h-.8v-1.29h1.05l.35-1.73h-1.41v-1.29h1.67l.46-2.29H1697l-.46,2.29h1.29l.45-2.29h1.36l-.47,2.29h.81v1.29h-1.07l-.35,1.73H1700v1.29h-1.69l-.46,2.29h-1.31l.45-2.29h-1.3l-.46,2.29h-1.32Zm1.93-3-.35,1.73h1.3l.34-1.73Z" transform="translate(-54.04 -88.14)" fill="#00afb9"/>
    </g>
  </g>
  <g>
    <g>
      <polygon points="394.42 717.41 388.96 656.14 448.96 656.14 443.5 717.39 418.91 724.21 394.42 717.41" fill="#e44d26"/>
      <polygon points="418.96 719.01 438.81 713.51 443.5 661.15 418.96 661.15 418.96 719.01" fill="#f16529"/>
      <polygon points="418.96 683.88 409 683.88 408.32 676.19 418.96 676.19 418.96 668.68 418.93 668.68 400.11 668.68 400.3 670.68 402.13 691.39 418.96 691.39 418.96 683.88" fill="#ebebeb"/>
      <polygon points="418.96 703.39 418.93 703.41 410.56 701.13 410.01 695.15 405.94 695.15 402.49 695.15 403.52 706.94 418.93 711.22 418.96 711.2 418.96 703.39" fill="#ebebeb"/>
      <path d="M448.58,727.65h3.81v3.76h3.48v-3.76h3.81v11.41h-3.81v-3.84h-3.48v3.84h-3.81V727.65Z" transform="translate(-54.04 -88.14)" fill="#e44d26"/>
      <path d="M464.72,731.44h-3.36v-3.79h10.54v3.79h-3.36v7.62h-3.81v-7.62Z" transform="translate(-54.04 -88.14)" fill="#e44d26"/>
      <path d="M473.59,727.65h4l2.45,4,2.45-4h4v11.41h-3.79v-5.65L480,737.48h-.07l-2.64-4.07v5.67h-3.74V727.65Z" transform="translate(-54.04 -88.14)" fill="#e44d26"/>
      <path d="M488.34,727.65h3.81v7.65h5.36v3.76h-9.18Z" transform="translate(-54.04 -88.14)" fill="#e44d26"/>
      <polygon points="418.93 683.88 418.93 691.39 428.18 691.39 427.31 701.13 418.93 703.39 418.93 711.22 434.32 706.94 434.44 705.67 436.2 685.91 436.39 683.88 434.37 683.88 418.93 683.88" fill="#fff"/>
      <polygon points="418.93 668.68 418.93 673.34 418.93 676.16 418.93 676.19 437.05 676.19 437.05 676.19 437.07 676.19 437.24 674.5 437.57 670.68 437.76 668.68 418.93 668.68" fill="#fff"/>
    </g>
    <g>
      <polygon points="545.41 667.41 539.96 606.14 599.96 606.14 594.5 667.39 569.91 674.21 545.41 667.41" fill="#1f72b5"/>
      <polygon points="569.96 669.01 589.82 663.51 594.5 611.15 569.96 611.15 569.96 669.01" fill="#51a3dc"/>
      <polygon points="550.45 625.29 549.72 618.21 590.19 618.21 589.72 626.42 572.62 633.98 589.01 633.98 587.25 657.27 570.71 661.72 553.56 657.55 552.5 645.74 560.07 645.74 560.5 651.98 570.43 653.84 579.6 651.01 580.03 641.04 551.84 641.04 551.32 633.62 569.96 625.46 550.45 625.29" fill="#ebebeb"/>
      <g>
        <polygon points="551.32 633.62 551.84 641.04 569.96 641.04 569.96 625.46 551.32 633.62" fill="#cecece"/>
        <polygon points="560.5 651.98 560.07 645.74 552.5 645.74 553.56 657.55 569.96 661.53 569.96 653.74 560.5 651.98" fill="#cecece"/>
        <polygon points="549.72 618.21 550.45 625.29 569.96 625.46 569.96 618.21 549.72 618.21" fill="#cecece"/>
      </g>
      <g>
        <polygon points="575.6 592.33 575.6 589.51 564.31 589.51 564.31 596.1 572.07 596.1 572.07 598.21 564.07 598.21 564.07 600.8 575.37 600.8 575.37 593.98 567.37 593.98 567.37 592.33 575.6 592.33" fill="#1f72b5"/>
        <polygon points="555.13 596.16 555.13 598.21 563.13 598.21 563.13 600.8 551.84 600.8 551.84 594.05 551.84 589.51 562.9 589.51 562.9 592.33 555.13 592.33 555.13 596.16" fill="#1f72b5"/>
        <polygon points="588.07 592.33 588.07 589.51 576.78 589.51 576.78 596.1 584.54 596.1 584.54 598.21 576.54 598.21 576.54 600.8 587.84 600.8 587.84 593.98 579.84 593.98 579.84 592.33 588.07 592.33" fill="#1f72b5"/>
      </g>
    </g>
    <g>
      <path d="M921.83,601.16c-15.23,0-14.28,6.61-14.28,6.61v6.84h14.53v2.05H901.8s-9.75-1.1-9.75,14.26,8.51,14.82,8.51,14.82h5.07v-7.12s-.27-8.51,8.37-8.51h14.41s8.1.13,8.1-7.83V609.13S937.74,601.16,921.83,601.16Zm-8,4.6a2.61,2.61,0,1,1-2.61,2.61A2.62,2.62,0,0,1,913.82,605.76Z" transform="translate(-54.04 -88.14)" fill="url(#a)"/>
      <path d="M922.26,660.84c15.23,0,14.28-6.61,14.28-6.61v-6.84H922v-2.05h20.3s9.75,1.1,9.75-14.26-8.51-14.82-8.51-14.82h-5.07v7.12s.27,8.51-8.37,8.51H915.69s-8.1-.13-8.1,7.83v13.16S906.34,660.84,922.26,660.84Zm8-4.6a2.61,2.61,0,1,1,2.61-2.61A2.62,2.62,0,0,1,930.27,656.24Z" transform="translate(-54.04 -88.14)" fill="url(#b)"/>
    </g>
    <g>
      <ellipse cx="719.96" cy="607.86" rx="30" ry="15.77" fill="url(#c)"/>
      <ellipse cx="719.96" cy="607.86" rx="28.83" ry="14.6" fill="#6181b6"/>
      <path d="M779.84,700.73l1.43-7.36c.33-1.66,0-2.91-.8-3.68s-2.23-1.13-4.29-1.13H773.7l.7-3.66a.49.49,0,0,0-.09-.4.42.42,0,0,0-.35-.16h-3.42a.48.48,0,0,0-.47.37l-1.52,7.8a4.17,4.17,0,0,0-1-2.25,6,6,0,0,0-4.71-1.73h-6.59a.48.48,0,0,0-.47.37l-3.07,15.84a.49.49,0,0,0,.09.4.42.42,0,0,0,.35.16h3.45A.48.48,0,0,0,757,705l.75-3.82h2.55a11.23,11.23,0,0,0,3.35-.42,6.65,6.65,0,0,0,2.46-1.48,7.57,7.57,0,0,0,1.45-1.8l-.61,3.16a.49.49,0,0,0,.09.4.42.42,0,0,0,.35.16h3.42a.48.48,0,0,0,.47-.38l1.69-8.67h2.34c1,0,1.29.19,1.38.28s.21.35,0,1.22l-1.36,7a.49.49,0,0,0,.09.4.42.42,0,0,0,.35.16h3.52A.65.65,0,0,0,779.84,700.73ZM764,694.64a3.72,3.72,0,0,1-1.2,2.34,4.73,4.73,0,0,1-2.81.68h-1.52l1.1-5.67h2c1.45,0,2,.3,2.27.56A2.69,2.69,0,0,1,764,694.64Z" transform="translate(-54.04 -88.14)" fill="#fff"/>
      <path d="M794.46,690.28a6,6,0,0,0-4.71-1.73h-6.63a.48.48,0,0,0-.47.37l-3.07,15.82a.49.49,0,0,0,.09.4.42.42,0,0,0,.35.16h3.45a.48.48,0,0,0,.47-.38l.75-3.82h2.55a11.23,11.23,0,0,0,3.35-.42,6.65,6.65,0,0,0,2.46-1.48,7.55,7.55,0,0,0,1.5-1.87,7.8,7.8,0,0,0,.82-2.25A5.42,5.42,0,0,0,794.46,690.28Zm-3.59,4.36a3.72,3.72,0,0,1-1.2,2.34,4.73,4.73,0,0,1-2.81.68h-1.52l1.1-5.67h2c1.45,0,2,.3,2.27.56A2.49,2.49,0,0,1,790.88,694.64Z" transform="translate(-54.04 -88.14)" fill="#fff"/>
      <path d="M761.53,691.52a3.51,3.51,0,0,1,2.62.73,2.82,2.82,0,0,1,.3,2.48,4.16,4.16,0,0,1-1.38,2.63,5.1,5.1,0,0,1-3.09.77H757.9l1.29-6.61h2.34Zm-8.39,13.31h3.45l.82-4.2h3a10.25,10.25,0,0,0,3.21-.42,6.16,6.16,0,0,0,2.3-1.38,7,7,0,0,0,1.41-1.76A6.84,6.84,0,0,0,768,695a4.9,4.9,0,0,0-.82-4.38,5.47,5.47,0,0,0-4.36-1.57h-6.63Z" transform="translate(-54.04 -88.14)" fill="#000004"/>
      <path d="M770.55,684.82H774l-.82,4.2h3c1.92,0,3.23.33,4,1s.94,1.76.66,3.26l-1.43,7.36h-3.47l1.36-7a1.88,1.88,0,0,0-.16-1.62,2.42,2.42,0,0,0-1.71-.45h-2.74l-1.76,9.07h-3.42Z" transform="translate(-54.04 -88.14)" fill="#000004"/>
      <path d="M788.41,691.52a3.51,3.51,0,0,1,2.62.73,2.82,2.82,0,0,1,.3,2.48,4.16,4.16,0,0,1-1.38,2.63,5.1,5.1,0,0,1-3.09.77h-2.09l1.29-6.61h2.34ZM780,704.84h3.45l.82-4.2h3a10.25,10.25,0,0,0,3.21-.42,6.16,6.16,0,0,0,2.3-1.38,7,7,0,0,0,1.41-1.76,6.84,6.84,0,0,0,.75-2.11,4.9,4.9,0,0,0-.82-4.38,5.47,5.47,0,0,0-4.36-1.57h-6.63Z" transform="translate(-54.04 -88.14)" fill="#000004"/>
    </g>
    <g>
      <rect x="1096" y="677" width="60" height="60" transform="translate(-169 141.63) rotate(-11.09)" fill="#f7df1e"/>
      <path d="M1115.91,729.5l4-3.61c1.18,1.37,2.21,2.52,4.11,2.14s2.83-1.29,2.29-4.05l-3.69-18.81,5.53-1.08,3.7,18.89c1.12,5.73-1.72,9-6.62,10a8.77,8.77,0,0,1-9.29-3.43" transform="translate(-54.04 -88.14)"/>
      <path d="M1135.37,725.07l4-3.49c1.56,1.7,3.38,2.82,6.11,2.29,2.29-.45,3.52-1.88,3.21-3.46-.37-1.9-2-2.27-4.76-2.89l-1.5-.33c-4.32-.92-7.39-2.53-8.27-7-.81-4.15,1.73-7.93,6.67-8.9,3.52-.69,6.29,0,8.73,2.89l-3.77,3.62c-1.28-1.52-2.44-2-4-1.67a2.45,2.45,0,0,0-2.18,2.89c.32,1.66,1.48,2.13,4.06,2.69l1.5.33c5.1,1.09,8.15,2.63,9.05,7.25,1,5-2.4,8.47-7.66,9.5s-8.94-.79-11.19-3.67" transform="translate(-54.04 -88.14)"/>
    </g>
    <g>
      <rect x="995.01" y="473.91" width="50" height="50" rx="1.95" ry="1.95" fill="#0c4b33"/>
      <g>
        <path d="M1072.31,565.08h7.19v33a47.72,47.72,0,0,1-9.33,1c-8.79,0-13.36-3.94-13.36-11.47,0-7.26,4.85-12,12.36-12a11.73,11.73,0,0,1,3.13.37V565.08Zm.26,16.8a7.25,7.25,0,0,0-2.43-.37c-3.64,0-5.74,2.22-5.74,6.11s2,5.88,5.7,5.88a17,17,0,0,0,2.47-.18Z" transform="translate(-54.04 -88.14)" fill="#fff"/>
        <path d="M1091.27,576.46V593c0,5.69-.43,8.42-1.67,10.78s-2.7,3.7-5.88,5.28l-6.68-3.15c3.17-1.48,4.71-2.78,5.7-4.77s1.36-4.39,1.36-10.59V576.46Z" transform="translate(-54.04 -88.14)" fill="#fff"/>
        <rect x="1029.32" y="476.94" width="7.19" height="7.31" fill="#fff"/>
      </g>
    </g>
    <path d="M1108.69,532.92c-1.35-.94-4.45-1.29-6.87-.82a9.43,9.43,0,0,0-3.83-6.21l-1.29-.94-.9,1.35a11.15,11.15,0,0,0-1.52,6.56,7.87,7.87,0,0,0,1.18,3.57,9.39,9.39,0,0,1-4.56,1.05h-40.7l-.12.47a21,21,0,0,0,4.22,15.29c3.49,4.28,8.67,6.45,15.48,6.45,14.75,0,25.68-7.09,30.8-19.92,2,.06,6.36,0,8.56-4.39.06-.12.16-.35.56-1.23l.22-.47Zm-25.95-16.52h-6.19v5.86h6.19Zm0,7h-6.19v5.86h6.19Zm-7.32,0h-6.19v5.86h6.19Zm-7.31,0h-6.19v5.86h6.19Zm-7.32,7h-6.19v5.86h6.19Zm7.32,0h-6.19v5.86h6.19Zm7.31,0h-6.19v5.86h6.19Zm7.32,0h-6.19v5.86h6.19Zm7.31,0h-6.19v5.86h6.19Z" transform="translate(-54.04 -88.14)" fill="#2396ed"/>
  </g>
  <g>
    <path d="M1174.8,669.09a17.26,17.26,0,0,0,1.19-4c.19-1.42.06-2.21.41-2.36.64-.26,1.44,2.33,3.52,3.84,3.07,2.23,7.59,1.16,12.07.1a48.28,48.28,0,0,0,6.17-2c3.3-1.23,6.25-2.57,8.32-3.52,3.13-1.43,2.85-1.42,4.16-1.92,3.91-1.5,5.19-.9,6.72-2.24,1.85-1.63,2.71-4.82,1.6-6.08s-4.94-.59-7,1.28c-1.61,1.43-1.21,2.63-3.2,4.16a14.83,14.83,0,0,1-3.2,1.6c-2.78,1.2-4.8,1.92-4.8,1.92-1.08.39-4.29,1.52-10.24,3.2-3.75,1.06-4.58,1.2-5.76,1a7.74,7.74,0,0,1-4.8-3.2c-1.1-1.76-1-3.73-.69-7.68.23-3.32.82-4.93.25-7.09a14.19,14.19,0,0,1-.52-2.51c-.12-1.13,0-1.26-.15-2.67a16.52,16.52,0,0,1-.17-3.09c.1-2,.38-3.4.38-4.37a6.57,6.57,0,0,0,2.35-1.13c3-2.33,2.92-6.79,2.83-14.14a37.65,37.65,0,0,0-1-9c-1-4-1.86-7.6-4.94-10.74a14.74,14.74,0,0,0-8.27-4.45c-1-.16-6-.95-9.74,2-6.1,4.9-3.36,15.66-2.76,17.77.76,2.65,1.88,4.51,4.11,8.23,3.41,5.67,5.17,8.59,8.74,10.28a15.76,15.76,0,0,0,5.3,1.42c0,.57,0,1.39,0,2.75-.08,3.19-.43,4.29-1.1,5.17a4.18,4.18,0,0,1-.76.79c-.9.69-1.93.73-3.72,1.77-3,1.71-2.94,3.46-6.4,7a43.65,43.65,0,0,1-5.44,4.48c-7.94,6-8.42,4.72-10.94,7.4-3.7,3.94-6.41,10.33-6.66,14.36a10.6,10.6,0,0,1-1,4.16c-1.18,3.06-2.54,3.59-2.64,5.58s1.1,4.38,2.64,4.66c1.88.34,4.17-2.46,4.8-5.12s-1-3.52-1-7,1.58-6,3.52-9.28a28.84,28.84,0,0,1,4.48-5.76,32.19,32.19,0,0,1,7-5.12c2.81-1.52,2.77-1,4.8-2.24s3.6-2.85,6.67-6c2.88-3,3.84-4.2,4.41-3.92s.24,1.36-.19,5.12c-.65,5.63-.36,5.8-1,8.32-.49,2.07-1.21,4.27-1.6,5.44s-.68,2-1.6,4.48c-1.59,4.34-2.38,6.51-2.56,7-.56,1.71-1.12,3.7-2.24,7.68-.4,1.43-.72,2.58-1.28,4.48-.86,2.9-.84,2.63-1,3.2-.41,2-.1,2.88,0,6.72v10.88s-.05,1.18,0,7.68c0,2.71.05,3,0,4.16,0,.18,0,.69-.09,1.36,0,.41-.18,2.22-.55,4.4a50.15,50.15,0,0,1-1.6,6.72c-.63,2-.84,2.19-2.24,5.76-2.94,7.51-2.27,7.35-3.84,10.24-1.36,2.51-2.23,3.29-2.56,5.44a8.56,8.56,0,0,0,.64,5.12,9.85,9.85,0,0,0,4.48,4.16,17.87,17.87,0,0,0,6.08,1.92c3.64.72,4.47.22,4.79,0a4,4,0,0,0,1.29-3.19c-.11-2.22-2.07-3.72-3.52-4.8-3.38-2.52-5.33-1.84-6.72-3.84-1.21-1.74-.88-3.9-.64-5.44.67-4.3,3.92-8.43,4.48-10.56.12-.45.36-1.46.8-2.94.59-2,1.12-3.52,1.34-4.15l.08-.22,0,0c4.53-12.69,2.52-27.81,2.52-27.81-.36-2.73-.24-5.5-.39-8.25s-.26-4.43.75-5.22c1.46-1.14,4.8-.32,4.8-.32s3.51-2.07,7-4.48c2.7-1.84,3.32-2.45,5.12-3.2,1.62-.67,3.59-1.48,4.8-.64,1,.72,1,2.28,1,4.8,0,3.41.08,6.83,0,10.24-.2,8.2.27,6.16,0,9.6-.24,3.11-.6,4.48.32,5.76.63.87,1.55,1.25,6.08,1.92,8.42,1.25,9.93.62,10.88,0a5.38,5.38,0,0,0,2.56-3.52,4.83,4.83,0,0,0-1.92-4.48c-.48-.35-1.75-1.1-6.08-.32-5.36,1-6.42,2.64-7.68,1.92-1.61-.92-.37-4-.32-14.4,0-5-.26-5,0-7.68.19-2,.43-3,0-4.48a7.39,7.39,0,0,0-3.52-4.48c-2.27-1.12-4.58-.42-7,.32a23.49,23.49,0,0,0-5.44,2.56c-5.5,3.27-7.1,5.66-8,5.12-1.27-.77.73-6.53,1.9-9.92C1174.31,670.44,1174.8,669.09,1174.8,669.09Zm-7.06-43.28a44.86,44.86,0,0,1-4.82-6.72c-2.72-4.53-4.08-6.8-4.44-10a12.29,12.29,0,0,1,1-7.34c1.86-3.6,6.18-6.72,10.49-6,3.12.5,5.12,2.82,6.23,4.11.4.46,1.26,1.53,3.6,6.94a54.16,54.16,0,0,1,2.65,6.67,22.71,22.71,0,0,1-.08,10.82c-.59,2.56-1,4-2.31,5.14-2.59,2.16-6.33,1.13-6.68,1C1171.29,629.82,1170.08,628.47,1167.74,625.81Z" transform="translate(-54.04 -88.14)" fill="#4abb89"/>
    <g>
      <rect x="1070.86" y="782.86" width="30" height="7" rx="2.5" ry="2.5" fill="#4abb89"/>
      <rect x="1089.36" y="729.86" width="30" height="7" rx="2.5" ry="2.5" fill="#4abb89"/>
      <rect x="1109.36" y="676.86" width="30" height="7" rx="2.5" ry="2.5" fill="#4abb89"/>
      <rect x="1129.36" y="626.86" width="30" height="7" rx="2.5" ry="2.5" fill="#4abb89"/>
      <rect x="1146.86" y="576.86" width="30" height="7" rx="2.5" ry="2.5" fill="#4abb89"/>
      <rect x="1180.36" y="548.36" width="50" height="6.25" rx="1.25" ry="1.25" fill="#4abb89"/>
      <path d="M1126.81,928h-4c-.82,0-1.24-.67-.92-1.5l156.23-407a2.44,2.44,0,0,1,2.08-1.5h4c.82,0,1.24.67.92,1.5l-156.23,407A2.44,2.44,0,0,1,1126.81,928Z" transform="translate(-54.04 -88.14)" fill="#4abb89"/>
      <path d="M1393.1,934h-4a2.38,2.38,0,0,1-2-1.5l-128.12-352a1,1,0,0,1,1-1.5h4a2.38,2.38,0,0,1,2,1.5l128.12,352A1,1,0,0,1,1393.1,934Z" transform="translate(-54.04 -88.14)" fill="#4abb89"/>
    </g>
    <path d="M1156,604c.86-.12,1.31.34,2,0,1.33-.65,1.84-3.31,1-4-1-.81-3.8,1.16-5,2-1.8,1.26-3.2,2.2-4,4-1,2.33-.66,4.48,0,8,1.21,6.43,2.1,6.44,2,9-.23,5.9-5.5,9.53-5,10s4.35-2.23,6-6a11.37,11.37,0,0,0,1-5,23.75,23.75,0,0,0-1-5c-1-4.16-1.49-6.24-1-8C1152.58,606.9,1154,604.27,1156,604Z" transform="translate(-54.04 -88.14)" fill="#4abb89"/>
  </g>
  <g>
    <g>
      <polygon points="1625.8 862.18 1648.22 840.16 1680.16 836.78 1692.16 874.38 1674.97 897.89 1646.36 895.81 1625.8 862.18" fill="#e23237"/>
      <polygon points="1680.16 836.78 1648.22 840.16 1674.97 897.89 1692.17 874.41 1680.16 836.78" fill="#b52e31"/>
      <path d="M1705.43,935h0l.52,45,6.2-3-.53-10,7.15-3.31h0l7.85-3.64,7.62,6.8,6-2.67Zm5.56,11.91,11.14,9.21-5.42,2.51-.28.13-4.94,2.29Z" transform="translate(-54.04 -88.14)" fill="#fff"/>
    </g>
    <g>
      <g>
        <polygon points="1483.74 846.79 1461.76 880.02 1500.38 857.98 1483.96 816.24 1483.74 846.79" fill="url(#d)"/>
        <polygon points="1500.43 857.92 1485.53 835.9 1482.16 852.77 1500.43 857.92" fill="url(#e)"/>
        <polygon points="1500.47 857.9 1474.38 868.1 1461.88 879.91 1500.47 857.9" fill="url(#f)"/>
        <polygon points="1461.91 879.89 1458.22 856.29 1445.84 865.92 1461.91 879.89" fill="url(#g)"/>
        <polygon points="1482.19 852.83 1465.44 833 1456.41 856.52 1482.19 852.83" fill="url(#h)"/>
        <polygon points="1485.86 823.51 1464.04 818.31 1466.51 834.5 1485.86 823.51" fill="url(#i)"/>
        <polygon points="1470.15 809.73 1463.42 819.27 1455.13 816.93 1470.15 809.73" fill="url(#j)"/>
        <polygon points="1445.55 874.6 1446 865.69 1438.83 858.84 1445.55 874.6" fill="url(#k)"/>
        <path d="M1492.53,946.82l7.44,7.37,12.14-9.65,8.55-22-2.37-16.05L1509,905l-9.61,10.08c-2,5.23-5.91,15.53-6.11,15.78S1492.74,941.73,1492.53,946.82Z" transform="translate(-54.04 -88.14)" fill="#fff"/>
        <path d="M1495.82,925.52C1500,913.69,1508,904,1514,906.05s6.4,13.85,2.24,25.67-12,21.75-17.88,19.67S1491.64,937.35,1495.82,925.52Z" transform="translate(-54.04 -88.14)" fill="url(#l)"/>
        <path d="M1515.95,968l-3.76-23.66L1536.1,941C1532,951.65,1526.57,961.6,1515.95,968Z" transform="translate(-54.04 -88.14)" fill="url(#m)"/>
        <path d="M1520.68,922.51l15.5,18.47c3.07-9.6,5.26-19.38,3.78-29.45Z" transform="translate(-54.04 -88.14)" fill="url(#n)"/>
        <path d="M1539.94,911.65c-1-7.45-4.94-16.88-15.8-13.74l-6,8.52Z" transform="translate(-54.04 -88.14)" fill="url(#o)"/>
        <path d="M1499.55,962.64c5.42,10.44,13.14,6.91,16.44,5.43l-16-13.93Z" transform="translate(-54.04 -88.14)" fill="#9e1209"/>
        <path d="M1520.73,922.52l19,1.89c.39,0,1-8.54.05-12.75Z" transform="translate(-54.04 -88.14)" fill="url(#p)"/>
        <path d="M1512.18,944.37l16.12,12a59.84,59.84,0,0,0,7.75-15.37Z" transform="translate(-54.04 -88.14)" fill="url(#q)"/>
        <path d="M1499.95,954.18l5.63,14.62c3.69,2,6.89.74,10-1C1510.43,963.09,1500.18,953.77,1499.95,954.18Z" transform="translate(-54.04 -88.14)" fill="url(#r)"/>
        <path d="M1518.09,906.5l17.67-5.68c-2.7-3.32-6.58-4.42-11.57-2.93Z" transform="translate(-54.04 -88.14)" fill="url(#s)"/>
      </g>
      <g>
        <path d="M1529,978.57l-3.07,1.49-3.33-2.16q-.38-.25-.7-.43a3.86,3.86,0,0,0-.61-.28,1.71,1.71,0,0,0-.55-.1,1.15,1.15,0,0,0-.51.12l-.72.35,2.2,4.55-2.68,1.3-5.75-11.88,4.24-2.05q4.33-2.09,5.89,1.14a3.72,3.72,0,0,1,.37,1.24,3.55,3.55,0,0,1-.08,1.21,3.79,3.79,0,0,1-.49,1.14,4.82,4.82,0,0,1-.87,1l0,0a1.9,1.9,0,0,1,.64,0,4.1,4.1,0,0,1,.69.2,6.74,6.74,0,0,1,.7.32q.35.18.66.37Zm-12.08-6.35,1.6,3.31,1.16-.56a2.14,2.14,0,0,0,1.14-1.17,1.84,1.84,0,0,0-.08-1.51q-.75-1.56-2.62-.65Z" transform="translate(-54.04 -88.14)" fill="#d10702"/>
        <path d="M1537.89,974.25l-2.61,1.26-.63-1.29,0,0a3.29,3.29,0,0,1-1.87,2.76q-3,1.43-4.68-2.14l-2.48-5.12,2.61-1.26,2.37,4.89q.87,1.8,2.3,1.11a1.57,1.57,0,0,0,.89-1,2.21,2.21,0,0,0-.23-1.54l-2.35-4.86,2.61-1.26Z" transform="translate(-54.04 -88.14)" fill="#d10702"/>
        <path d="M1542.27,970.92l0,0,.48,1-2.62,1.27L1534,960.62l2.62-1.27,2.59,5.35,0,0a3.45,3.45,0,0,1,2-2.82,3.36,3.36,0,0,1,3.07-.1,5.4,5.4,0,0,1,2.38,2.65,5.85,5.85,0,0,1,.61,3.91,3.75,3.75,0,0,1-2.15,2.62A3,3,0,0,1,1542.27,970.92Zm-1.81-3.54.42.87a2.21,2.21,0,0,0,1.13,1.13,1.71,1.71,0,0,0,1.47,0,1.78,1.78,0,0,0,1.05-1.36,3.71,3.71,0,0,0-.46-2.2,3,3,0,0,0-1.25-1.43,1.69,1.69,0,0,0-1.58,0,1.85,1.85,0,0,0-1,1.22A2.48,2.48,0,0,0,1540.46,967.37Z" transform="translate(-54.04 -88.14)" fill="#d10702"/>
        <path d="M1554.59,955.69l1,10.83q.36,3.91-2.14,5.12a5.33,5.33,0,0,1-1.67.54l-1-2.09a2.45,2.45,0,0,0,1.28-.24,1.58,1.58,0,0,0,.95-1.64l-.06-1.27-7.55-6.8,2.9-1.4,4.08,4.4a7.46,7.46,0,0,1,.78,1l0,0a8.8,8.8,0,0,1-.27-1.25l-.91-6Z" transform="translate(-54.04 -88.14)" fill="#d10702"/>
      </g>
    </g>
    <g>
      <path d="M1493.74,931.77c-.56-.39-1.15-.76-1.75-1.14.24-.41.46-.82.66-1.23,3.43-6.67,4.06-12.63,1.33-15.4s-8.24-2.21-14.63.83c-.61.29-1.25.61-1.87.94-.24-.4-.48-.8-.73-1.19-4.07-6.3-8.91-9.82-12.68-8.84-3.61.93-6,6-6.59,13.09-.05.69-.09,1.39-.11,2.1q-1.24,0-2.4.07c-6.94.45-11.94,2.78-12.94,6.36s2.27,8.63,8.23,12.72c.47.33,1,.64,1.48,1-.38.67-.75,1.35-1.07,2-3.08,6.24-3.57,11.73-1,14.39s8.61,2.35,15.13-.78c.51-.25,1-.52,1.56-.8q.59,1,1.21,1.93c3.86,5.79,8.39,9,12,8s6.32-6.28,6.88-13.5c0-.55.06-1.11.09-1.7l1.21,0c7.48-.37,13-2.79,14-6.54C1502.78,940.42,1499.57,935.79,1493.74,931.77Zm-6.1,16.15c-.36,0-.71,0-1.09,0a62,62,0,0,0-.92-8.41,61.48,61.48,0,0,0,5-6.65c.56.35,1.11.7,1.63,1.05,5,3.44,7.59,7.2,7,9.37S1494.11,947.61,1487.63,947.92Zm-3.81,4.18a22.38,22.38,0,0,1-1.9,8c-.89,1.82-2,2.9-3,3.17-2.19.57-5.82-2-9.12-6.92-.37-.56-.75-1.16-1.12-1.79a60.69,60.69,0,0,0,6.78-5,62.68,62.68,0,0,0,8.43,1C1483.89,951.1,1483.87,951.6,1483.82,952.1Zm-28,4.5c-2,.14-3.49-.25-4.24-1-1.58-1.61-1.2-6,1.44-11.37.29-.61.63-1.24,1-1.86a61.77,61.77,0,0,0,7.73,3.41,65.31,65.31,0,0,0,3.36,7.76c-.48.26-1,.51-1.44.73A22.2,22.2,0,0,1,1455.82,956.6Zm-4.07-18.69a22.66,22.66,0,0,1-5.94-5.64c-1.13-1.69-1.52-3.14-1.24-4.17.61-2.18,4.62-4,10.57-4.43.72,0,1.47-.07,2.25-.08a64.76,64.76,0,0,0,.81,8.36,63.82,63.82,0,0,0-5.08,6.84C1452.63,938.49,1452.18,938.21,1451.75,937.91Zm8.36-18.86c.47-6.06,2.43-10.17,4.61-10.73s6.28,2.28,9.79,7.72c.22.34.44.7.67,1.09a64.17,64.17,0,0,0-6.85,4.89,62.56,62.56,0,0,0-8.32-1C1460,920.33,1460.07,919.67,1460.11,919Zm24,13.54q-.46-1.77-1-3.5c1.83.77,3.58,1.6,5.19,2.47a54.78,54.78,0,0,1-3.35,4.61C1484.72,935,1484.44,933.8,1484.12,932.58Zm-7.66-13.16c.82,1.61,1.61,3.36,2.34,5.22-1.15-.37-2.33-.74-3.53-1.07s-2.37-.62-3.54-.9C1473.32,921.47,1474.91,920.38,1476.46,919.42ZM1463,926.74c-.88.87-1.72,1.74-2.55,2.62-.24-2-.4-3.89-.46-5.7,1.81.1,3.71.29,5.68.58-.91.79-1.8,1.63-2.67,2.5Zm-2.36,15.77a52.85,52.85,0,0,1-5.26-2.42c1-1.56,2.15-3.14,3.4-4.73.25,1.18.52,2.37.82,3.56h0C1459.95,940.14,1460.29,941.33,1460.66,942.51Zm6.74,9.69c-.85-1.65-1.66-3.43-2.4-5.31,1.13.37,2.29.71,3.49,1s2.43.64,3.62.92A57.71,57.71,0,0,1,1467.4,952.2Zm15.94-10.11a57.1,57.1,0,0,1,.55,5.82,55.19,55.19,0,0,1-5.83-.6c.9-.81,1.78-1.66,2.68-2.53S1482.51,943,1483.35,942.09Zm-4.47.8c-1.38,1.36-2.78,2.63-4.16,3.84-1.8-.36-3.66-.81-5.52-1.33s-3.65-1.09-5.36-1.67c-.6-1.76-1.15-3.59-1.62-5.45h0q-.73-2.8-1.21-5.53c1.22-1.39,2.52-2.77,3.88-4.11h0c1.36-1.35,2.77-2.61,4.18-3.81,1.82.37,3.66.81,5.49,1.32h0c1.85.52,3.65,1.09,5.39,1.73.58,1.73,1.11,3.54,1.6,5.4s.9,3.73,1.23,5.51C1481.58,940.15,1480.26,941.53,1478.87,942.89Zm13.21-27c1.68,1.7,1.16,6.59-1.8,12.34-.19.37-.38.74-.59,1.12a62.76,62.76,0,0,0-7.64-3.49,59.26,59.26,0,0,0-3.3-7.71c.58-.31,1.16-.61,1.73-.88C1486,914.6,1490.5,914.25,1492.08,915.85Zm-18.7,14.52a5.54,5.54,0,1,1-6.82,3.85A5.54,5.54,0,0,1,1473.38,930.37Z" transform="translate(-54.04 -88.14)" fill="#00d8ff"/>
      <g>
        <path d="M1450.65,972.53l-3-.83-1-3.45q-.11-.39-.22-.71a3.47,3.47,0,0,0-.25-.56,1.54,1.54,0,0,0-.31-.4,1,1,0,0,0-.42-.22l-.7-.19-1.22,4.39-2.58-.72,3.19-11.46,4.09,1.14q4.17,1.16,3.3,4.28a3.35,3.35,0,0,1-.49,1.06,3.19,3.19,0,0,1-.77.77,3.42,3.42,0,0,1-1,.48,4.34,4.34,0,0,1-1.19.17v0a1.71,1.71,0,0,1,.42.4,3.69,3.69,0,0,1,.35.55,6.09,6.09,0,0,1,.28.63q.13.33.22.64ZM1446.27,961l-.89,3.19,1.12.31a1.93,1.93,0,0,0,1.47-.11,1.66,1.66,0,0,0,.85-1.06q.42-1.5-1.38-2Z" transform="translate(-54.04 -88.14)" fill="#00d8ff"/>
        <path d="M1459.77,971.43l-5.34-1.49q-.37,1.82,1.75,2.41a4.55,4.55,0,0,0,2.55,0l-.51,1.82a6.47,6.47,0,0,1-3.12-.21,4,4,0,0,1-3-5.33,4.55,4.55,0,0,1,2.08-2.9,4.09,4.09,0,0,1,3.24-.38,3.71,3.71,0,0,1,2.47,1.83,4.25,4.25,0,0,1,.18,3.16Zm-1.91-2.2q.49-1.76-.93-2.16a1.41,1.41,0,0,0-1.19.21,2.37,2.37,0,0,0-.89,1.1Z" transform="translate(-54.04 -88.14)" fill="#00d8ff"/>
        <path d="M1467.15,977.12l-2.39-.67.33-1.18h0a2.77,2.77,0,0,1-2.82.7,2.65,2.65,0,0,1-1.69-1.2,2.51,2.51,0,0,1-.18-2q.66-2.38,3.59-2l2.3.32q.37-1.34-1.08-1.75a5.16,5.16,0,0,0-3,.1l.53-1.9a6.5,6.5,0,0,1,1.58-.08,7.88,7.88,0,0,1,1.72.26q3.5,1,2.53,4.47Zm-1.45-4,.15-.55-1.54-.22q-1.28-.18-1.54.77a1,1,0,0,0,.1.79,1.2,1.2,0,0,0,.73.5,1.55,1.55,0,0,0,1.3-.17A1.84,1.84,0,0,0,1465.7,973.13Z" transform="translate(-54.04 -88.14)" fill="#00d8ff"/>
        <path d="M1475.43,979.11a5.19,5.19,0,0,1-2.61-.19,4.34,4.34,0,0,1-2.74-2,4.1,4.1,0,0,1-.35-3.28,4.52,4.52,0,0,1,2.17-2.94,4.8,4.8,0,0,1,3.68-.27,4.46,4.46,0,0,1,2,1l-.6,2.14a3,3,0,0,0-1.6-1.08,2.42,2.42,0,0,0-1.9.16,2.46,2.46,0,0,0-1.12,1.58,2.42,2.42,0,0,0,.13,1.88,2.32,2.32,0,0,0,1.5,1.08,3.46,3.46,0,0,0,2-.08Z" transform="translate(-54.04 -88.14)" fill="#00d8ff"/>
        <path d="M1482,981.15a3.88,3.88,0,0,1-1.77-.17q-2.67-.74-1.9-3.52l1-3.75-1.33-.37.52-1.86,1.33.37.49-1.77,2.72,0-.69,2.49,1.84.51-.52,1.86-1.84-.51-.92,3.31q-.36,1.28.66,1.56a1.78,1.78,0,0,0,.89,0Z" transform="translate(-54.04 -88.14)" fill="#00d8ff"/>
      </g>
    </g>
    <g>
      <path d="M1651.78,949.1l3.3,3,.81-4.4-7.82,2.17-1.46-1.32L1656,946a1.22,1.22,0,0,1,1.13.31,1.24,1.24,0,0,1,.41,1.06l-1.64,9.65-1.46-1.32.34-1.76-3.35-3Zm14.1,14.88,4.81-5.29-1.23-1.12-5.28,5.81a.82.82,0,0,0-.21.6.87.87,0,0,0,.28.59l5.64,5.13,1.76-.47Zm-19.59-19.53a2.93,2.93,0,1,0,3.94-4.34l-5.42-4.92-5.84,6.43,1.23,1.12,4.81-5.29,4.09,3.71a1.4,1.4,0,0,1-1.88,2.07l-3.49-3.17.77,6.58,1.79,1.63-.58-4.34.57.52Zm-14.93-9.75a4.35,4.35,0,0,1,5.85-6.44l3.74,3.4a4.35,4.35,0,0,1-5.85,6.44Zm4.68,2.19a2.81,2.81,0,1,0,3.78-4.16l-3.57-3.24a2.81,2.81,0,1,0-3.78,4.16Zm22.46,22.47a4.35,4.35,0,1,1,5.85-6.44l4.44,4-1.76.47-3.64-3.31a2.81,2.81,0,1,0-3.78,4.16l4.47,4.06-1.76.47-3.81-3.46ZM1674.67,972a2.8,2.8,0,0,1-.63-3.33l5.29,4.81,1.76-.47-6-5.47a2.83,2.83,0,0,1,3.38.31l3.63,3.29,1.76-.47-4.44-4a4.35,4.35,0,0,0-5.85,6.44l3.81,3.46,1.76-.47-4.45-4" transform="translate(-54.04 -88.14)" fill="#ea1b22"/>
      <path d="M1683.9,971.92a.77.77,0,0,1,1.13,1,.77.77,0,0,1-1.1.05A.75.75,0,0,1,1683.9,971.92Zm-.1,1.24a1,1,0,1,0-.05-1.38A1,1,0,0,0,1683.8,973.15Zm1-1.21c.11.1.15.14.18.22a.29.29,0,0,1,0,.36.21.21,0,0,1-.08.06.27.27,0,0,1-.23.05s0,0-.05,0l-.12.5-.18-.17.11-.46-.11-.1-.28.31-.15-.14.74-.81Zm-.27.41a.19.19,0,0,0,.19.07s.05,0,.08-.06a.19.19,0,0,0,0-.15.59.59,0,0,0-.14-.15l0,0-.22.24.1.09" transform="translate(-54.04 -88.14)" fill="#ea1b22"/>
    </g>
    <path d="M1442,944.86h0a6.33,6.33,0,0,0-2.46-4.21l-.06-.06h0l-.07-.05,0,0-.76-.55,0,0-.1-.07h0l-.11,0c-2.41-1.43-6.4-2.44-12.5-.29-1.46-2.45-1.62-4.41-.65-7.42a.78.78,0,0,0-.51-1.09,5.83,5.83,0,0,0-3.49.05,1,1,0,0,0-.85.8c-.64,3-2.51,5.76-4.32,8.41l-.11.16a7.77,7.77,0,0,1-.11-6.48.72.72,0,0,0-.4-1,5.61,5.61,0,0,0-3.7,0c-.91.26-1.88,2.71-3,5.64-.27.74-.51,1.37-.65,1.66-.33.68-.65,1.46-1,2.29a18.12,18.12,0,0,1-2.86,5.3c-.45-1,.26-2.55.94-4.07.81-1.79,1.58-3.49.69-4.57a1.62,1.62,0,0,0-1.14-.59,1.81,1.81,0,0,0-.84.14,4.77,4.77,0,0,0-.13-2.12,2.2,2.2,0,0,0-2.31-1.61c-2.63.08-4.85,2-6.25,3.66-.94,1.09-3,1.93-4.83,2.66-.72.3-1.4.58-2,.85a39.21,39.21,0,0,0-3.28-2.36c-3.42-2.29-7.29-4.9-7.43-8.42-.19-5.21,5.74-8.91,10.92-11.54a46.89,46.89,0,0,1,10.43-4c4.35-1,8-.81,10.91.61a3.52,3.52,0,0,1,1.85,4.19c-1.23,4.5-6.33,7.59-10.69,9a19,19,0,0,1-6.84,1.07,11.71,11.71,0,0,1-5.36-1.91,2.9,2.9,0,0,0-.44-.25h0a.44.44,0,0,0-.44.14.76.76,0,0,0-.05.72,6.55,6.55,0,0,0,5.16,4.12,12.59,12.59,0,0,0,2.57.24c6,0,13.76-3.48,16.59-6.35a12.7,12.7,0,0,0,3.92-7.43c.61-3.63-1.85-6.15-4.36-7.31-6.09-2.81-13-1.7-17.75-.27a47.53,47.53,0,0,0-15.71,8.33c-5.49,4.47-7.47,8.61-5.9,12.34s5.55,6.21,9.36,8.52c1.23.75,2.4,1.45,3.45,2.19l-1,.47c-3.2,1.55-6.82,3.29-8.83,6.17a6,6,0,0,0-.81,6.21,3.94,3.94,0,0,0,2.58,2.17,6.84,6.84,0,0,0,1.94.26,13.38,13.38,0,0,0,6.39-1.84,10.55,10.55,0,0,0,4.82-6.27,9.89,9.89,0,0,0-.43-6.64l3.07-1.55c-1.48,4.92-.35,7.86.9,9.48a3.11,3.11,0,0,0,4.47,0,18.3,18.3,0,0,0,2.2-3.77,6.16,6.16,0,0,0,.3,2.47,2,2,0,0,0,1.26,1.28,2.32,2.32,0,0,0,2-.43c3-2.07,5.1-7.05,6.77-11.05.24-.57.46-1.12.68-1.63a20.85,20.85,0,0,0,1.71,4.25.46.46,0,0,1-.07.66c-.33.36-.79.8-1.28,1.26-1.47,1.4-3.31,3.14-3.55,4.68a1.16,1.16,0,0,0,1,1.3,8.77,8.77,0,0,0,6.38-1.54,4.51,4.51,0,0,0,2.05-5.08c-.46-2.06.58-4.62,3.09-7.6a14.26,14.26,0,0,0,1.71,4.31l0,0c-1.82,1.59-4.32,3.77-3.93,6.42a1.83,1.83,0,0,0,.76,1.26,1.94,1.94,0,0,0,1.53.28,9.29,9.29,0,0,0,5.49-3.09c1.31-1.57.83-3.32.39-4.67a15.51,15.51,0,0,1,9.31.07,5.78,5.78,0,0,1,3.41,2.69c.83,1.56.38,3-1.27,4.05-.51.32-.75.52-.77.77a.36.36,0,0,0,.14.3c.19.16.78.43,2.12-.41A4.32,4.32,0,0,0,1442,946,5.33,5.33,0,0,0,1442,944.86Zm-54.65,3.43v.17a7.62,7.62,0,0,1-3,5.2,6.79,6.79,0,0,1-3.45,1.58,2.23,2.23,0,0,1-1.65-.31,1.3,1.3,0,0,1-.41-1c-.22-3.48,5.24-6.95,8.31-8.08A7,7,0,0,1,1387.31,948.29Zm14-9.82h0c-.51,2.88-2,8.33-4.3,10.44-.11.1-.2.14-.25.13s-.08-.06-.11-.14c-.77-1.79-.49-4.82.68-7.2a6,6,0,0,1,3.63-3.42l.18,0a.22.22,0,0,1,.14,0A.22.22,0,0,1,1401.3,938.47ZM1412.72,949c-.44.46-1,.39-.89.23l2.22-2.36a4.65,4.65,0,0,1-1.33,2.13Zm9.21-2a1.92,1.92,0,0,1-.67.19c-.06-1.24,1.14-2.64,2.32-3.57a3.05,3.05,0,0,1-1.65,3.38Z" transform="translate(-54.04 -88.14)" fill="#cd6799"/>
    <g>
      <g>
        <path d="M1571,969.26l-1.11,3.44-3.61-1.16,4.59-14.27c2.35.76,4.64,1.37,6.83,2.23,2.74,1.08,3.85,2.88,3.48,5.16-.46,2.81-2.18,4.52-5.36,4.95l3.21,5.22-.46.36c-1.63-.53-3.53-.7-4.82-1.68S1571.92,970.82,1571,969.26Zm4.68-3.39.79-2.45-3-1-.79,2.45Z" transform="translate(-54.04 -88.14)" fill="#d20000"/>
        <path d="M1588.75,978.38l.71-2.21-3.63-1.17-.87,2.15-3.56-1.15c1.2-3.71,2.32-7.41,3.59-11a2.65,2.65,0,0,1,3.15-1.83,40.78,40.78,0,0,1,6.46,2.31,2.39,2.39,0,0,1,1.35,2.92c-1.12,3.72-2.35,7.4-3.57,11.19Zm-.3-11.41-1.27,4c.95.31,1.82.65,2.73.85a1.13,1.13,0,0,0,1-.37c.44-1.09.76-2.23,1.1-3.29Z" transform="translate(-54.04 -88.14)" fill="#d20000"/>
        <path d="M1630.49,976.55l-1.17,3.65-6-1.93c-.82.92-.67,1.44.38,1.77s2,.64,3,1a2.79,2.79,0,0,1,1.95,3.23,15.83,15.83,0,0,1-1.39,4.13,2.64,2.64,0,0,1-3.25,1.34c-2.67-.76-5.3-1.68-8-2.56l1-3.15,5.09,1.64a3.49,3.49,0,0,0,1.22.3,6,6,0,0,0,1.38-.44c-.27-.39-.46-.92-.83-1.13-.77-.44-1.64-.69-2.46-1.07-2.46-1.13-3.5-3.28-2.77-5.65.82-2.68,2.61-3.84,5.44-3.19C1626.21,975,1628.32,975.85,1630.49,976.55Z" transform="translate(-54.04 -88.14)" fill="#d20000"/>
        <path d="M1614.77,982.87l-1.15,3.56-9.18-3,4.41-13.7,3.63,1.17-3.26,10.14Z" transform="translate(-54.04 -88.14)" fill="#d20000"/>
        <path d="M1596.42,980.66l4.39-13.65,3.73,1.2-4.39,13.65Z" transform="translate(-54.04 -88.14)" fill="#d20000"/>
      </g>
      <g>
        <path d="M1575.28,953.86c1.44-3.61,2.66-7.2,4.26-10.6,6-12.7,14.95-23.1,25.74-31.91,6.89-5.62,14.82-8.5,23.88-7.66a26.31,26.31,0,0,1,18.07,9.6c1.77,2.06,3.28,4.35,4.94,6.58l-1.78,1.44c-2.14-1.77-3.94-3.76-6.17-5-4.63-2.57-9.59-2-14.41-.44-9.32,3-15.1,9.6-18.33,18.64s-4,18.47-3.61,28c0,.47,0,.95.06,1.42,0,.09-.07.19-.16.39Z" transform="translate(-54.04 -88.14)" fill="#d20000"/>
        <path d="M1571.7,941.44l2.66-5.81,6.13,2.42-3.08,6Z" transform="translate(-54.04 -88.14)" fill="#d20000"/>
        <path d="M1592,921l-3.23,4.15-5.06-3.59,3.39-4.54Z" transform="translate(-54.04 -88.14)" fill="#d20000"/>
        <path d="M1609,953.41c1.69.55,3.21,1,4.67,1.55a1.7,1.7,0,0,1,.8,1.15c.25,1.34.37,2.71.58,4.43-2.08-.83-4-1.58-5.93-2.39-.17-.07-.25-.54-.25-.82C1608.89,956.11,1609,954.91,1609,953.41Z" transform="translate(-54.04 -88.14)" fill="#d20000"/>
        <path d="M1603.19,904.2l3.31,4.18c-1.37.85-2.66,1.71-4,2.45-.22.12-.84-.17-1.08-.44-.92-1.07-1.77-2.21-2.76-3.47Z" transform="translate(-54.04 -88.14)" fill="#d20000"/>
        <path d="M1612.48,937.67c1.24,1.29,2.38,2.38,3.37,3.58.25.3.14,1,.06,1.45-.15.88-.4,1.73-.68,2.92-1.46-1.27-2.79-2.39-4.06-3.57a1,1,0,0,1-.1-.85C1611.48,940.07,1611.95,939,1612.48,937.67Z" transform="translate(-54.04 -88.14)" fill="#d20000"/>
        <path d="M1615.69,898.85l.9-.18c4.1-.7,4.1-.7,5.38,3.56-1.26.3-2.51.66-3.79.84a1.44,1.44,0,0,1-1.12-.72C1616.54,901.27,1616.17,900.11,1615.69,898.85Z" transform="translate(-54.04 -88.14)" fill="#d20000"/>
        <path d="M1618.06,934.38l-2.87-4.79,2.41-2.49C1620.57,930.12,1620.64,931.09,1618.06,934.38Z" transform="translate(-54.04 -88.14)" fill="#d20000"/>
        <path d="M1630.86,902.87l.42-3.3c1.51.49,2.92.87,4.26,1.42.34.14.59.83.62,1.28a11.6,11.6,0,0,1-.32,2.2Z" transform="translate(-54.04 -88.14)" fill="#d20000"/>
        <path d="M1624.88,924.62a4.3,4.3,0,0,1-.32-.51c-.61-1.38-1.21-2.76-1.88-4.28l3.13-1.49C1627.47,923.69,1627.62,922.45,1624.88,924.62Z" transform="translate(-54.04 -88.14)" fill="#d20000"/>
        <path d="M1632.83,919.36l-.62-3.23,3.36.2C1635.95,918.56,1635.93,918.58,1632.83,919.36Z" transform="translate(-54.04 -88.14)" fill="#d20000"/>
        <path d="M1649,913.53c-3.28-3.1-3.1-2.68-1.84-4.61.79,1.07,1.54,2.14,2.35,3.15C1650.14,912.91,1649.73,913.25,1649,913.53Z" transform="translate(-54.04 -88.14)" fill="#d20000"/>
        <path d="M1642.68,919.65l.49-1.53c2.54.89,3,1.43,2.46,2.92Z" transform="translate(-54.04 -88.14)" fill="#d20000"/>
      </g>
    </g>
  </g>
</svg>
