<svg xmlns="http://www.w3.org/2000/svg" xmlns:xlink="http://www.w3.org/1999/xlink" viewBox="0 0 1823.57 919.91">
  <defs>
    <linearGradient id="a" x1="537.74" y1="314.13" x2="537.98" y2="314.13" gradientTransform="matrix(126.28, 125.58, 125.3, -126.56, -106221.21, -27311.13)" gradientUnits="userSpaceOnUse">
      <stop offset="0" stop-color="#387eb8"/>
      <stop offset="1" stop-color="#366994"/>
    </linearGradient>
    <linearGradient id="b" x1="537.2" y1="313.99" x2="537.43" y2="313.99" gradientTransform="matrix(135.63, 128.78, 128.5, -135.93, -112140.83, -26023.05)" gradientUnits="userSpaceOnUse">
      <stop offset="0" stop-color="#ffe052"/>
      <stop offset="1" stop-color="#ffc331"/>
    </linearGradient>
    <radialGradient id="c" cx="537.53" cy="311.44" r="0.23" gradientTransform="matrix(168.1, 0, 0, -168.1, -89495.72, 52884.17)" gradientUnits="userSpaceOnUse">
      <stop offset="0" stop-color="#fff"/>
      <stop offset="0.5" stop-color="#4c6b97"/>
      <stop offset="1" stop-color="#231f20"/>
    </radialGradient>
    <linearGradient id="d" x1="532.06" y1="820.98" x2="532.23" y2="820.98" gradientTransform="matrix(-123.27, -85.14, -85.14, 123.27, 136910.84, -55010.46)" gradientUnits="userSpaceOnUse">
      <stop offset="0" stop-color="#fb7655"/>
      <stop offset="0.41" stop-color="#e42b1e"/>
      <stop offset="0.99" stop-color="#900"/>
      <stop offset="1" stop-color="#900"/>
    </linearGradient>
    <linearGradient id="e" x1="529.57" y1="823" x2="529.75" y2="823" gradientTransform="matrix(-113.48, -16, -16, 113.48, 74676.49, -84046.66)" gradientUnits="userSpaceOnUse">
      <stop offset="0" stop-color="#871101"/>
      <stop offset="0.99" stop-color="#911209"/>
      <stop offset="1" stop-color="#911209"/>
    </linearGradient>
    <linearGradient id="f" x1="529.57" y1="822.01" x2="529.75" y2="822.01" gradientTransform="matrix(-113.47, -16, -16, 113.47, 74655.45, -83909.03)" xlink:href="#e"/>
    <linearGradient id="g" x1="539.22" y1="831.79" x2="539.39" y2="831.79" gradientTransform="matrix(55.06, 79.86, 79.86, -55.06, -94741.33, 3626.99)" gradientUnits="userSpaceOnUse">
      <stop offset="0" stop-color="#fff"/>
      <stop offset="0.23" stop-color="#e57252"/>
      <stop offset="0.46" stop-color="#de3b20"/>
      <stop offset="0.99" stop-color="#a60003"/>
      <stop offset="1" stop-color="#a60003"/>
    </linearGradient>
    <linearGradient id="h" x1="539.11" y1="831.18" x2="539.29" y2="831.18" gradientTransform="matrix(47.54, 85.69, 85.69, -47.54, -95470.75, -5820.32)" gradientUnits="userSpaceOnUse">
      <stop offset="0" stop-color="#fff"/>
      <stop offset="0.23" stop-color="#e4714e"/>
      <stop offset="0.56" stop-color="#be1a0d"/>
      <stop offset="0.99" stop-color="#a80d00"/>
      <stop offset="1" stop-color="#a80d00"/>
    </linearGradient>
    <linearGradient id="i" x1="542.98" y1="831.42" x2="543.15" y2="831.42" gradientTransform="matrix(45.21, 56.02, 56.02, -45.21, -69734.14, 8013.84)" gradientUnits="userSpaceOnUse">
      <stop offset="0" stop-color="#fff"/>
      <stop offset="0.18" stop-color="#e46342"/>
      <stop offset="0.4" stop-color="#c82410"/>
      <stop offset="0.99" stop-color="#a80d00"/>
      <stop offset="1" stop-color="#a80d00"/>
    </linearGradient>
    <linearGradient id="j" x1="540.27" y1="814.82" x2="540.44" y2="814.82" gradientTransform="matrix(47.83, -62.11, -62.11, -47.83, 26152.05, 73371.92)" gradientUnits="userSpaceOnUse">
      <stop offset="0" stop-color="#fff"/>
      <stop offset="0.54" stop-color="#c81f11"/>
      <stop offset="0.99" stop-color="#bf0905"/>
      <stop offset="1" stop-color="#bf0905"/>
    </linearGradient>
    <linearGradient id="k" x1="541.78" y1="838.2" x2="541.95" y2="838.2" gradientTransform="matrix(30.38, 49.49, 49.49, -30.38, -56577.48, -461.56)" gradientUnits="userSpaceOnUse">
      <stop offset="0" stop-color="#fff"/>
      <stop offset="0.31" stop-color="#de4024"/>
      <stop offset="0.99" stop-color="#bf190b"/>
      <stop offset="1" stop-color="#bf190b"/>
    </linearGradient>
    <linearGradient id="l" x1="536.14" y1="821.91" x2="536.31" y2="821.91" gradientTransform="matrix(122.57, -369.31, -369.31, -122.57, 239230.44, 299654.68)" gradientUnits="userSpaceOnUse">
      <stop offset="0" stop-color="#bd0012"/>
      <stop offset="0.07" stop-color="#fff"/>
      <stop offset="0.17" stop-color="#fff"/>
      <stop offset="0.27" stop-color="#c82f1c"/>
      <stop offset="0.33" stop-color="#820c01"/>
      <stop offset="0.46" stop-color="#a31601"/>
      <stop offset="0.72" stop-color="#b31301"/>
      <stop offset="0.99" stop-color="#e82609"/>
      <stop offset="1" stop-color="#e82609"/>
    </linearGradient>
    <linearGradient id="m" x1="526.05" y1="824.55" x2="526.22" y2="824.55" gradientTransform="matrix(-82.33, 17.46, 17.46, 82.33, 30354.19, -76178.37)" gradientUnits="userSpaceOnUse">
      <stop offset="0" stop-color="#8c0c01"/>
      <stop offset="0.54" stop-color="#990c00"/>
      <stop offset="0.99" stop-color="#a80d0e"/>
      <stop offset="1" stop-color="#a80d0e"/>
    </linearGradient>
    <linearGradient id="n" x1="528.28" y1="822.21" x2="528.46" y2="822.21" gradientTransform="matrix(-93.69, -26.92, -26.92, 93.69, 73084.36, -61942.65)" gradientUnits="userSpaceOnUse">
      <stop offset="0" stop-color="#7e110b"/>
      <stop offset="0.99" stop-color="#9e0c00"/>
      <stop offset="1" stop-color="#9e0c00"/>
    </linearGradient>
    <linearGradient id="o" x1="521.89" y1="821.2" x2="522.06" y2="821.2" gradientTransform="matrix(-49.39, -19.03, -19.03, 49.39, 42859.21, -29778.26)" gradientUnits="userSpaceOnUse">
      <stop offset="0" stop-color="#79130d"/>
      <stop offset="0.99" stop-color="#9e120b"/>
      <stop offset="1" stop-color="#9e120b"/>
    </linearGradient>
    <radialGradient id="p" cx="554.7" cy="812.34" r="1" gradientTransform="matrix(13.73, -6.65, -6.65, -13.73, -770.41, 15702.74)" gradientUnits="userSpaceOnUse">
      <stop offset="0" stop-color="#a80d00"/>
      <stop offset="0.99" stop-color="#7e0e08"/>
      <stop offset="1" stop-color="#7e0e08"/>
    </radialGradient>
    <radialGradient id="q" cx="549.82" cy="815.23" r="1" gradientTransform="matrix(18.25, -8.84, -8.84, -18.25, -1395.25, 20626.3)" gradientUnits="userSpaceOnUse">
      <stop offset="0" stop-color="#a30c00"/>
      <stop offset="0.99" stop-color="#800e08"/>
      <stop offset="1" stop-color="#800e08"/>
    </radialGradient>
    <linearGradient id="r" x1="531.04" y1="816.9" x2="531.21" y2="816.9" gradientTransform="matrix(-70.1, -77.13, -77.13, 70.1, 101661.75, -15386.51)" gradientUnits="userSpaceOnUse">
      <stop offset="0" stop-color="#8b2114"/>
      <stop offset="0.43" stop-color="#9e100a"/>
      <stop offset="0.99" stop-color="#b3100c"/>
      <stop offset="1" stop-color="#b3100c"/>
    </linearGradient>
    <linearGradient id="s" x1="545.68" y1="821.73" x2="545.85" y2="821.73" gradientTransform="matrix(72.17, -2.55, -2.55, -72.17, -35849.45, 61540.06)" gradientUnits="userSpaceOnUse">
      <stop offset="0" stop-color="#b31000"/>
      <stop offset="0.44" stop-color="#910f08"/>
      <stop offset="0.99" stop-color="#791c12"/>
      <stop offset="1" stop-color="#791c12"/>
    </linearGradient>
  </defs>
  <title>bg-github</title>
  <g>
    <g>
      <text transform="translate(0 41.65)" font-size="50" fill="#f07167" font-family="OratorStd, Orator Std">I’m interested</text>
      <text transform="translate(224 676.65)" font-size="50" fill="#f07167" font-family="OratorStd, Orator Std">My skills</text>
      <text transform="translate(1523.57 187.08)" font-size="50" fill="#f07167" font-family="OratorStd, Orator Std">Full-Stack<tspan x="15" y="60">Developer</tspan></text>
    </g>
    <g>
      <text transform="translate(109.29 281.79)" font-size="40" fill="#00afb9" font-family="OratorStd, Orator Std">Data Analytics</text>
      <text transform="translate(123.14 110.22)" font-size="40" fill="#00afb9" font-family="OratorStd, Orator Std">Web Development</text>
      <text transform="translate(81.71 226.08)" font-size="40" fill="#00afb9" font-family="OratorStd, Orator Std">Graphic Design</text>
      <text transform="translate(140 170.08)" font-size="40" fill="#00afb9" font-family="OratorStd, Orator Std">Database Design</text>
      <text transform="translate(61.14 335.65)" font-size="40" fill="#00afb9" font-family="OratorStd, Orator Std">Natural Language Processing</text>
      <text transform="translate(81.71 392.65)" font-size="40" fill="#00afb9" font-family="OratorStd, Orator Std">Artificial Intelligence</text>
    </g>
  </g>
  <g>
    <rect x="546.86" y="662.26" width="50" height="2.5" fill="#00afb9"/>
    <rect x="696.86" y="612.26" width="50" height="2.5" fill="#00afb9"/>
    <rect x="846.86" y="562.26" width="50" height="2.5" fill="#00afb9"/>
    <rect x="996.86" y="512.26" width="50" height="2.5" fill="#00afb9"/>
    <rect x="1146.86" y="462.26" width="50" height="2.5" fill="#00afb9"/>
    <rect x="1296.86" y="412.26" width="50" height="2.5" fill="#00afb9"/>
    <rect x="1446.86" y="362.26" width="50" height="2.5" fill="#00afb9"/>
    <rect x="1596.86" y="312.26" width="50" height="2.5" fill="#00afb9"/>
    <rect x="1746.86" y="262.26" width="50" height="2.5" fill="#00afb9"/>
  </g>
  <g>
    <g>
      <polygon points="546.32 650.06 540.86 588.79 600.86 588.79 595.4 650.04 570.81 656.86 546.32 650.06" fill="#e44d26"/>
      <polygon points="570.86 651.66 590.72 646.15 595.4 593.8 570.86 593.8 570.86 651.66" fill="#f16529"/>
      <polygon points="570.86 616.53 560.9 616.53 560.22 608.84 570.86 608.84 570.86 601.33 570.83 601.33 552.01 601.33 552.2 603.33 554.03 624.04 570.86 624.04 570.86 616.53" fill="#ebebeb"/>
      <polygon points="570.86 636.04 570.83 636.06 562.46 633.78 561.92 627.8 557.85 627.8 554.39 627.8 555.42 639.59 570.83 643.87 570.86 643.85 570.86 636.04" fill="#ebebeb"/>
      <path d="M595.58,579.65h3.81v3.76h3.48v-3.76h3.81v11.41h-3.81v-3.84h-3.48v3.84h-3.81V579.65Z" transform="translate(-49.14 -7.49)" fill="#e44d26"/>
      <path d="M611.72,583.44h-3.36v-3.79h10.54v3.79h-3.36v7.62h-3.81v-7.62Z" transform="translate(-49.14 -7.49)" fill="#e44d26"/>
      <path d="M620.59,579.65h4l2.45,4,2.45-4h4v11.41h-3.79v-5.65L627,589.48h-.07l-2.64-4.07v5.67h-3.74V579.65Z" transform="translate(-49.14 -7.49)" fill="#e44d26"/>
      <path d="M635.34,579.65h3.81v7.65h5.36v3.76h-9.18Z" transform="translate(-49.14 -7.49)" fill="#e44d26"/>
      <polygon points="570.83 616.53 570.83 624.04 580.08 624.04 579.21 633.78 570.83 636.04 570.83 643.87 586.22 639.59 586.34 638.32 588.1 618.55 588.29 616.53 586.27 616.53 570.83 616.53" fill="#fff"/>
      <polygon points="570.83 601.33 570.83 605.99 570.83 608.81 570.83 608.84 588.95 608.84 588.95 608.84 588.98 608.84 589.14 607.14 589.47 603.33 589.66 601.33 570.83 601.33" fill="#fff"/>
    </g>
    <g>
      <polygon points="697.32 602.06 691.86 540.79 751.86 540.79 746.4 602.04 721.81 608.86 697.32 602.06" fill="#1f72b5"/>
      <polygon points="721.86 603.66 741.72 598.15 746.4 545.8 721.86 545.8 721.86 603.66" fill="#51a3dc"/>
      <polygon points="702.35 559.94 701.62 552.86 742.09 552.86 741.62 561.07 724.52 568.62 740.92 568.62 739.15 591.92 722.61 596.37 705.46 592.2 704.4 580.39 711.98 580.39 712.4 586.62 722.33 588.48 731.5 585.66 731.93 575.68 703.74 575.68 703.22 568.27 721.86 560.11 702.35 559.94" fill="#ebebeb"/>
      <g>
        <polygon points="703.22 568.27 703.74 575.68 721.86 575.68 721.86 560.11 703.22 568.27" fill="#cecece"/>
        <polygon points="712.4 586.62 711.98 580.39 704.4 580.39 705.46 592.2 721.86 596.18 721.86 588.39 712.4 586.62" fill="#cecece"/>
        <polygon points="701.62 552.86 702.35 559.94 721.86 560.11 721.86 552.86 701.62 552.86" fill="#cecece"/>
      </g>
      <g>
        <polygon points="727.5 526.98 727.5 524.15 716.21 524.15 716.21 530.74 723.98 530.74 723.98 532.86 715.98 532.86 715.98 535.45 727.27 535.45 727.27 528.62 719.27 528.62 719.27 526.98 727.5 526.98" fill="#1f72b5"/>
        <polygon points="707.03 530.81 707.03 532.86 715.03 532.86 715.03 535.45 703.74 535.45 703.74 528.7 703.74 524.15 714.8 524.15 714.8 526.98 707.03 526.98 707.03 530.81" fill="#1f72b5"/>
        <polygon points="739.98 526.98 739.98 524.15 728.68 524.15 728.68 530.74 736.45 530.74 736.45 532.86 728.45 532.86 728.45 535.45 739.74 535.45 739.74 528.62 731.74 528.62 731.74 526.98 739.98 526.98" fill="#1f72b5"/>
      </g>
    </g>
    <g>
      <path d="M1068.83,455.16c-15.23,0-14.28,6.61-14.28,6.61v6.84h14.53v2.05H1048.8s-9.75-1.1-9.75,14.26,8.51,14.82,8.51,14.82h5.07v-7.12s-.27-8.51,8.37-8.51h14.41s8.1.13,8.1-7.83V463.13S1084.74,455.16,1068.83,455.16Zm-8,4.6a2.61,2.61,0,1,1-2.61,2.61A2.62,2.62,0,0,1,1060.82,459.76Z" transform="translate(-49.14 -7.49)" fill="url(#a)"/>
      <path d="M1069.26,514.84c15.23,0,14.28-6.61,14.28-6.61v-6.84H1069v-2.05h20.3s9.75,1.1,9.75-14.26-8.51-14.82-8.51-14.82h-5.07v7.12s.27,8.51-8.37,8.51h-14.41s-8.1-.13-8.1,7.83v13.16S1053.34,514.84,1069.26,514.84Zm8-4.6a2.61,2.61,0,1,1,2.61-2.61A2.62,2.62,0,0,1,1077.27,510.24Z" transform="translate(-49.14 -7.49)" fill="url(#b)"/>
    </g>
    <g>
      <ellipse cx="871.86" cy="543.51" rx="30" ry="15.77" fill="url(#c)"/>
      <ellipse cx="871.86" cy="543.51" rx="28.83" ry="14.6" fill="#6181b6"/>
      <path d="M926.84,555.73l1.43-7.36c.33-1.66,0-2.91-.8-3.68s-2.23-1.13-4.29-1.13H920.7l.7-3.66a.49.49,0,0,0-.09-.4.42.42,0,0,0-.35-.16h-3.42a.48.48,0,0,0-.47.37l-1.52,7.8a4.17,4.17,0,0,0-1-2.25,6,6,0,0,0-4.71-1.73h-6.59a.48.48,0,0,0-.47.37l-3.07,15.84a.49.49,0,0,0,.09.4.42.42,0,0,0,.35.16h3.45A.48.48,0,0,0,904,560l.75-3.82h2.55a11.23,11.23,0,0,0,3.35-.42,6.65,6.65,0,0,0,2.46-1.48,7.57,7.57,0,0,0,1.45-1.8l-.61,3.16a.49.49,0,0,0,.09.4.42.42,0,0,0,.35.16h3.42a.48.48,0,0,0,.47-.38l1.69-8.67h2.34c1,0,1.29.19,1.38.28s.21.35,0,1.22l-1.36,7a.49.49,0,0,0,.09.4.42.42,0,0,0,.35.16h3.52A.65.65,0,0,0,926.84,555.73ZM911,549.64a3.72,3.72,0,0,1-1.2,2.34,4.73,4.73,0,0,1-2.81.68h-1.52l1.1-5.67h2c1.45,0,2,.3,2.27.56A2.69,2.69,0,0,1,911,549.64Z" transform="translate(-49.14 -7.49)" fill="#fff"/>
      <path d="M941.46,545.28a6,6,0,0,0-4.71-1.73h-6.63a.48.48,0,0,0-.47.37l-3.07,15.82a.49.49,0,0,0,.09.4.42.42,0,0,0,.35.16h3.45a.48.48,0,0,0,.47-.38l.75-3.82h2.55a11.23,11.23,0,0,0,3.35-.42,6.65,6.65,0,0,0,2.46-1.48,7.55,7.55,0,0,0,1.5-1.87,7.8,7.8,0,0,0,.82-2.25A5.42,5.42,0,0,0,941.46,545.28Zm-3.59,4.36a3.72,3.72,0,0,1-1.2,2.34,4.73,4.73,0,0,1-2.81.68h-1.52l1.1-5.67h2c1.45,0,2,.3,2.27.56A2.49,2.49,0,0,1,937.88,549.64Z" transform="translate(-49.14 -7.49)" fill="#fff"/>
      <path d="M908.53,546.52a3.51,3.51,0,0,1,2.62.73,2.82,2.82,0,0,1,.3,2.48,4.16,4.16,0,0,1-1.38,2.63,5.1,5.1,0,0,1-3.09.77H904.9l1.29-6.61h2.34Zm-8.39,13.31h3.45l.82-4.2h3a10.25,10.25,0,0,0,3.21-.42,6.16,6.16,0,0,0,2.3-1.38,7,7,0,0,0,1.41-1.76A6.84,6.84,0,0,0,915,550a4.9,4.9,0,0,0-.82-4.38,5.47,5.47,0,0,0-4.36-1.57h-6.63Z" transform="translate(-49.14 -7.49)" fill="#000004"/>
      <path d="M917.55,539.82H921l-.82,4.2h3c1.92,0,3.23.33,4,1s.94,1.76.66,3.26l-1.43,7.36h-3.47l1.36-7a1.88,1.88,0,0,0-.16-1.62,2.42,2.42,0,0,0-1.71-.45h-2.74l-1.76,9.07h-3.42Z" transform="translate(-49.14 -7.49)" fill="#000004"/>
      <path d="M935.41,546.52a3.51,3.51,0,0,1,2.62.73,2.82,2.82,0,0,1,.3,2.48,4.16,4.16,0,0,1-1.38,2.63,5.1,5.1,0,0,1-3.09.77h-2.09l1.29-6.61h2.34ZM927,559.84h3.45l.82-4.2h3a10.25,10.25,0,0,0,3.21-.42,6.16,6.16,0,0,0,2.3-1.38,7,7,0,0,0,1.41-1.76,6.84,6.84,0,0,0,.75-2.11,4.9,4.9,0,0,0-.82-4.38,5.47,5.47,0,0,0-4.36-1.57h-6.63Z" transform="translate(-49.14 -7.49)" fill="#000004"/>
    </g>
    <g>
      <rect x="1084" y="632" width="60" height="60" transform="translate(-155.67 219.13) rotate(-11.09)" fill="#f7df1e"/>
      <path d="M1103.91,684.5l4-3.61c1.18,1.37,2.21,2.52,4.11,2.14s2.83-1.29,2.29-4.05l-3.69-18.81,5.53-1.08,3.7,18.89c1.12,5.73-1.72,9-6.62,10a8.77,8.77,0,0,1-9.29-3.43" transform="translate(-49.14 -7.49)"/>
      <path d="M1123.37,680.07l4-3.49c1.56,1.7,3.38,2.82,6.11,2.29,2.29-.45,3.52-1.88,3.21-3.46-.37-1.9-2-2.27-4.76-2.89l-1.5-.33c-4.32-.92-7.39-2.53-8.27-7-.81-4.15,1.73-7.93,6.67-8.9,3.52-.69,6.29,0,8.73,2.89l-3.77,3.62c-1.28-1.52-2.44-2-4-1.67a2.45,2.45,0,0,0-2.18,2.89c.32,1.66,1.48,2.13,4.06,2.69l1.5.33c5.1,1.09,8.15,2.63,9.05,7.25,1,5-2.4,8.47-7.66,9.5s-8.94-.79-11.19-3.67" transform="translate(-49.14 -7.49)"/>
    </g>
  </g>
  <g>
    <g>
      <polygon points="1577.37 852.97 1608.79 853.63 1633.52 874.11 1615.01 908.97 1586.18 913.11 1567.68 891.18 1577.37 852.97" fill="#e23237"/>
      <polygon points="1633.52 874.11 1608.79 853.63 1586.18 913.11 1615 908.99 1633.52 874.11" fill="#b52e31"/>
      <path d="M1655.34,868.08h0l-31.82,31.81,6.48,2.34,6.75-7.34,7.37,2.8h0l8.09,3.07.46,10.2,6.12,2.44Zm-4.64,12.3,1.2,14.4-5.59-2.12-.29-.11-5.09-1.93Z" transform="translate(-49.14 -7.49)" fill="#fff"/>
    </g>
    <g>
      <g>
        <polygon points="1403.64 871.43 1381.66 904.67 1420.28 882.63 1403.86 840.89 1403.64 871.43" fill="url(#d)"/>
        <polygon points="1420.33 882.57 1405.43 860.55 1402.06 877.42 1420.33 882.57" fill="url(#e)"/>
        <polygon points="1420.37 882.55 1394.28 892.75 1381.78 904.55 1420.37 882.55" fill="url(#f)"/>
        <polygon points="1381.81 904.54 1378.13 880.93 1365.74 890.57 1381.81 904.54" fill="url(#g)"/>
        <polygon points="1402.09 877.48 1385.34 857.65 1376.31 881.16 1402.09 877.48" fill="url(#h)"/>
        <polygon points="1405.76 848.16 1383.94 842.95 1386.41 859.15 1405.76 848.16" fill="url(#i)"/>
        <polygon points="1390.05 834.38 1383.32 843.92 1375.03 841.58 1390.05 834.38" fill="url(#j)"/>
        <polygon points="1365.45 899.24 1365.9 890.34 1358.73 883.49 1365.45 899.24" fill="url(#k)"/>
        <path d="M1407.53,890.82l7.44,7.37,12.14-9.65,8.55-22-2.37-16.05L1424,849l-9.61,10.08c-2,5.23-5.91,15.53-6.11,15.78S1407.74,885.73,1407.53,890.82Z" transform="translate(-49.14 -7.49)" fill="#fff"/>
        <path d="M1410.82,869.52C1415,857.69,1423,848,1429,850.05s6.4,13.85,2.24,25.67-12,21.75-17.88,19.67S1406.64,881.35,1410.82,869.52Z" transform="translate(-49.14 -7.49)" fill="url(#l)"/>
        <path d="M1430.95,912l-3.76-23.66L1451.1,885C1447,895.65,1441.57,905.6,1430.95,912Z" transform="translate(-49.14 -7.49)" fill="url(#m)"/>
        <path d="M1435.68,866.51l15.5,18.47c3.07-9.6,5.26-19.38,3.78-29.45Z" transform="translate(-49.14 -7.49)" fill="url(#n)"/>
        <path d="M1454.94,855.65c-1-7.45-4.94-16.88-15.8-13.74l-6,8.52Z" transform="translate(-49.14 -7.49)" fill="url(#o)"/>
        <path d="M1414.55,906.64c5.42,10.44,13.14,6.91,16.44,5.43l-16-13.93Z" transform="translate(-49.14 -7.49)" fill="#9e1209"/>
        <path d="M1435.73,866.52l19,1.89c.39,0,1-8.54.05-12.75Z" transform="translate(-49.14 -7.49)" fill="url(#p)"/>
        <path d="M1427.18,888.37l16.12,12a59.84,59.84,0,0,0,7.75-15.37Z" transform="translate(-49.14 -7.49)" fill="url(#q)"/>
        <path d="M1414.95,898.18l5.63,14.62c3.69,2,6.89.74,10-1C1425.43,907.09,1415.18,897.77,1414.95,898.18Z" transform="translate(-49.14 -7.49)" fill="url(#r)"/>
        <path d="M1433.09,850.5l17.67-5.68c-2.7-3.32-6.58-4.42-11.57-2.93Z" transform="translate(-49.14 -7.49)" fill="url(#s)"/>
      </g>
      <g>
        <path d="M1444,922.57l-3.07,1.49-3.33-2.16q-.38-.25-.7-.43a3.86,3.86,0,0,0-.61-.28,1.71,1.71,0,0,0-.55-.1,1.15,1.15,0,0,0-.51.12l-.72.35,2.2,4.55-2.68,1.3-5.75-11.88,4.24-2.05q4.33-2.09,5.89,1.14a3.72,3.72,0,0,1,.37,1.24,3.55,3.55,0,0,1-.08,1.21,3.79,3.79,0,0,1-.49,1.14,4.82,4.82,0,0,1-.87,1l0,0a1.9,1.9,0,0,1,.64,0,4.1,4.1,0,0,1,.69.2,6.74,6.74,0,0,1,.7.32q.35.18.66.37Zm-12.08-6.35,1.6,3.31,1.16-.56a2.14,2.14,0,0,0,1.14-1.17,1.84,1.84,0,0,0-.08-1.51q-.75-1.56-2.62-.65Z" transform="translate(-49.14 -7.49)" fill="#d10702"/>
        <path d="M1452.89,918.25l-2.61,1.26-.63-1.29,0,0a3.29,3.29,0,0,1-1.87,2.76q-3,1.43-4.68-2.14l-2.48-5.12,2.61-1.26,2.37,4.89q.87,1.8,2.3,1.11a1.57,1.57,0,0,0,.89-1,2.21,2.21,0,0,0-.23-1.54l-2.35-4.86,2.61-1.26Z" transform="translate(-49.14 -7.49)" fill="#d10702"/>
        <path d="M1457.27,914.92l0,0,.48,1-2.62,1.27L1449,904.62l2.62-1.27,2.59,5.35,0,0a3.45,3.45,0,0,1,2-2.82,3.36,3.36,0,0,1,3.07-.1,5.4,5.4,0,0,1,2.38,2.65,5.85,5.85,0,0,1,.61,3.91,3.75,3.75,0,0,1-2.15,2.62A3,3,0,0,1,1457.27,914.92Zm-1.81-3.54.42.87a2.21,2.21,0,0,0,1.13,1.13,1.71,1.71,0,0,0,1.47,0,1.78,1.78,0,0,0,1.05-1.36,3.71,3.71,0,0,0-.46-2.2,3,3,0,0,0-1.25-1.43,1.69,1.69,0,0,0-1.58,0,1.85,1.85,0,0,0-1,1.22A2.48,2.48,0,0,0,1455.46,911.37Z" transform="translate(-49.14 -7.49)" fill="#d10702"/>
        <path d="M1469.59,899.69l1,10.83q.36,3.91-2.14,5.12a5.33,5.33,0,0,1-1.67.54l-1-2.09a2.45,2.45,0,0,0,1.28-.24,1.58,1.58,0,0,0,.95-1.64l-.06-1.27-7.55-6.8,2.9-1.4,4.08,4.4a7.46,7.46,0,0,1,.78,1l0,0a8.8,8.8,0,0,1-.27-1.25l-.91-6Z" transform="translate(-49.14 -7.49)" fill="#d10702"/>
      </g>
    </g>
    <g>
      <path d="M1408,876.15c-.54-.37-1.11-.74-1.69-1.1.23-.4.44-.8.64-1.19,3.31-6.45,3.93-12.22,1.28-14.9s-8-2.13-14.15.8c-.59.28-1.2.59-1.81.91-.23-.39-.47-.78-.7-1.15-3.93-6.1-8.62-9.5-12.26-8.55s-5.84,5.83-6.38,12.66c0,.67-.08,1.34-.11,2q-1.2,0-2.32.07c-6.71.44-11.55,2.69-12.52,6.16s2.2,8.34,8,12.3c.46.32.94.62,1.43.93-.37.65-.72,1.3-1,1.93-3,6-3.45,11.34-.93,13.92s8.33,2.27,14.63-.75c.49-.24,1-.5,1.51-.77q.57,1,1.17,1.86c3.73,5.6,8.12,8.66,11.59,7.75S1400.45,903,1401,896c0-.53.06-1.08.08-1.65l1.17,0c7.23-.36,12.54-2.7,13.55-6.33C1416.75,884.52,1413.65,880,1408,876.15Zm-5.9,15.62c-.35,0-.69,0-1,0a59.92,59.92,0,0,0-.89-8.13,59.47,59.47,0,0,0,4.83-6.44c.54.34,1.07.67,1.58,1,4.84,3.33,7.34,7,6.76,9.07S1408.36,891.47,1402.1,891.77Zm-3.69,4a21.65,21.65,0,0,1-1.84,7.71c-.86,1.76-1.89,2.8-2.9,3.07-2.12.55-5.63-1.91-8.82-6.69-.36-.54-.73-1.12-1.09-1.74a58.7,58.7,0,0,0,6.56-4.79,60.63,60.63,0,0,0,8.16,1C1398.48,894.84,1398.47,895.33,1398.42,895.81Zm-27.08,4.35c-2,.14-3.38-.24-4.1-1-1.53-1.55-1.16-5.83,1.39-11,.28-.59.61-1.2,1-1.8a59.74,59.74,0,0,0,7.48,3.29,63.17,63.17,0,0,0,3.25,7.51c-.46.25-.92.49-1.39.7A21.47,21.47,0,0,1,1371.34,900.17Zm-3.94-18.08a21.92,21.92,0,0,1-5.75-5.46c-1.1-1.64-1.47-3-1.2-4,.59-2.11,4.47-3.91,10.22-4.29.7,0,1.42-.07,2.17-.08a62.63,62.63,0,0,0,.79,8.09,61.73,61.73,0,0,0-4.91,6.62C1368.25,882.65,1367.81,882.38,1367.4,882.09Zm8.08-18.24c.46-5.86,2.35-9.84,4.46-10.38s6.08,2.2,9.47,7.47c.21.33.42.68.65,1.05a62.06,62.06,0,0,0-6.62,4.72,60.5,60.5,0,0,0-8-.94C1375.41,865.09,1375.45,864.45,1375.48,863.85Zm23.23,13.09q-.44-1.71-1-3.39c1.77.75,3.46,1.54,5,2.39a53,53,0,0,1-3.24,4.46C1399.29,879.28,1399,878.11,1398.71,876.94Zm-7.41-12.73c.8,1.55,1.55,3.25,2.26,5-1.11-.36-2.26-.71-3.41-1s-2.29-.6-3.43-.87C1388.26,866.19,1389.8,865.14,1391.3,864.21Zm-13,7.08c-.85.84-1.66,1.69-2.46,2.54-.24-1.91-.39-3.76-.44-5.52,1.75.09,3.59.28,5.49.56-.88.76-1.74,1.58-2.59,2.42ZM1376,886.54a51.11,51.11,0,0,1-5.08-2.34c1-1.51,2.08-3,3.29-4.58.24,1.14.51,2.29.8,3.45h0C1375.33,884.25,1375.65,885.4,1376,886.54Zm6.52,9.37c-.82-1.59-1.6-3.31-2.32-5.14,1.1.36,2.22.69,3.37,1s2.35.62,3.51.89A55.81,55.81,0,0,1,1382.54,895.91Zm15.42-9.78a55.23,55.23,0,0,1,.53,5.63,53.38,53.38,0,0,1-5.64-.58c.87-.78,1.73-1.6,2.59-2.45S1397.15,887,1398,886.13Zm-4.33.77c-1.34,1.32-2.69,2.54-4,3.71-1.75-.35-3.54-.78-5.34-1.28s-3.53-1.05-5.18-1.61c-.58-1.7-1.12-3.47-1.57-5.27h0q-.71-2.7-1.17-5.34c1.18-1.34,2.44-2.68,3.75-4h0c1.32-1.3,2.68-2.53,4-3.68,1.76.35,3.54.78,5.31,1.27h0c1.79.5,3.53,1.05,5.22,1.67.56,1.67,1.08,3.42,1.55,5.23s.87,3.6,1.19,5.33C1396.25,884.25,1395,885.59,1393.63,886.9Zm12.78-26.15c1.62,1.65,1.13,6.37-1.74,11.94-.19.36-.37.72-.58,1.09a60.7,60.7,0,0,0-7.39-3.37,57.32,57.32,0,0,0-3.2-7.46c.56-.3,1.12-.59,1.67-.85C1400.48,859.55,1404.88,859.2,1406.41,860.75Zm-18.09,14a5.36,5.36,0,1,1-6.6,3.72A5.36,5.36,0,0,1,1388.32,874.79Z" transform="translate(-49.14 -7.49)" fill="#00d8ff"/>
      <g>
        <path d="M1366.34,915.57l-2.87-.8-.93-3.33q-.1-.38-.21-.68a3.36,3.36,0,0,0-.24-.54,1.49,1.49,0,0,0-.3-.38,1,1,0,0,0-.4-.22l-.67-.19-1.18,4.24-2.5-.7,3.09-11.09,4,1.1q4,1.12,3.2,4.14a3.24,3.24,0,0,1-.48,1,3.09,3.09,0,0,1-.75.75,3.31,3.31,0,0,1-1,.46,4.2,4.2,0,0,1-1.15.16v0a1.65,1.65,0,0,1,.41.38,3.57,3.57,0,0,1,.34.53,5.89,5.89,0,0,1,.27.61q.12.32.21.62Zm-4.24-11.11-.86,3.09,1.08.3a1.86,1.86,0,0,0,1.42-.1,1.61,1.61,0,0,0,.82-1q.4-1.45-1.33-1.94Z" transform="translate(-49.14 -7.49)" fill="#00d8ff"/>
        <path d="M1375.16,914.51l-5.17-1.44q-.36,1.76,1.69,2.33a4.4,4.4,0,0,0,2.47,0l-.49,1.76a6.26,6.26,0,0,1-3-.21,3.83,3.83,0,0,1-2.91-5.15,4.4,4.4,0,0,1,2-2.81,4,4,0,0,1,3.14-.37,3.59,3.59,0,0,1,2.39,1.77,4.11,4.11,0,0,1,.17,3.06Zm-1.85-2.13q.47-1.7-.9-2.08a1.36,1.36,0,0,0-1.15.2,2.3,2.3,0,0,0-.86,1.07Z" transform="translate(-49.14 -7.49)" fill="#00d8ff"/>
        <path d="M1382.29,920l-2.31-.64.32-1.14h0a2.68,2.68,0,0,1-2.73.67,2.56,2.56,0,0,1-1.63-1.16,2.43,2.43,0,0,1-.18-1.93q.64-2.3,3.47-1.9l2.23.31q.36-1.3-1-1.69a5,5,0,0,0-2.93.09l.51-1.84a6.29,6.29,0,0,1,1.52-.08,7.62,7.62,0,0,1,1.67.25q3.39.94,2.45,4.32Zm-1.4-3.86.15-.53-1.49-.22q-1.23-.18-1.49.74a.92.92,0,0,0,.1.77,1.16,1.16,0,0,0,.71.49,1.5,1.5,0,0,0,1.25-.16A1.78,1.78,0,0,0,1380.89,916.16Z" transform="translate(-49.14 -7.49)" fill="#00d8ff"/>
        <path d="M1390.3,921.94a5,5,0,0,1-2.52-.19,4.19,4.19,0,0,1-2.65-1.93,4,4,0,0,1-.33-3.17,4.37,4.37,0,0,1,2.1-2.84,4.64,4.64,0,0,1,3.56-.26,4.31,4.31,0,0,1,1.92.94l-.58,2.07a2.89,2.89,0,0,0-1.55-1,2.34,2.34,0,0,0-1.84.15,2.38,2.38,0,0,0-1.09,1.53,2.34,2.34,0,0,0,.13,1.81,2.24,2.24,0,0,0,1.45,1,3.35,3.35,0,0,0,1.95-.07Z" transform="translate(-49.14 -7.49)" fill="#00d8ff"/>
        <path d="M1396.64,923.91a3.75,3.75,0,0,1-1.71-.17q-2.58-.72-1.84-3.4l1-3.63-1.28-.36.5-1.8,1.28.36.48-1.71,2.63,0-.67,2.4,1.78.5-.5,1.8-1.78-.5-.89,3.2q-.34,1.24.64,1.51a1.72,1.72,0,0,0,.86,0Z" transform="translate(-49.14 -7.49)" fill="#00d8ff"/>
      </g>
    </g>
    <g>
      <path d="M1571,897.19h3.83l-2-3.26-3.71,5.88h-1.69l4.51-7.07a1,1,0,0,1,.89-.45,1.06,1.06,0,0,1,.88.44l4.52,7.07h-1.69l-.79-1.31h-3.87Zm17.53,1.31v-6.13h-1.43v6.73a.7.7,0,0,0,.21.5.75.75,0,0,0,.52.21h6.53l.84-1.31Zm-23.69-1.1a2.51,2.51,0,1,0,0-5h-6.27v7.44H1560v-6.13h4.73a1.2,1.2,0,1,1,0,2.4h-4l4.28,3.73H1567l-2.87-2.42h.66Zm-15.09,2.42a3.73,3.73,0,0,1,0-7.46h4.33a3.73,3.73,0,0,1,0,7.46Zm4.23-1.31a2.41,2.41,0,1,0,0-4.81h-4.13a2.41,2.41,0,1,0,0,4.81Zm27.2,1.31a3.73,3.73,0,0,1,0-7.46h5.14l-.84,1.31h-4.22a2.41,2.41,0,1,0,0,4.81h5.17l-.84,1.31h-4.41Zm17.52-1.31a2.4,2.4,0,0,1-2.32-1.75h6.13l.84-1.31h-7a2.42,2.42,0,0,1,2.32-1.75h4.2l.84-1.31h-5.14a3.73,3.73,0,0,0,0,7.46H1603l.84-1.31h-5.16" transform="translate(-49.14 -7.49)" fill="#ea1b22"/>
      <path d="M1604.5,893.16a.66.66,0,0,1,1.31,0,.66.66,0,0,1-.66.66A.64.64,0,0,1,1604.5,893.16Zm.65.84a.84.84,0,1,0-.83-.84A.84.84,0,0,0,1605.15,894Zm-.08-1.33a.48.48,0,0,1,.24,0,.25.25,0,0,1,.18.26.18.18,0,0,1,0,.08.23.23,0,0,1-.11.16s0,0,0,0l.21.39h-.21l-.19-.36H1605v.36h-.18v-.94Zm.06.42a.17.17,0,0,0,.16-.06.12.12,0,0,0,0-.08.16.16,0,0,0-.06-.11.5.5,0,0,0-.18,0h0v.28h.11" transform="translate(-49.14 -7.49)" fill="#ea1b22"/>
    </g>
    <path d="M1549.69,871.92c-1.35-.94-4.45-1.29-6.87-.82a9.43,9.43,0,0,0-3.83-6.21l-1.29-.94-.9,1.35a11.15,11.15,0,0,0-1.52,6.56,7.87,7.87,0,0,0,1.18,3.57,9.39,9.39,0,0,1-4.56,1.05h-40.7l-.12.47a21,21,0,0,0,4.22,15.29c3.49,4.28,8.67,6.45,15.48,6.45,14.75,0,25.68-7.09,30.8-19.92,2,.06,6.36,0,8.56-4.39.06-.12.16-.35.56-1.23l.22-.47Zm-25.95-16.52h-6.19v5.86h6.19Zm0,7h-6.19v5.86h6.19Zm-7.32,0h-6.19v5.86h6.19Zm-7.31,0h-6.19v5.86h6.19Zm-7.32,7h-6.19v5.86h6.19Zm7.32,0h-6.19v5.86h6.19Zm7.31,0h-6.19v5.86h6.19Zm7.32,0h-6.19v5.86h6.19Zm7.31,0h-6.19v5.86h6.19Z" transform="translate(-49.14 -7.49)" fill="#2396ed"/>
    <path d="M1357,888.86h0a6.33,6.33,0,0,0-2.46-4.21l-.06-.06h0l-.07-.05,0,0-.76-.55,0,0-.1-.07h0l-.11,0c-2.41-1.43-6.4-2.44-12.5-.29-1.46-2.45-1.62-4.41-.65-7.42a.78.78,0,0,0-.51-1.09,5.83,5.83,0,0,0-3.49.05,1,1,0,0,0-.85.8c-.64,3-2.51,5.76-4.32,8.41l-.11.16a7.77,7.77,0,0,1-.11-6.48.72.72,0,0,0-.4-1,5.61,5.61,0,0,0-3.7,0c-.91.26-1.88,2.71-3,5.64-.27.74-.51,1.37-.65,1.66-.33.68-.65,1.46-1,2.29a18.12,18.12,0,0,1-2.86,5.3c-.45-1,.26-2.55.94-4.07.81-1.79,1.58-3.49.69-4.57a1.62,1.62,0,0,0-1.14-.59,1.81,1.81,0,0,0-.84.14,4.77,4.77,0,0,0-.13-2.12,2.2,2.2,0,0,0-2.31-1.61c-2.63.08-4.85,2-6.25,3.66-.94,1.09-3,1.93-4.83,2.66-.72.3-1.4.58-2,.85a39.21,39.21,0,0,0-3.28-2.36c-3.42-2.29-7.29-4.9-7.43-8.42-.19-5.21,5.74-8.91,10.92-11.54a46.89,46.89,0,0,1,10.43-4c4.35-1,8-.81,10.91.61a3.52,3.52,0,0,1,1.85,4.19c-1.23,4.5-6.33,7.59-10.69,9a19,19,0,0,1-6.84,1.07,11.71,11.71,0,0,1-5.36-1.91,2.9,2.9,0,0,0-.44-.25h0a.44.44,0,0,0-.44.14.76.76,0,0,0-.05.72,6.55,6.55,0,0,0,5.16,4.12,12.59,12.59,0,0,0,2.57.24c6,0,13.76-3.48,16.59-6.35a12.7,12.7,0,0,0,3.92-7.43c.61-3.63-1.85-6.15-4.36-7.31-6.09-2.81-13-1.7-17.75-.27a47.53,47.53,0,0,0-15.71,8.33c-5.49,4.47-7.47,8.61-5.9,12.34s5.55,6.21,9.36,8.52c1.23.75,2.4,1.45,3.45,2.19l-1,.47c-3.2,1.55-6.82,3.29-8.83,6.17a6,6,0,0,0-.81,6.21,3.94,3.94,0,0,0,2.58,2.17,6.84,6.84,0,0,0,1.94.26,13.38,13.38,0,0,0,6.39-1.84,10.55,10.55,0,0,0,4.82-6.27,9.89,9.89,0,0,0-.43-6.64l3.07-1.55c-1.48,4.92-.35,7.86.9,9.48a3.11,3.11,0,0,0,4.47,0,18.3,18.3,0,0,0,2.2-3.77,6.16,6.16,0,0,0,.3,2.47,2,2,0,0,0,1.26,1.28,2.32,2.32,0,0,0,2-.43c3-2.07,5.1-7.05,6.77-11.05.24-.57.46-1.12.68-1.63a20.85,20.85,0,0,0,1.71,4.25.46.46,0,0,1-.07.66c-.33.36-.79.8-1.28,1.26-1.47,1.4-3.31,3.14-3.55,4.68a1.16,1.16,0,0,0,1,1.3,8.77,8.77,0,0,0,6.38-1.54,4.51,4.51,0,0,0,2.05-5.08c-.46-2.06.58-4.62,3.09-7.6a14.26,14.26,0,0,0,1.71,4.31l0,0c-1.82,1.59-4.32,3.77-3.93,6.42a1.83,1.83,0,0,0,.76,1.26,1.94,1.94,0,0,0,1.53.28,9.29,9.29,0,0,0,5.49-3.09c1.31-1.57.83-3.32.39-4.67a15.51,15.51,0,0,1,9.31.07,5.78,5.78,0,0,1,3.41,2.69c.83,1.56.38,3-1.27,4.05-.51.32-.75.52-.77.77a.36.36,0,0,0,.14.3c.19.16.78.43,2.12-.41A4.32,4.32,0,0,0,1357,890,5.33,5.33,0,0,0,1357,888.86Zm-54.65,3.43v.17a7.62,7.62,0,0,1-3,5.2,6.79,6.79,0,0,1-3.45,1.58,2.23,2.23,0,0,1-1.65-.31,1.3,1.3,0,0,1-.41-1c-.22-3.48,5.24-6.95,8.31-8.08A7,7,0,0,1,1302.31,892.29Zm14-9.82h0c-.51,2.88-2,8.33-4.3,10.44-.11.1-.2.14-.25.13s-.08-.06-.11-.14c-.77-1.79-.49-4.82.68-7.2a6,6,0,0,1,3.63-3.42l.18,0a.22.22,0,0,1,.14,0A.22.22,0,0,1,1316.3,882.47ZM1327.72,893c-.44.46-1,.39-.89.23l2.22-2.36a4.65,4.65,0,0,1-1.33,2.13Zm9.21-2a1.92,1.92,0,0,1-.67.19c-.06-1.24,1.14-2.64,2.32-3.57a3.05,3.05,0,0,1-1.65,3.38Z" transform="translate(-49.14 -7.49)" fill="#cd6799"/>
  </g>
  <g>
    <rect x="1082.76" y="762.51" width="30" height="7" rx="2.5" ry="2.5" fill="#4abb89"/>
    <rect x="1101.26" y="709.51" width="30" height="7" rx="2.5" ry="2.5" fill="#4abb89"/>
    <rect x="1121.26" y="656.51" width="30" height="7" rx="2.5" ry="2.5" fill="#4abb89"/>
    <rect x="1141.26" y="606.51" width="30" height="7" rx="2.5" ry="2.5" fill="#4abb89"/>
    <rect x="1158.76" y="556.51" width="30" height="7" rx="2.5" ry="2.5" fill="#4abb89"/>
    <rect x="1192.26" y="528.01" width="50" height="6.25" rx="1.25" ry="1.25" fill="#4abb89"/>
    <path d="M1163.8,619.09a17.26,17.26,0,0,0,1.19-4c.19-1.42.06-2.21.41-2.36.64-.26,1.44,2.33,3.52,3.84,3.07,2.23,7.59,1.16,12.07.1a48.28,48.28,0,0,0,6.17-2c3.3-1.23,6.25-2.57,8.32-3.52,3.13-1.43,2.85-1.42,4.16-1.92,3.91-1.5,5.19-.9,6.72-2.24,1.85-1.63,2.71-4.82,1.6-6.08s-4.94-.59-7,1.28c-1.61,1.43-1.21,2.63-3.2,4.16a14.83,14.83,0,0,1-3.2,1.6c-2.78,1.2-4.8,1.92-4.8,1.92-1.08.39-4.29,1.52-10.24,3.2-3.75,1.06-4.58,1.2-5.76,1a7.74,7.74,0,0,1-4.8-3.2c-1.1-1.76-1-3.73-.69-7.68.23-3.32.82-4.93.25-7.09a14.19,14.19,0,0,1-.52-2.51c-.12-1.13,0-1.26-.15-2.67a16.52,16.52,0,0,1-.17-3.09c.1-2,.38-3.4.38-4.37a6.57,6.57,0,0,0,2.35-1.13c3-2.33,2.92-6.79,2.83-14.14a37.65,37.65,0,0,0-1-9c-1-4-1.86-7.6-4.94-10.74a14.74,14.74,0,0,0-8.27-4.45c-1-.16-6-.95-9.74,2-6.1,4.9-3.36,15.66-2.76,17.77.76,2.65,1.88,4.51,4.11,8.23,3.41,5.67,5.17,8.59,8.74,10.28a15.76,15.76,0,0,0,5.3,1.42c0,.57,0,1.39,0,2.75-.08,3.19-.43,4.29-1.1,5.17a4.18,4.18,0,0,1-.76.79c-.9.69-1.93.73-3.72,1.77-3,1.71-2.94,3.46-6.4,7a43.65,43.65,0,0,1-5.44,4.48c-7.94,6-8.42,4.72-10.94,7.4-3.7,3.94-6.41,10.33-6.66,14.36a10.6,10.6,0,0,1-1,4.16c-1.18,3.06-2.54,3.59-2.64,5.58s1.1,4.38,2.64,4.66c1.88.34,4.17-2.46,4.8-5.12s-1-3.52-1-7,1.58-6,3.52-9.28a28.84,28.84,0,0,1,4.48-5.76,32.19,32.19,0,0,1,7-5.12c2.81-1.52,2.77-1,4.8-2.24s3.6-2.85,6.67-6c2.88-3,3.84-4.2,4.41-3.92s.24,1.36-.19,5.12c-.65,5.63-.36,5.8-1,8.32-.49,2.07-1.21,4.27-1.6,5.44s-.68,2-1.6,4.48c-1.59,4.34-2.38,6.51-2.56,7-.56,1.71-1.12,3.7-2.24,7.68-.4,1.43-.72,2.58-1.28,4.48-.86,2.9-.84,2.63-1,3.2-.41,2-.1,2.88,0,6.72v10.88s-.05,1.18,0,7.68c0,2.71.05,3,0,4.16,0,.18,0,.69-.09,1.36,0,.41-.18,2.22-.55,4.4a50.15,50.15,0,0,1-1.6,6.72c-.63,2-.84,2.19-2.24,5.76-2.94,7.51-2.27,7.35-3.84,10.24-1.36,2.51-2.23,3.29-2.56,5.44a8.56,8.56,0,0,0,.64,5.12,9.85,9.85,0,0,0,4.48,4.16,17.87,17.87,0,0,0,6.08,1.92c3.64.72,4.47.22,4.79,0a4,4,0,0,0,1.29-3.19c-.11-2.22-2.07-3.72-3.52-4.8-3.38-2.52-5.33-1.84-6.72-3.84-1.21-1.74-.88-3.9-.64-5.44.67-4.3,3.92-8.43,4.48-10.56.12-.45.36-1.46.8-2.94.59-2,1.12-3.52,1.34-4.15l.08-.22,0,0c4.53-12.69,2.52-27.81,2.52-27.81-.36-2.73-.24-5.5-.39-8.25s-.26-4.43.75-5.22c1.46-1.14,4.8-.32,4.8-.32s3.51-2.07,7-4.48c2.7-1.84,3.32-2.45,5.12-3.2,1.62-.67,3.59-1.48,4.8-.64,1,.72,1,2.28,1,4.8,0,3.41.08,6.83,0,10.24-.2,8.2.27,6.16,0,9.6-.24,3.11-.6,4.48.32,5.76.63.87,1.55,1.25,6.08,1.92,8.42,1.25,9.93.62,10.88,0a5.38,5.38,0,0,0,2.56-3.52,4.83,4.83,0,0,0-1.92-4.48c-.48-.35-1.75-1.1-6.08-.32-5.36,1-6.42,2.64-7.68,1.92-1.61-.92-.37-4-.32-14.4,0-5-.26-5,0-7.68.19-2,.43-3,0-4.48a7.39,7.39,0,0,0-3.52-4.48c-2.27-1.12-4.58-.42-7,.32a23.49,23.49,0,0,0-5.44,2.56c-5.5,3.27-7.1,5.66-8,5.12-1.27-.77.73-6.53,1.9-9.92C1163.31,620.44,1163.8,619.09,1163.8,619.09Zm-7.06-43.28a44.86,44.86,0,0,1-4.82-6.72c-2.72-4.53-4.08-6.8-4.44-10a12.29,12.29,0,0,1,1-7.34c1.86-3.6,6.18-6.72,10.49-6,3.12.5,5.12,2.82,6.23,4.11.4.46,1.26,1.53,3.6,6.94a54.16,54.16,0,0,1,2.65,6.67,22.71,22.71,0,0,1-.08,10.82c-.59,2.56-1,4-2.31,5.14-2.59,2.16-6.33,1.13-6.68,1C1160.29,579.82,1159.08,578.47,1156.74,575.81Z" transform="translate(-49.14 -7.49)" fill="#4abb89"/>
    <path d="M1133.81,827h-4c-.82,0-1.24-.67-.92-1.5l156.23-407a2.44,2.44,0,0,1,2.08-1.5h4c.82,0,1.24.67.92,1.5l-156.23,407A2.44,2.44,0,0,1,1133.81,827Z" transform="translate(-49.14 -7.49)" fill="#4abb89"/>
    <path d="M1400.1,833h-4a2.38,2.38,0,0,1-2-1.5l-128.12-352a1,1,0,0,1,1-1.5h4a2.38,2.38,0,0,1,2,1.5l128.12,352A1,1,0,0,1,1400.1,833Z" transform="translate(-49.14 -7.49)" fill="#4abb89"/>
  </g>
</svg>
