<svg id="bg-github" xmlns="http://www.w3.org/2000/svg" xmlns:xlink="http://www.w3.org/1999/xlink" viewBox="0 0 1814.37 901.75"><defs><style>.cls-1{fill:#f07167;}.cls-2{fill:#00afb9;}.cls-3{fill:#e44d26;}.cls-4{fill:#f16529;}.cls-5{fill:#ebebeb;}.cls-6{fill:#fff;}.cls-7{fill:#1f72b5;}.cls-8{fill:#51a3dc;}.cls-9{fill:#cecece;}.cls-10{fill:url(#linear-gradient);}.cls-11{fill:url(#linear-gradient-2);}.cls-12{fill:url(#radial-gradient);}.cls-13{fill:#6181b6;}.cls-14{fill:#000004;}.cls-15{fill:#f7df1e;}.cls-16{fill:#0c4b33;}.cls-17{fill:#2396ed;}.cls-18{fill:#00d8ff;}.cls-19{fill:none;stroke:#00d8ff;stroke-miterlimit:10;stroke-width:3.22px;}.cls-20{fill:#8163ba;}.cls-21{fill:#4abb89;}.cls-22{fill:#e23237;}.cls-23{fill:#b52e31;}.cls-24{fill:#cd6799;}.cls-25{fill:url(#linear-gradient-3);}.cls-26{fill:url(#linear-gradient-4);}.cls-27{fill:url(#linear-gradient-5);}.cls-28{fill:url(#linear-gradient-6);}.cls-29{fill:url(#linear-gradient-7);}.cls-30{fill:url(#linear-gradient-8);}.cls-31{fill:url(#linear-gradient-9);}.cls-32{fill:url(#linear-gradient-10);}.cls-33{fill:url(#linear-gradient-11);}.cls-34{fill:url(#linear-gradient-12);}.cls-35{fill:url(#linear-gradient-13);}.cls-36{fill:url(#linear-gradient-14);}.cls-37{fill:#9e1209;}.cls-38{fill:url(#radial-gradient-2);}.cls-39{fill:url(#radial-gradient-3);}.cls-40{fill:url(#linear-gradient-15);}.cls-41{fill:url(#linear-gradient-16);}.cls-42{fill:#d10702;}.cls-43{fill:#ea1b22;}.cls-44{fill:#d20000;}</style><linearGradient id="linear-gradient" x1="537.73" y1="312.97" x2="537.97" y2="312.97" gradientTransform="matrix(126.28, 125.58, 125.3, -126.56, -106221.21, -27311.13)" gradientUnits="userSpaceOnUse"><stop offset="0" stop-color="#387eb8"/><stop offset="1" stop-color="#366994"/></linearGradient><linearGradient id="linear-gradient-2" x1="537.16" y1="312.88" x2="537.4" y2="312.88" gradientTransform="matrix(135.63, 128.78, 128.5, -135.93, -112140.83, -26023.05)" gradientUnits="userSpaceOnUse"><stop offset="0" stop-color="#ffe052"/><stop offset="1" stop-color="#ffc331"/></linearGradient><radialGradient id="radial-gradient" cx="536.65" cy="310.57" r="0.23" gradientTransform="matrix(168.1, 0, 0, -168.1, -89500.62, 52803.52)" gradientUnits="userSpaceOnUse"><stop offset="0" stop-color="#fff"/><stop offset="0.5" stop-color="#4c6b97"/><stop offset="1" stop-color="#231f20"/></radialGradient><linearGradient id="linear-gradient-3" x1="531.38" y1="820.97" x2="531.55" y2="820.97" gradientTransform="matrix(-123.27, -85.14, -85.14, 123.27, 136905.94, -55091.11)" gradientUnits="userSpaceOnUse"><stop offset="0" stop-color="#fb7655"/><stop offset="0.41" stop-color="#e42b1e"/><stop offset="0.99" stop-color="#900"/><stop offset="1" stop-color="#900"/></linearGradient><linearGradient id="linear-gradient-4" x1="528.77" y1="823.38" x2="528.94" y2="823.38" gradientTransform="matrix(-113.48, -16, -16, 113.48, 74671.59, -84127.3)" gradientUnits="userSpaceOnUse"><stop offset="0" stop-color="#871101"/><stop offset="0.99" stop-color="#911209"/><stop offset="1" stop-color="#911209"/></linearGradient><linearGradient id="linear-gradient-5" x1="528.77" y1="822.39" x2="528.94" y2="822.39" gradientTransform="matrix(-113.47, -16, -16, 113.47, 74650.55, -83989.68)" xlink:href="#linear-gradient-4"/><linearGradient id="linear-gradient-6" x1="540.19" y1="832.18" x2="540.36" y2="832.18" gradientTransform="matrix(55.06, 79.86, 79.86, -55.06, -94746.23, 3546.34)" gradientUnits="userSpaceOnUse"><stop offset="0" stop-color="#fff"/><stop offset="0.23" stop-color="#e57252"/><stop offset="0.46" stop-color="#de3b20"/><stop offset="0.99" stop-color="#a60003"/><stop offset="1" stop-color="#a60003"/></linearGradient><linearGradient id="linear-gradient-7" x1="540.04" y1="831.66" x2="540.21" y2="831.66" gradientTransform="matrix(47.54, 85.69, 85.69, -47.54, -95475.65, -5900.96)" gradientUnits="userSpaceOnUse"><stop offset="0" stop-color="#fff"/><stop offset="0.23" stop-color="#e4714e"/><stop offset="0.56" stop-color="#be1a0d"/><stop offset="0.99" stop-color="#a80d00"/><stop offset="1" stop-color="#a80d00"/></linearGradient><linearGradient id="linear-gradient-8" x1="544.32" y1="831.85" x2="544.49" y2="831.85" gradientTransform="matrix(45.21, 56.02, 56.02, -45.21, -69739.04, 7933.19)" gradientUnits="userSpaceOnUse"><stop offset="0" stop-color="#fff"/><stop offset="0.18" stop-color="#e46342"/><stop offset="0.4" stop-color="#c82410"/><stop offset="0.99" stop-color="#a80d00"/><stop offset="1" stop-color="#a80d00"/></linearGradient><linearGradient id="linear-gradient-9" x1="540.37" y1="813.52" x2="540.54" y2="813.52" gradientTransform="matrix(47.83, -62.11, -62.11, -47.83, 26147.15, 73291.27)" gradientUnits="userSpaceOnUse"><stop offset="0" stop-color="#fff"/><stop offset="0.54" stop-color="#c81f11"/><stop offset="0.99" stop-color="#bf0905"/><stop offset="1" stop-color="#bf0905"/></linearGradient><linearGradient id="linear-gradient-10" x1="543.37" y1="838.95" x2="543.54" y2="838.95" gradientTransform="matrix(30.38, 49.49, 49.49, -30.38, -56582.38, -542.21)" gradientUnits="userSpaceOnUse"><stop offset="0" stop-color="#fff"/><stop offset="0.31" stop-color="#de4024"/><stop offset="0.99" stop-color="#bf190b"/><stop offset="1" stop-color="#bf190b"/></linearGradient><linearGradient id="linear-gradient-11" x1="536.07" y1="821.66" x2="536.24" y2="821.66" gradientTransform="matrix(122.57, -369.31, -369.31, -122.57, 239230.44, 299654.68)" gradientUnits="userSpaceOnUse"><stop offset="0" stop-color="#bd0012"/><stop offset="0.07" stop-color="#fff"/><stop offset="0.17" stop-color="#fff"/><stop offset="0.27" stop-color="#c82f1c"/><stop offset="0.33" stop-color="#820c01"/><stop offset="0.46" stop-color="#a31601"/><stop offset="0.72" stop-color="#b31301"/><stop offset="0.99" stop-color="#e82609"/><stop offset="1" stop-color="#e82609"/></linearGradient><linearGradient id="linear-gradient-12" x1="525.2" y1="825.41" x2="525.37" y2="825.41" gradientTransform="matrix(-82.33, 17.46, 17.46, 82.33, 30354.19, -76178.37)" gradientUnits="userSpaceOnUse"><stop offset="0" stop-color="#8c0c01"/><stop offset="0.54" stop-color="#990c00"/><stop offset="0.99" stop-color="#a80d0e"/><stop offset="1" stop-color="#a80d0e"/></linearGradient><linearGradient id="linear-gradient-13" x1="527.29" y1="822.52" x2="527.46" y2="822.52" gradientTransform="matrix(-93.69, -26.92, -26.92, 93.69, 73084.36, -61942.65)" gradientUnits="userSpaceOnUse"><stop offset="0" stop-color="#7e110b"/><stop offset="0.99" stop-color="#9e0c00"/><stop offset="1" stop-color="#9e0c00"/></linearGradient><linearGradient id="linear-gradient-14" x1="520.01" y1="821.61" x2="520.18" y2="821.61" gradientTransform="matrix(-49.39, -19.03, -19.03, 49.39, 42859.21, -29778.26)" gradientUnits="userSpaceOnUse"><stop offset="0" stop-color="#79130d"/><stop offset="0.99" stop-color="#9e120b"/><stop offset="1" stop-color="#9e120b"/></linearGradient><radialGradient id="radial-gradient-2" cx="558.12" cy="806.61" r="1" gradientTransform="matrix(13.73, -6.65, -6.65, -13.73, -770.41, 15702.74)" gradientUnits="userSpaceOnUse"><stop offset="0" stop-color="#a80d00"/><stop offset="0.99" stop-color="#7e0e08"/><stop offset="1" stop-color="#7e0e08"/></radialGradient><radialGradient id="radial-gradient-3" cx="552.39" cy="810.92" r="1" gradientTransform="matrix(18.25, -8.84, -8.84, -18.25, -1395.25, 20626.3)" gradientUnits="userSpaceOnUse"><stop offset="0" stop-color="#a30c00"/><stop offset="0.99" stop-color="#800e08"/><stop offset="1" stop-color="#800e08"/></radialGradient><linearGradient id="linear-gradient-15" x1="530.09" y1="816.66" x2="530.26" y2="816.66" gradientTransform="matrix(-70.1, -77.13, -77.13, 70.1, 101661.75, -15386.51)" gradientUnits="userSpaceOnUse"><stop offset="0" stop-color="#8b2114"/><stop offset="0.43" stop-color="#9e100a"/><stop offset="0.99" stop-color="#b3100c"/><stop offset="1" stop-color="#b3100c"/></linearGradient><linearGradient id="linear-gradient-16" x1="546.83" y1="820.91" x2="547" y2="820.91" gradientTransform="matrix(72.17, -2.55, -2.55, -72.17, -35849.45, 61540.06)" gradientUnits="userSpaceOnUse"><stop offset="0" stop-color="#b31000"/><stop offset="0.44" stop-color="#910f08"/><stop offset="0.99" stop-color="#791c12"/><stop offset="1" stop-color="#791c12"/></linearGradient></defs><g id="interest"><g id="titles"><path class="cls-1" d="M73,88.14l1.25,1.6-17,16.4,17,16.4L73,124.14,54,106.14Z" transform="translate(-54.04 -88.14)"/><path class="cls-1" d="M92.49,113.79l-.9-23h5.1l-1,23Zm-.65,2.95h4.6v7.4h-4.6Z" transform="translate(-54.04 -88.14)"/><path class="cls-1" d="M118.59,109.54h11.1v3.15h-11.1Z" transform="translate(-54.04 -88.14)"/><path class="cls-1" d="M148.59,109.54h11.1v3.15h-11.1Z" transform="translate(-54.04 -88.14)"/><path class="cls-1" d="M188.94,90.79h4.2l1,33.35h-3.55l-.65-27.8h-.1l-5.7,16.75-5.7-16.75h-.1l-.65,27.8h-3.5l1-33.35h4.15l4.8,14.15Z" transform="translate(-54.04 -88.14)"/><path class="cls-1" d="M221.09,97.44l3.15,1.65-8.45,15v10h-3.35v-10l-8.4-15,3.15-1.65,6.95,13.4Z" transform="translate(-54.04 -88.14)"/><path class="cls-1" d="M268.79,121.14h3.65v-20h-3.65v-3h10.7v3h-3.7v20h3.7v3h-10.7Z" transform="translate(-54.04 -88.14)"/><path class="cls-1" d="M295.44,98.09h4.15l10.1,22,.1-.1-.3-6.75V98.09h3.35v26.05h-4.15l-10.1-22-.1.1.3,6.8v15h-3.35Z" transform="translate(-54.04 -88.14)"/><path class="cls-1" d="M332.54,101.09h-7.2v-3h17.6v3h-7.05v23h-3.35Z" transform="translate(-54.04 -88.14)"/><path class="cls-1" d="M357,98.09h16.25v3h-12.9v7.8H371v3H360.34v9.25h12.9v3H357Z" transform="translate(-54.04 -88.14)"/><path class="cls-1" d="M386.59,98.09h8.85c4.35,0,7.8,2,7.8,7.1a7.73,7.73,0,0,1-5.3,7.3l6.4,10.55-2.9,1.75L394.79,113h-4.85v11.15h-3.35Zm7.75,11.9c3.25,0,5.4-1.85,5.4-4.8,0-2.35-1.4-4.1-4.4-4.1h-5.4V110Z" transform="translate(-54.04 -88.14)"/><path class="cls-1" d="M417,98.09h16.25v3h-12.9v7.8H431v3H420.34v9.25h12.9v3H417Z" transform="translate(-54.04 -88.14)"/><path class="cls-1" d="M448.69,115.89c.65,3.2,2.2,5.55,5.7,5.55,2.75,0,4.9-1.5,4.9-4.4,0-3.2-2.7-4-5.25-5.05-3.8-1.6-7.4-2.6-7.4-7.5,0-4.4,3.55-6.85,7.65-6.85,4.35,0,6.9,2.5,7.95,6.55l-3.2,1c-.6-2.55-2-4.35-4.8-4.35-2.15,0-4.25,1.1-4.25,3.45s1.5,3.15,3.5,4.05l5.55,2.45a6.63,6.63,0,0,1,3.6,6.1c0,5-3.45,7.75-8.25,7.75s-7.9-3.1-8.7-7.75Z" transform="translate(-54.04 -88.14)"/><path class="cls-1" d="M482.54,101.09h-7.2v-3h17.6v3h-7.05v23h-3.35Z" transform="translate(-54.04 -88.14)"/><path class="cls-1" d="M508.69,115.89c.65,3.2,2.2,5.55,5.7,5.55,2.75,0,4.9-1.5,4.9-4.4,0-3.2-2.7-4-5.25-5.05-3.8-1.6-7.4-2.6-7.4-7.5,0-4.4,3.55-6.85,7.65-6.85,4.35,0,6.9,2.5,8,6.55l-3.2,1c-.6-2.55-1.95-4.35-4.8-4.35-2.15,0-4.25,1.1-4.25,3.45s1.5,3.15,3.5,4.05l5.55,2.45a6.63,6.63,0,0,1,3.6,6.1c0,5-3.45,7.75-8.25,7.75s-7.9-3.1-8.7-7.75Z" transform="translate(-54.04 -88.14)"/><path class="cls-1" d="M538.59,109.54h11.1v3.15h-11.1Z" transform="translate(-54.04 -88.14)"/><path class="cls-1" d="M568.59,109.54h11.1v3.15h-11.1Z" transform="translate(-54.04 -88.14)"/><path class="cls-1" d="M614.24,106.14l-19,18-1.25-1.6,17-16.4-17-16.4,1.25-1.6Z" transform="translate(-54.04 -88.14)"/><path class="cls-1" d="M73,642.14l1.25,1.6-17,16.4,17,16.4L73,678.14,54,660.14Z" transform="translate(-54.04 -88.14)"/><path class="cls-1" d="M92.49,667.79l-.9-23h5.1l-1,23Zm-.65,3h4.6v7.4h-4.6Z" transform="translate(-54.04 -88.14)"/><path class="cls-1" d="M118.59,663.54h11.1v3.15h-11.1Z" transform="translate(-54.04 -88.14)"/><path class="cls-1" d="M148.59,663.54h11.1v3.15h-11.1Z" transform="translate(-54.04 -88.14)"/><path class="cls-1" d="M188.94,644.79h4.2l1,33.35h-3.55l-.65-27.8h-.1l-5.7,16.75-5.7-16.75h-.1l-.65,27.8h-3.5l1-33.35h4.15l4.8,14.15Z" transform="translate(-54.04 -88.14)"/><path class="cls-1" d="M221.09,651.44l3.15,1.65-8.45,15v10h-3.35v-10l-8.4-15,3.15-1.65,6.95,13.4Z" transform="translate(-54.04 -88.14)"/><path class="cls-1" d="M268.69,669.89c.65,3.2,2.2,5.55,5.7,5.55,2.75,0,4.9-1.5,4.9-4.4,0-3.2-2.7-4-5.25-5-3.8-1.6-7.4-2.6-7.4-7.5,0-4.4,3.55-6.85,7.65-6.85,4.35,0,6.9,2.5,7.95,6.55l-3.2.95c-.6-2.55-2-4.35-4.8-4.35-2.15,0-4.25,1.1-4.25,3.45s1.5,3.15,3.5,4l5.55,2.45a6.63,6.63,0,0,1,3.6,6.1c0,4.95-3.45,7.75-8.25,7.75s-7.9-3.1-8.7-7.75Z" transform="translate(-54.04 -88.14)"/><path class="cls-1" d="M300.59,663.19h1.25l9-11.75,2.55,2-8.65,10.95,10.15,12.25-2.55,2.15-10.55-12.85h-1.15v12.2h-3.35v-26h3.35Z" transform="translate(-54.04 -88.14)"/><path class="cls-1" d="M328.79,675.14h3.65v-20h-3.65v-3h10.7v3h-3.7v20h3.7v3h-10.7Z" transform="translate(-54.04 -88.14)"/><path class="cls-1" d="M357.64,652.09H361v23h13.65v3h-17Z" transform="translate(-54.04 -88.14)"/><path class="cls-1" d="M387.64,652.09H391v23h13.65v3h-17Z" transform="translate(-54.04 -88.14)"/><path class="cls-1" d="M418.69,669.89c.65,3.2,2.2,5.55,5.7,5.55,2.75,0,4.9-1.5,4.9-4.4,0-3.2-2.7-4-5.25-5-3.8-1.6-7.4-2.6-7.4-7.5,0-4.4,3.55-6.85,7.65-6.85,4.35,0,6.9,2.5,7.95,6.55l-3.2.95c-.6-2.55-2-4.35-4.8-4.35-2.15,0-4.25,1.1-4.25,3.45s1.5,3.15,3.5,4l5.55,2.45a6.63,6.63,0,0,1,3.6,6.1c0,4.95-3.45,7.75-8.25,7.75s-7.9-3.1-8.7-7.75Z" transform="translate(-54.04 -88.14)"/><path class="cls-1" d="M448.59,663.54h11.1v3.15h-11.1Z" transform="translate(-54.04 -88.14)"/><path class="cls-1" d="M478.59,663.54h11.1v3.15h-11.1Z" transform="translate(-54.04 -88.14)"/><path class="cls-1" d="M524.24,660.14l-18.95,18-1.25-1.6,17-16.4-17-16.4,1.25-1.6Z" transform="translate(-54.04 -88.14)"/><path class="cls-1" d="M1581.52,236.22h16.4v3h-13.05v11h11v3h-11v16.35h-3.35Z" transform="translate(-54.04 -88.14)"/><path class="cls-1" d="M1612.92,243.52v17.75c0,3.8,1.1,5.6,4.55,5.6,4.2,0,5.1-1.85,5.1-5.6V243.52h3.35v19.35c0,3.45-2.45,7.15-8.2,7.15s-8.15-3.55-8.15-7.35V243.52Z" transform="translate(-54.04 -88.14)"/><path class="cls-1" d="M1641.22,243.52h3.35v23h13.65v3h-17Z" transform="translate(-54.04 -88.14)"/><path class="cls-1" d="M1671.22,243.52h3.35v23h13.65v3h-17Z" transform="translate(-54.04 -88.14)"/><path class="cls-1" d="M1702.16,255h11.1v3.15h-11.1Z" transform="translate(-54.04 -88.14)"/><path class="cls-1" d="M1742.51,243.82c-.55-2.45-1.75-4.9-4.59-4.9-3.16,0-4.41,2.55-4.41,5.35s.55,3.55,5.8,6.7c4.11,2.45,6.9,4.5,6.9,9.65s-2.79,9.4-8.4,9.4c-5.9,0-8-3.9-8.55-9.2l3.35-.45c.45,3.7,1.25,6.5,5.31,6.5,2.9,0,4.95-1.95,4.95-5.95,0-4.4-2.86-5.9-6.31-7.9-3.85-2.25-6.4-3.85-6.4-8.75,0-4.5,3-8.5,7.76-8.5s7,3.35,7.85,7.55Z" transform="translate(-54.04 -88.14)"/><path class="cls-1" d="M1766.11,246.52h-7.2v-3h17.6v3h-7v23h-3.35Z" transform="translate(-54.04 -88.14)"/><path class="cls-1" d="M1793.11,262.47l-2.45,7.75-3.3-1.2,8.2-25.5h4.3l8.2,25.5-3.3,1.2-2.4-7.75Zm4.6-15.05-3.7,12.05h7.4Z" transform="translate(-54.04 -88.14)"/><path class="cls-1" d="M1837.06,264.57c-2.1,3.3-4.6,5.45-8.65,5.45-7.6,0-10-7-10-13.45,0-10.4,5.5-13.5,9.7-13.5s6.4,2.1,8.25,5.55l-3,1.55c-1.1-2.1-2.6-3.95-5.15-3.95-5.2,0-6.25,6.3-6.25,10.3s.95,10.35,6.25,10.35c3,0,4.6-1.85,6.15-4.2Z" transform="translate(-54.04 -88.14)"/><path class="cls-1" d="M1854.16,254.62h1.25l8.95-11.75,2.55,2-8.65,10.95,10.15,12.25-2.55,2.15-10.55-12.85h-1.15v12.2h-3.35v-26h3.35Z" transform="translate(-54.04 -88.14)"/><path class="cls-1" d="M1593.67,299.22v-3h8.8c6.7,0,10.65,2.95,10.65,16.7,0,7.35-.4,16.65-10.55,16.65h-8.9v-3h2.7V299.22Zm6,27.35h2.75c4,0,7.15-1.05,7.15-13.65s-3.4-13.7-6.35-13.7h-3.55Z" transform="translate(-54.04 -88.14)"/><path class="cls-1" d="M1625.57,303.52h16.25v3h-12.9v7.8h10.65v3h-10.65v9.25h12.9v3h-16.25Z" transform="translate(-54.04 -88.14)"/><path class="cls-1" d="M1669.82,302.87l3.2,1.2-10,26.15h-.6l-10-26.15,3.2-1.2,7.1,19.1Z" transform="translate(-54.04 -88.14)"/><path class="cls-1" d="M1685.57,303.52h16.25v3h-12.9v7.8h10.65v3h-10.65v9.25h12.9v3h-16.25Z" transform="translate(-54.04 -88.14)"/><path class="cls-1" d="M1716.21,303.52h3.35v23.05h13.66v3h-17Z" transform="translate(-54.04 -88.14)"/><path class="cls-1" d="M1762,316.57c0,2.1-.15,13.45-9.26,13.45-4.2,0-9.25-3-9.25-13.45s5-13.5,9.25-13.5S1762,306.07,1762,316.57Zm-15,0c0,3.8.7,10.3,5.75,10.3s5.75-6.5,5.75-10.3-.7-10.35-5.75-10.35S1747,312.72,1747,316.57Z" transform="translate(-54.04 -88.14)"/><path class="cls-1" d="M1779.16,329.57h-3.35V303.52h8.1c6,0,8.4,3.3,8.4,7.1,0,5.5-3.9,7.75-7.55,7.75h-5.6Zm4.6-14.2c3.3,0,5-1.5,5-4.5,0-3.55-2.3-4.35-5-4.35h-4.6v8.85Z" transform="translate(-54.04 -88.14)"/><path class="cls-1" d="M1805.56,303.52h16.25v3h-12.9v7.8h10.65v3h-10.65v9.25h12.9v3h-16.25Z" transform="translate(-54.04 -88.14)"/><path class="cls-1" d="M1835.16,303.52H1844c4.35,0,7.8,2.05,7.8,7.1a7.73,7.73,0,0,1-5.3,7.3l6.4,10.55-2.9,1.75-6.65-11.8h-4.85v11.15h-3.35Zm7.75,11.9c3.25,0,5.4-1.85,5.4-4.8,0-2.35-1.4-4.1-4.4-4.1h-5.4v8.9Z" transform="translate(-54.04 -88.14)"/></g><g id="description"><path class="cls-2" d="M163.19,340v-2.4h7c5.36,0,8.52,2.36,8.52,13.36,0,5.88-.32,13.32-8.44,13.32h-7.12v-2.4h2.16V340ZM168,361.89h2.2c3.24,0,5.72-.84,5.72-10.92s-2.72-11-5.08-11H168Z" transform="translate(-54.04 -88.14)"/><path class="cls-2" d="M190.75,358.61l-2,6.2-2.64-1,6.56-20.4h3.44l6.55,20.4-2.63,1-1.92-6.2Zm3.68-12-3,9.64h5.92Z" transform="translate(-54.04 -88.14)"/><path class="cls-2" d="M217.15,345.85h-5.76v-2.4h14.07v2.4h-5.63v18.44h-2.68Z" transform="translate(-54.04 -88.14)"/><path class="cls-2" d="M238.75,358.61l-2,6.2-2.64-1,6.56-20.4h3.44l6.55,20.4-2.64,1-1.91-6.2Zm3.68-12-3,9.64h5.92Z" transform="translate(-54.04 -88.14)"/><path class="cls-2" d="M286.79,356.05l-2.08,8.76-2.64-.72,6.76-26.48H292l6.76,26.48-2.64.72-2.08-8.76Zm3.67-14.88h-.08l-2.95,12.48h6Z" transform="translate(-54.04 -88.14)"/><path class="cls-2" d="M307.47,343.45h3.32L318.86,361l.08-.08-.24-5.4V343.45h2.68v20.84h-3.32L310,346.73l-.08.08.24,5.44v12h-2.68Z" transform="translate(-54.04 -88.14)"/><path class="cls-2" d="M334.75,358.61l-2,6.2-2.64-1,6.55-20.4h3.44l6.56,20.4-2.64,1-1.92-6.2Zm3.67-12-3,9.64h5.92Z" transform="translate(-54.04 -88.14)"/><path class="cls-2" d="M357.22,343.45h2.68v18.44h10.92v2.4h-13.6Z" transform="translate(-54.04 -88.14)"/><path class="cls-2" d="M392,342.93l2.52,1.32-6.76,12v8h-2.68v-8l-6.72-12,2.52-1.32,5.56,10.72Z" transform="translate(-54.04 -88.14)"/><path class="cls-2" d="M409.14,345.85h-5.76v-2.4h14.08v2.4h-5.64v18.44h-2.68Z" transform="translate(-54.04 -88.14)"/><path class="cls-2" d="M430.14,361.89h2.92v-16h-2.92v-2.4h8.56v2.4h-3v16h3v2.4h-8.56Z" transform="translate(-54.04 -88.14)"/><path class="cls-2" d="M465.9,360.29c-1.68,2.64-3.68,4.36-6.92,4.36-6.08,0-8-5.6-8-10.76,0-8.32,4.4-10.8,7.76-10.8s5.12,1.68,6.6,4.44l-2.44,1.24c-.88-1.68-2.08-3.16-4.12-3.16-4.16,0-5,5-5,8.24s.76,8.28,5,8.28c2.44,0,3.68-1.48,4.92-3.36Z" transform="translate(-54.04 -88.14)"/><path class="cls-2" d="M478.06,357.69c.52,2.56,1.76,4.44,4.56,4.44,2.2,0,3.92-1.2,3.92-3.52,0-2.56-2.16-3.2-4.2-4-3-1.28-5.92-2.08-5.92-6,0-3.52,2.84-5.48,6.12-5.48,3.48,0,5.52,2,6.36,5.24l-2.56.76c-.48-2-1.56-3.48-3.84-3.48-1.72,0-3.4.88-3.4,2.76s1.2,2.52,2.8,3.24l4.44,2a5.3,5.3,0,0,1,2.88,4.88c0,4-2.76,6.2-6.6,6.2s-6.32-2.48-7-6.2Z" transform="translate(-54.04 -88.14)"/><path class="cls-2" d="M192.6,166l-2.68,27.19h-1.16l-4.44-16.11h-.08l-4.44,16.11h-1.16L176,166l2.68-.52,1.28,20H180l3.88-14h.8l3.88,14h.08l1.28-20Z" transform="translate(-54.04 -88.14)"/><path class="cls-2" d="M202.56,171.88h13v2.4H205.24v6.24h8.52v2.4h-8.52v7.39h10.32v2.4h-13Z" transform="translate(-54.04 -88.14)"/><path class="cls-2" d="M225.16,192.71v-2.4h2.16v-16h-2.16v-2.4h6.56c5.28,0,7.56,2,7.56,5.56a4.66,4.66,0,0,1-2.36,4.28,5,5,0,0,1,3.56,5c0,3.75-2.48,6-6.84,6ZM233,180.8a3.18,3.18,0,0,0,3.48-3.36c0-2.48-1.76-3.16-3.64-3.16H230v6.52Zm.12,9.51c2.36,0,4.56-.52,4.56-3.35a3.61,3.61,0,0,0-3.92-3.76H230v7.11Z" transform="translate(-54.04 -88.14)"/><path class="cls-2" d="M273,168.44V166h7c5.36,0,8.52,2.36,8.52,13.36,0,5.88-.32,13.31-8.44,13.31H273v-2.4h2.16V168.44Zm4.84,21.87h2.2c3.24,0,5.72-.83,5.72-10.91s-2.72-11-5.08-11h-2.84Z" transform="translate(-54.04 -88.14)"/><path class="cls-2" d="M298.56,171.88h13v2.4H301.24v6.24h8.52v2.4h-8.52v7.39h10.32v2.4h-13Z" transform="translate(-54.04 -88.14)"/><path class="cls-2" d="M334,171.36l2.56,1-8,20.91H328l-8-20.91,2.56-1,5.68,15.28Z" transform="translate(-54.04 -88.14)"/><path class="cls-2" d="M346.56,171.88h13v2.4H349.24v6.24h8.52v2.4h-8.52v7.39h10.32v2.4h-13Z" transform="translate(-54.04 -88.14)"/><path class="cls-2" d="M371.08,171.88h2.68v18.43h10.92v2.4h-13.6Z" transform="translate(-54.04 -88.14)"/><path class="cls-2" d="M407.68,182.32c0,1.68-.12,10.75-7.4,10.75-3.36,0-7.4-2.4-7.4-10.75s4-10.8,7.4-10.8S407.68,173.92,407.68,182.32Zm-12,0c0,3,.56,8.23,4.6,8.23s4.6-5.19,4.6-8.23-.56-8.28-4.6-8.28S395.68,179.24,395.68,182.32Z" transform="translate(-54.04 -88.14)"/><path class="cls-2" d="M421.44,192.71h-2.68V171.88h6.48c4.84,0,6.72,2.64,6.72,5.68a5.78,5.78,0,0,1-6,6.2h-4.48Zm3.68-11.35c2.64,0,4-1.2,4-3.6,0-2.84-1.84-3.48-4-3.48h-3.68v7.08Z" transform="translate(-54.04 -88.14)"/><path class="cls-2" d="M443.6,175.84h-.08L443,192.71h-2.84l.84-20.83h3.52l3.76,9,3.76-9h3.52l.84,20.83h-2.84L453,175.84H453l-4.68,11Z" transform="translate(-54.04 -88.14)"/><path class="cls-2" d="M466.56,171.88h13v2.4H469.24v6.24h8.52v2.4h-8.52v7.39h10.32v2.4h-13Z" transform="translate(-54.04 -88.14)"/><path class="cls-2" d="M489.32,171.88h3.32l8.08,17.56.08-.09-.24-5.39V171.88h2.68v20.83h-3.32l-8.08-17.55-.08.08.24,5.44v12h-2.68Z" transform="translate(-54.04 -88.14)"/><path class="cls-2" d="M519,174.28h-5.76v-2.4h14.08v2.4h-5.64v18.43H519Z" transform="translate(-54.04 -88.14)"/><path class="cls-2" d="M149.89,306.61a10.06,10.06,0,0,1-6.2,2.32c-6.87,0-8.07-8.32-8.07-13.64,0-5,1.16-13.75,7.8-13.75,3,0,5.19,1.84,6.67,4.27l-2.36,1.44c-1-1.71-2.36-3.19-4.48-3.19-4.43,0-4.83,8.15-4.83,11.31,0,9.16,2.68,11,5.31,11a6,6,0,0,0,3.48-1.24v-8h-5v-2.4h7.68Z" transform="translate(-54.04 -88.14)"/><path class="cls-2" d="M160.82,287.73h7.07c3.48,0,6.24,1.64,6.24,5.68a6.19,6.19,0,0,1-4.24,5.84l5.12,8.44-2.32,1.4-5.32-9.44H163.5v8.92h-2.68Zm6.19,9.52c2.6,0,4.32-1.48,4.32-3.84,0-1.88-1.12-3.28-3.52-3.28H163.5v7.12Z" transform="translate(-54.04 -88.14)"/><path class="cls-2" d="M187.17,302.89l-1.95,6.2-2.64-1,6.55-20.4h3.44l6.56,20.4-2.64,1-1.92-6.2Zm3.68-12-2.95,9.64h5.91Z" transform="translate(-54.04 -88.14)"/><path class="cls-2" d="M212,308.57h-2.68V287.73h6.48c4.84,0,6.72,2.64,6.72,5.68a5.78,5.78,0,0,1-6,6.2H212Zm3.68-11.36c2.64,0,4-1.2,4-3.6,0-2.84-1.84-3.48-4-3.48H212v7.08Z" transform="translate(-54.04 -88.14)"/><path class="cls-2" d="M232.05,287.73h2.68v8.64H243v-8.64h2.68v20.84H243v-9.8h-8.24v9.8h-2.68Z" transform="translate(-54.04 -88.14)"/><path class="cls-2" d="M258.57,306.17h2.92v-16h-2.92v-2.4h8.56v2.4h-3v16h3v2.4h-8.56Z" transform="translate(-54.04 -88.14)"/><path class="cls-2" d="M294.33,304.57c-1.68,2.64-3.68,4.36-6.92,4.36-6.08,0-8-5.6-8-10.76,0-8.32,4.4-10.79,7.76-10.79s5.12,1.67,6.6,4.43l-2.44,1.24c-.88-1.68-2.08-3.16-4.12-3.16-4.16,0-5,5-5,8.24s.76,8.28,5,8.28c2.44,0,3.68-1.48,4.92-3.36Z" transform="translate(-54.04 -88.14)"/><path class="cls-2" d="M327.61,284.3v-2.4h7c5.36,0,8.52,2.36,8.52,13.35,0,5.88-.32,13.32-8.44,13.32h-7.12v-2.4h2.16V284.3Zm4.84,21.87h2.2c3.24,0,5.72-.84,5.72-10.92s-2.72-10.95-5.08-10.95h-2.84Z" transform="translate(-54.04 -88.14)"/><path class="cls-2" d="M353.13,287.73h13v2.4H355.81v6.24h8.52v2.4h-8.52v7.4h10.32v2.4h-13Z" transform="translate(-54.04 -88.14)"/><path class="cls-2" d="M378.49,302c.52,2.56,1.76,4.44,4.56,4.44,2.2,0,3.92-1.2,3.92-3.52,0-2.56-2.16-3.2-4.2-4-3-1.28-5.92-2.08-5.92-6,0-3.52,2.84-5.47,6.12-5.47,3.48,0,5.52,2,6.36,5.23l-2.56.76c-.48-2-1.56-3.48-3.84-3.48-1.72,0-3.4.88-3.4,2.76s1.2,2.52,2.8,3.24l4.44,2a5.3,5.3,0,0,1,2.88,4.88c0,4-2.76,6.2-6.6,6.2s-6.32-2.48-7-6.2Z" transform="translate(-54.04 -88.14)"/><path class="cls-2" d="M402.57,306.17h2.92v-16h-2.92v-2.4h8.56v2.4h-3v16h3v2.4h-8.56Z" transform="translate(-54.04 -88.14)"/><path class="cls-2" d="M437.89,306.65a11.14,11.14,0,0,1-6.4,2.28c-6.12,0-7.88-5.68-7.88-10.8s1.84-10.75,7.8-10.75a7.92,7.92,0,0,1,6.68,4l-2.28,1.48a5.36,5.36,0,0,0-4.56-3c-4.12,0-4.84,5.16-4.84,8.32s.72,8.2,4.92,8.2a7.38,7.38,0,0,0,3.88-1.08v-5.48h-5v-2.4h7.68Z" transform="translate(-54.04 -88.14)"/><path class="cls-2" d="M447.89,287.73h3.32l8.08,17.56.08-.08-.24-5.4V287.73h2.68v20.84h-3.32L450.41,291l-.08.08.24,5.44v12h-2.68Z" transform="translate(-54.04 -88.14)"/><path class="cls-2" d="M193.9,228.29V225.9h7c5.36,0,8.52,2.36,8.52,13.35,0,5.88-.32,13.32-8.44,13.32H193.9v-2.4h2.16V228.29Zm4.84,21.88h2.2c3.24,0,5.72-.84,5.72-10.92s-2.72-11-5.08-11h-2.84Z" transform="translate(-54.04 -88.14)"/><path class="cls-2" d="M221.46,246.89l-2,6.2-2.64-1,6.56-20.4h3.44l6.56,20.4-2.64,1-1.92-6.2Zm3.68-12-3,9.64h5.92Z" transform="translate(-54.04 -88.14)"/><path class="cls-2" d="M247.86,234.13H242.1v-2.4h14.08v2.4h-5.64v18.44h-2.68Z" transform="translate(-54.04 -88.14)"/><path class="cls-2" d="M269.46,246.89l-2,6.2-2.64-1,6.56-20.4h3.44l6.56,20.4-2.64,1-1.92-6.2Zm3.68-12-3,9.64h5.92Z" transform="translate(-54.04 -88.14)"/><path class="cls-2" d="M290,252.57v-2.4h2.16v-16H290v-2.4h6.56c5.28,0,7.56,2,7.56,5.56a4.66,4.66,0,0,1-2.36,4.28,5,5,0,0,1,3.56,5c0,3.76-2.48,6-6.84,6Zm7.84-11.92a3.18,3.18,0,0,0,3.48-3.36c0-2.48-1.76-3.16-3.64-3.16h-2.84v6.52Zm.12,9.52c2.36,0,4.56-.52,4.56-3.36a3.61,3.61,0,0,0-3.92-3.76h-3.76v7.12Z" transform="translate(-54.04 -88.14)"/><path class="cls-2" d="M317.46,246.89l-2,6.2-2.64-1,6.56-20.4h3.44l6.56,20.4-2.64,1-1.92-6.2Zm3.68-12-3,9.64h5.92Z" transform="translate(-54.04 -88.14)"/><path class="cls-2" d="M340.78,246c.52,2.56,1.76,4.44,4.56,4.44,2.2,0,3.92-1.2,3.92-3.52,0-2.56-2.16-3.2-4.2-4-3-1.28-5.92-2.08-5.92-6,0-3.52,2.84-5.47,6.12-5.47,3.48,0,5.52,2,6.36,5.23l-2.56.76c-.48-2-1.56-3.48-3.84-3.48-1.72,0-3.4.88-3.4,2.76s1.2,2.52,2.8,3.24l4.44,2a5.3,5.3,0,0,1,2.88,4.88c0,4-2.76,6.2-6.6,6.2s-6.32-2.48-7-6.2Z" transform="translate(-54.04 -88.14)"/><path class="cls-2" d="M363.42,231.73h13v2.4H366.1v6.24h8.52v2.4H366.1v7.4h10.32v2.4h-13Z" transform="translate(-54.04 -88.14)"/><path class="cls-2" d="M409.9,228.29V225.9h7c5.36,0,8.52,2.36,8.52,13.35,0,5.88-.32,13.32-8.44,13.32H409.9v-2.4h2.16V228.29Zm4.84,21.88h2.2c3.24,0,5.72-.84,5.72-10.92s-2.72-11-5.08-11h-2.84Z" transform="translate(-54.04 -88.14)"/><path class="cls-2" d="M435.42,231.73h13v2.4H438.1v6.24h8.52v2.4H438.1v7.4h10.32v2.4h-13Z" transform="translate(-54.04 -88.14)"/><path class="cls-2" d="M460.78,246c.52,2.56,1.76,4.44,4.56,4.44,2.2,0,3.92-1.2,3.92-3.52,0-2.56-2.16-3.2-4.2-4-3-1.28-5.92-2.08-5.92-6,0-3.52,2.84-5.47,6.12-5.47,3.48,0,5.52,2,6.36,5.23l-2.56.76c-.48-2-1.56-3.48-3.84-3.48-1.72,0-3.4.88-3.4,2.76s1.2,2.52,2.8,3.24l4.44,2a5.3,5.3,0,0,1,2.88,4.88c0,4-2.76,6.2-6.6,6.2s-6.32-2.48-7-6.2Z" transform="translate(-54.04 -88.14)"/><path class="cls-2" d="M484.86,250.17h2.92v-16h-2.92v-2.4h8.56v2.4h-3v16h3v2.4h-8.56Z" transform="translate(-54.04 -88.14)"/><path class="cls-2" d="M520.17,250.65a11.08,11.08,0,0,1-6.39,2.28c-6.12,0-7.88-5.68-7.88-10.8s1.84-10.75,7.8-10.75a7.92,7.92,0,0,1,6.68,4l-2.28,1.48a5.36,5.36,0,0,0-4.56-3c-4.12,0-4.84,5.16-4.84,8.32s.72,8.2,4.92,8.2a7.38,7.38,0,0,0,3.88-1.08v-5.48h-5v-2.4h7.67Z" transform="translate(-54.04 -88.14)"/><path class="cls-2" d="M530.18,231.73h3.32l8.07,17.56.08-.08-.23-5.4V231.73h2.67v20.84h-3.32L532.7,235l-.08.08.24,5.44v12h-2.68Z" transform="translate(-54.04 -88.14)"/><path class="cls-2" d="M115.32,391.47h3.36l7.92,22.43.08-.08-.12-6V391.47h2.68v26.67h-3.36L118,395.67l-.08.08.12,6v16.35h-2.68Z" transform="translate(-54.04 -88.14)"/><path class="cls-2" d="M142.6,412.46l-2,6.2-2.64-1,6.56-20.39H148l6.56,20.39-2.64,1-1.92-6.2Zm3.68-12-3,9.63h5.92Z" transform="translate(-54.04 -88.14)"/><path class="cls-2" d="M169,399.71h-5.76v-2.4h14.08v2.4h-5.64v18.43H169Z" transform="translate(-54.04 -88.14)"/><path class="cls-2" d="M190.44,397.31V411.5c0,3,.88,4.48,3.64,4.48,3.36,0,4.08-1.48,4.08-4.48V397.31h2.68v15.47c0,2.76-2,5.72-6.56,5.72s-6.52-2.84-6.52-5.88V397.31Z" transform="translate(-54.04 -88.14)"/><path class="cls-2" d="M212.24,397.31h7.08c3.48,0,6.24,1.64,6.24,5.68a6.17,6.17,0,0,1-4.24,5.83l5.12,8.44-2.32,1.4-5.32-9.44h-3.88v8.92h-2.68Zm6.2,9.52c2.6,0,4.32-1.48,4.32-3.84,0-1.88-1.12-3.28-3.52-3.28h-4.32v7.12Z" transform="translate(-54.04 -88.14)"/><path class="cls-2" d="M238.6,412.46l-2,6.2-2.64-1,6.56-20.39H244l6.56,20.39-2.64,1-1.92-6.2Zm3.68-12-3,9.63h5.92Z" transform="translate(-54.04 -88.14)"/><path class="cls-2" d="M261.08,397.31h2.68v18.43h10.92v2.4h-13.6Z" transform="translate(-54.04 -88.14)"/><path class="cls-2" d="M309,391.47h2.68v24.27h11v2.4H309Z" transform="translate(-54.04 -88.14)"/><path class="cls-2" d="M334.6,412.46l-2,6.2-2.64-1,6.56-20.39H340l6.56,20.39-2.64,1-1.92-6.2Zm3.68-12-3,9.63h5.92Z" transform="translate(-54.04 -88.14)"/><path class="cls-2" d="M355.32,397.31h3.32l8.08,17.55.08-.08-.24-5.4V397.31h2.68v20.83h-3.32l-8.08-17.55-.08.08.24,5.43v12h-2.68Z" transform="translate(-54.04 -88.14)"/><path class="cls-2" d="M393.32,416.22a11.14,11.14,0,0,1-6.4,2.28c-6.12,0-7.88-5.68-7.88-10.8s1.84-10.75,7.8-10.75a7.93,7.93,0,0,1,6.68,4l-2.28,1.48a5.36,5.36,0,0,0-4.56-3c-4.12,0-4.84,5.16-4.84,8.31s.72,8.2,4.92,8.2a7.38,7.38,0,0,0,3.88-1.08v-5.48h-5V407h7.68Z" transform="translate(-54.04 -88.14)"/><path class="cls-2" d="M406.44,397.31V411.5c0,3,.88,4.48,3.64,4.48,3.36,0,4.08-1.48,4.08-4.48V397.31h2.68v15.47c0,2.76-2,5.72-6.56,5.72s-6.52-2.84-6.52-5.88V397.31Z" transform="translate(-54.04 -88.14)"/><path class="cls-2" d="M430.6,412.46l-2,6.2-2.64-1,6.56-20.39H436l6.56,20.39-2.64,1-1.92-6.2Zm3.68-12-3,9.63h5.92Z" transform="translate(-54.04 -88.14)"/><path class="cls-2" d="M465.32,416.22a11.14,11.14,0,0,1-6.4,2.28c-6.12,0-7.88-5.68-7.88-10.8s1.84-10.75,7.8-10.75a7.93,7.93,0,0,1,6.68,4l-2.28,1.48a5.36,5.36,0,0,0-4.56-3c-4.12,0-4.84,5.16-4.84,8.31s.72,8.2,4.92,8.2a7.38,7.38,0,0,0,3.88-1.08v-5.48h-5V407h7.68Z" transform="translate(-54.04 -88.14)"/><path class="cls-2" d="M476.56,397.31h13v2.4H479.24V406h8.52v2.39h-8.52v7.4h10.32v2.4h-13Z" transform="translate(-54.04 -88.14)"/><path class="cls-2" d="M527.44,418.14h-2.68V391.47h5.8c4.72,0,7.36,2.52,7.36,7.08,0,5-2.8,7.72-6.48,7.72h-4Zm0-14.27,3.76,0c2.48,0,3.92-1.92,3.92-5.28s-1.72-4.68-4.6-4.68h-3.08Z" transform="translate(-54.04 -88.14)"/><path class="cls-2" d="M548.24,397.31h7.08c3.48,0,6.24,1.64,6.24,5.68a6.17,6.17,0,0,1-4.24,5.83l5.12,8.44-2.32,1.4-5.32-9.44h-3.88v8.92h-2.68Zm6.2,9.52c2.6,0,4.32-1.48,4.32-3.84,0-1.88-1.12-3.28-3.52-3.28h-4.32v7.12Z" transform="translate(-54.04 -88.14)"/><path class="cls-2" d="M585.68,407.74c0,1.68-.12,10.76-7.4,10.76-3.36,0-7.4-2.4-7.4-10.76s4-10.79,7.4-10.79S585.68,399.35,585.68,407.74Zm-12,0c0,3,.56,8.24,4.6,8.24s4.6-5.2,4.6-8.24-.56-8.27-4.6-8.27S573.68,404.67,573.68,407.74Z" transform="translate(-54.04 -88.14)"/><path class="cls-2" d="M609.75,414.14c-1.67,2.64-3.67,4.36-6.91,4.36-6.08,0-8-5.6-8-10.76,0-8.31,4.4-10.79,7.76-10.79s5.12,1.68,6.6,4.44l-2.44,1.24c-.88-1.68-2.08-3.16-4.12-3.16-4.16,0-5,5-5,8.23s.76,8.28,5,8.28c2.44,0,3.68-1.48,4.92-3.36Z" transform="translate(-54.04 -88.14)"/><path class="cls-2" d="M620.56,397.31h13v2.4H623.24V406h8.52v2.39h-8.52v7.4h10.31v2.4h-13Z" transform="translate(-54.04 -88.14)"/><path class="cls-2" d="M645.92,411.54c.52,2.56,1.76,4.44,4.56,4.44,2.19,0,3.91-1.2,3.91-3.52,0-2.56-2.15-3.2-4.19-4-3-1.27-5.92-2.07-5.92-6,0-3.52,2.84-5.48,6.12-5.48,3.48,0,5.51,2,6.35,5.24l-2.56.76c-.48-2-1.56-3.48-3.83-3.48-1.72,0-3.4.88-3.4,2.76s1.2,2.52,2.8,3.24l4.43,1.95a5.3,5.3,0,0,1,2.88,4.88c0,4-2.76,6.2-6.59,6.2s-6.32-2.48-7-6.2Z" transform="translate(-54.04 -88.14)"/><path class="cls-2" d="M669.92,411.54c.52,2.56,1.76,4.44,4.56,4.44,2.19,0,3.91-1.2,3.91-3.52,0-2.56-2.15-3.2-4.19-4-3-1.27-5.92-2.07-5.92-6,0-3.52,2.84-5.48,6.12-5.48,3.48,0,5.51,2,6.35,5.24l-2.56.76c-.48-2-1.56-3.48-3.83-3.48-1.72,0-3.4.88-3.4,2.76s1.2,2.52,2.8,3.24l4.43,1.95a5.3,5.3,0,0,1,2.88,4.88c0,4-2.76,6.2-6.59,6.2s-6.32-2.48-7-6.2Z" transform="translate(-54.04 -88.14)"/><path class="cls-2" d="M694,415.74h2.92v-16H694v-2.4h8.55v2.4h-3v16h3v2.4H694Z" transform="translate(-54.04 -88.14)"/><path class="cls-2" d="M715.32,397.31h3.31l8.08,17.55.08-.08-.24-5.4V397.31h2.68v20.83h-3.32l-8.08-17.55-.08.08.25,5.43v12h-2.68Z" transform="translate(-54.04 -88.14)"/><path class="cls-2" d="M753.31,416.22a11.14,11.14,0,0,1-6.4,2.28c-6.12,0-7.87-5.68-7.87-10.8S740.88,397,746.83,397a7.93,7.93,0,0,1,6.68,4l-2.28,1.48a5.36,5.36,0,0,0-4.56-3c-4.12,0-4.84,5.16-4.84,8.31s.72,8.2,4.92,8.2a7.38,7.38,0,0,0,3.88-1.08v-5.48h-5V407h7.68Z" transform="translate(-54.04 -88.14)"/><path class="cls-2" d="M139.22,466.9l-2.08,8.76-2.64-.72,6.76-26.47h3.19l6.76,26.47-2.64.72-2.08-8.76ZM142.9,452h-.09l-2.95,12.47h6Z" transform="translate(-54.04 -88.14)"/><path class="cls-2" d="M160.82,454.31h7.07c3.48,0,6.24,1.64,6.24,5.68a6.17,6.17,0,0,1-4.24,5.83l5.12,8.44-2.32,1.4-5.32-9.44H163.5v8.92h-2.68Zm6.19,9.52c2.6,0,4.32-1.48,4.32-3.84,0-1.88-1.12-3.28-3.52-3.28H163.5v7.12Z" transform="translate(-54.04 -88.14)"/><path class="cls-2" d="M189.57,456.71h-5.75v-2.4h14.07v2.4h-5.64v18.43h-2.68Z" transform="translate(-54.04 -88.14)"/><path class="cls-2" d="M210.57,472.74h2.92v-16h-2.92v-2.4h8.56v2.4h-3v16h3v2.4h-8.56Z" transform="translate(-54.04 -88.14)"/><path class="cls-2" d="M233.89,454.31H247v2.4H236.57V463h8.76v2.39h-8.76v9.8h-2.68Z" transform="translate(-54.04 -88.14)"/><path class="cls-2" d="M258.57,472.74h2.92v-16h-2.92v-2.4h8.56v2.4h-3v16h3v2.4h-8.56Z" transform="translate(-54.04 -88.14)"/><path class="cls-2" d="M294.33,471.14c-1.68,2.64-3.68,4.36-6.92,4.36-6.08,0-8-5.6-8-10.76,0-8.31,4.4-10.79,7.76-10.79s5.12,1.68,6.6,4.44l-2.44,1.24c-.88-1.68-2.08-3.16-4.12-3.16-4.16,0-5,5-5,8.23s.76,8.28,5,8.28c2.44,0,3.68-1.48,4.92-3.36Z" transform="translate(-54.04 -88.14)"/><path class="cls-2" d="M306.57,472.74h2.92v-16h-2.92v-2.4h8.56v2.4h-3v16h3v2.4h-8.56Z" transform="translate(-54.04 -88.14)"/><path class="cls-2" d="M331.17,469.46l-2,6.2-2.64-1,6.56-20.39h3.44l6.56,20.39-2.64,1-1.92-6.2Zm3.68-12-3,9.63h5.92Z" transform="translate(-54.04 -88.14)"/><path class="cls-2" d="M353.65,454.31h2.68v18.43h10.92v2.4h-13.6Z" transform="translate(-54.04 -88.14)"/><path class="cls-2" d="M405.49,450.87h-3.6v-2.4h9.92v2.4h-3.64v21.87h3.64v2.4h-9.92v-2.4h3.6Z" transform="translate(-54.04 -88.14)"/><path class="cls-2" d="M423.89,454.31h3.32l8.08,17.55.08-.08-.24-5.4V454.31h2.68v20.83h-3.32l-8.08-17.55-.08.08.24,5.43v12h-2.68Z" transform="translate(-54.04 -88.14)"/><path class="cls-2" d="M453.57,456.71h-5.76v-2.4h14.08v2.4h-5.64v18.43h-2.68Z" transform="translate(-54.04 -88.14)"/><path class="cls-2" d="M473.13,454.31h13v2.4H475.81V463h8.52v2.39h-8.52v7.4h10.32v2.4h-13Z" transform="translate(-54.04 -88.14)"/><path class="cls-2" d="M497.65,454.31h2.68v18.43h10.92v2.4h-13.6Z" transform="translate(-54.04 -88.14)"/><path class="cls-2" d="M521.65,454.31h2.68v18.43h10.92v2.4h-13.6Z" transform="translate(-54.04 -88.14)"/><path class="cls-2" d="M546.57,472.74h2.92v-16h-2.92v-2.4h8.56v2.4h-3v16h3v2.4h-8.56Z" transform="translate(-54.04 -88.14)"/><path class="cls-2" d="M581.89,473.22a11.14,11.14,0,0,1-6.4,2.28c-6.12,0-7.88-5.68-7.88-10.8s1.84-10.75,7.8-10.75a7.93,7.93,0,0,1,6.68,4l-2.28,1.48a5.36,5.36,0,0,0-4.56-3c-4.12,0-4.84,5.16-4.84,8.31s.72,8.2,4.92,8.2a7.38,7.38,0,0,0,3.88-1.08v-5.48h-5V464h7.68Z" transform="translate(-54.04 -88.14)"/><path class="cls-2" d="M593.13,454.31h13v2.4H595.81V463h8.52v2.39h-8.52v7.4h10.32v2.4h-13Z" transform="translate(-54.04 -88.14)"/><path class="cls-2" d="M615.89,454.31h3.32l8.08,17.55.08-.08-.24-5.4V454.31h2.68v20.83h-3.32l-8.08-17.55-.08.08.24,5.43v12h-2.68Z" transform="translate(-54.04 -88.14)"/><path class="cls-2" d="M654.33,471.14c-1.68,2.64-3.68,4.36-6.92,4.36-6.08,0-8-5.6-8-10.76,0-8.31,4.4-10.79,7.76-10.79s5.12,1.68,6.6,4.44l-2.44,1.24c-.88-1.68-2.08-3.16-4.12-3.16-4.16,0-5,5-5,8.23s.76,8.28,5,8.28c2.44,0,3.68-1.48,4.92-3.36Z" transform="translate(-54.04 -88.14)"/><path class="cls-2" d="M665.13,454.31h13v2.4H667.81V463h8.52v2.39h-8.52v7.4h10.32v2.4h-13Z" transform="translate(-54.04 -88.14)"/></g></g><g id="stairs"><path class="cls-2" d="M447.62,822.15h-.8v-1.29h1.05l.36-1.73h-1.41v-1.3h1.67l.46-2.28h1.32l-.47,2.28h1.3l.45-2.28h1.36l-.47,2.28h.81v1.3h-1.07l-.36,1.73h1.43v1.29h-1.69l-.46,2.28h-1.31l.45-2.28h-1.3l-.46,2.28h-1.33Zm1.92-3-.34,1.73h1.3l.34-1.73Z" transform="translate(-54.04 -88.14)"/><path class="cls-2" d="M454.29,822.15h-.8v-1.29h1.06l.35-1.73h-1.41v-1.3h1.67l.47-2.28h1.31l-.46,2.28h1.29l.45-2.28h1.36l-.47,2.28h.81v1.3h-1.07l-.35,1.73h1.42v1.29h-1.69l-.46,2.28h-1.31l.46-2.28h-1.31l-.46,2.28h-1.32Zm1.93-3-.35,1.73h1.3l.34-1.73Z" transform="translate(-54.04 -88.14)"/><path class="cls-2" d="M461,822.15h-.79v-1.29h1.05l.35-1.73h-1.4v-1.3h1.67l.46-2.28h1.31l-.46,2.28h1.29l.46-2.28h1.36l-.47,2.28h.81v1.3h-1.08l-.35,1.73h1.43v1.29h-1.69l-.47,2.28h-1.3l.45-2.28h-1.3l-.46,2.28H460.5Zm1.93-3-.34,1.73h1.3l.34-1.73Z" transform="translate(-54.04 -88.14)"/><path class="cls-2" d="M467.64,822.15h-.8v-1.29h1.06l.35-1.73h-1.41v-1.3h1.67l.46-2.28h1.32l-.47,2.28h1.3l.45-2.28h1.36l-.47,2.28h.81v1.3H472.2l-.35,1.73h1.42v1.29h-1.69l-.46,2.28h-1.31l.45-2.28H469l-.46,2.28h-1.32Zm1.93-3-.35,1.73h1.3l.34-1.73Z" transform="translate(-54.04 -88.14)"/><path class="cls-2" d="M474.31,822.15h-.79v-1.29h1.05l.35-1.73h-1.4v-1.3h1.67l.46-2.28H477l-.46,2.28h1.29l.45-2.28h1.36l-.47,2.28h.81v1.3h-1.07l-.35,1.73h1.42v1.29h-1.68l-.47,2.28h-1.3l.45-2.28h-1.3l-.47,2.28h-1.32Zm1.93-3-.35,1.73h1.3l.34-1.73Z" transform="translate(-54.04 -88.14)"/><path class="cls-2" d="M481,822.15h-.8v-1.29h1.05l.36-1.73h-1.41v-1.3h1.67l.46-2.28h1.31l-.46,2.28h1.3l.45-2.28h1.36l-.47,2.28h.81v1.3h-1.08l-.35,1.73h1.43v1.29h-1.69l-.46,2.28h-1.31l.45-2.28h-1.3l-.46,2.28h-1.33Zm1.92-3-.34,1.73h1.3l.34-1.73Z" transform="translate(-54.04 -88.14)"/><path class="cls-2" d="M487.66,822.15h-.8v-1.29h1.06l.35-1.73h-1.41v-1.3h1.67l.47-2.28h1.31l-.46,2.28h1.29l.45-2.28H493l-.47,2.28h.81v1.3h-1.07l-.35,1.73h1.42v1.29H491.6l-.46,2.28h-1.31l.45-2.28H489l-.46,2.28H487.2Zm1.93-3-.35,1.73h1.3l.34-1.73Z" transform="translate(-54.04 -88.14)"/><path class="cls-2" d="M494.33,822.15h-.79v-1.29h1l.35-1.73h-1.4v-1.3h1.67l.46-2.28H497l-.46,2.28h1.29l.46-2.28h1.35l-.46,2.28h.8v1.3h-1.07l-.35,1.73H500v1.29h-1.68l-.47,2.28h-1.3l.45-2.28h-1.3l-.47,2.28h-1.32Zm1.93-3-.34,1.73h1.3l.34-1.73Z" transform="translate(-54.04 -88.14)"/><path class="cls-2" d="M597.62,772.15h-.8v-1.29h1l.36-1.73h-1.41v-1.3h1.67l.46-2.28h1.32l-.47,2.28h1.3l.45-2.28h1.36l-.47,2.28h.81v1.3h-1.07l-.36,1.73h1.43v1.29h-1.69l-.46,2.28h-1.31l.45-2.28h-1.3l-.46,2.28h-1.33Zm1.92-3-.34,1.73h1.3l.34-1.73Z" transform="translate(-54.04 -88.14)"/><path class="cls-2" d="M604.29,772.15h-.8v-1.29h1.06l.35-1.73h-1.41v-1.3h1.67l.47-2.28h1.31l-.46,2.28h1.29l.45-2.28h1.36l-.47,2.28h.81v1.3h-1.07l-.35,1.73h1.42v1.29h-1.69l-.46,2.28h-1.31l.46-2.28h-1.31l-.46,2.28h-1.32Zm1.93-3-.35,1.73h1.3l.34-1.73Z" transform="translate(-54.04 -88.14)"/><path class="cls-2" d="M611,772.15h-.79v-1.29h1.05l.35-1.73h-1.4v-1.3h1.67l.46-2.28h1.31l-.46,2.28h1.29l.46-2.28h1.36l-.47,2.28h.81v1.3h-1.08l-.35,1.73h1.43v1.29h-1.69l-.47,2.28h-1.3l.45-2.28h-1.3l-.46,2.28H610.5Zm1.93-3-.34,1.73h1.3l.34-1.73Z" transform="translate(-54.04 -88.14)"/><path class="cls-2" d="M617.64,772.15h-.8v-1.29h1.06l.35-1.73h-1.41v-1.3h1.67l.46-2.28h1.32l-.47,2.28h1.3l.45-2.28h1.36l-.47,2.28h.81v1.3H622.2l-.35,1.73h1.42v1.29h-1.69l-.46,2.28h-1.31l.45-2.28H619l-.46,2.28h-1.32Zm1.93-3-.35,1.73h1.3l.34-1.73Z" transform="translate(-54.04 -88.14)"/><path class="cls-2" d="M624.31,772.15h-.79v-1.29h1.05l.35-1.73h-1.4v-1.3h1.67l.46-2.28H627l-.46,2.28h1.29l.45-2.28h1.36l-.47,2.28h.81v1.3h-1.07l-.35,1.73h1.42v1.29h-1.68l-.47,2.28h-1.3l.45-2.28h-1.3l-.47,2.28h-1.32Zm1.93-3-.35,1.73h1.3l.34-1.73Z" transform="translate(-54.04 -88.14)"/><path class="cls-2" d="M631,772.15h-.8v-1.29h1l.36-1.73h-1.41v-1.3h1.67l.46-2.28h1.31l-.46,2.28h1.3l.45-2.28h1.36l-.47,2.28h.81v1.3h-1.08l-.35,1.73h1.43v1.29h-1.69l-.46,2.28h-1.31l.45-2.28h-1.3l-.46,2.28h-1.33Zm1.92-3-.34,1.73h1.3l.34-1.73Z" transform="translate(-54.04 -88.14)"/><path class="cls-2" d="M637.66,772.15h-.8v-1.29h1.06l.35-1.73h-1.41v-1.3h1.67l.47-2.28h1.31l-.46,2.28h1.29l.45-2.28H643l-.47,2.28h.81v1.3h-1.07l-.35,1.73h1.42v1.29H641.6l-.46,2.28h-1.31l.45-2.28H639l-.46,2.28H637.2Zm1.93-3-.35,1.73h1.3l.34-1.73Z" transform="translate(-54.04 -88.14)"/><path class="cls-2" d="M644.33,772.15h-.79v-1.29h1.05l.35-1.73h-1.4v-1.3h1.67l.46-2.28H647l-.46,2.28h1.29l.46-2.28h1.35l-.46,2.28h.8v1.3h-1.07l-.35,1.73H650v1.29h-1.68l-.47,2.28h-1.3l.45-2.28h-1.3l-.47,2.28h-1.32Zm1.93-3-.34,1.73h1.3l.34-1.73Z" transform="translate(-54.04 -88.14)"/><path class="cls-2" d="M747.62,722.15h-.8v-1.29h1l.36-1.73h-1.41v-1.3h1.67l.46-2.28h1.32l-.47,2.28h1.3l.45-2.28h1.36l-.47,2.28h.81v1.3h-1.07l-.36,1.73h1.43v1.29h-1.69l-.46,2.28h-1.31l.45-2.28h-1.3l-.46,2.28h-1.33Zm1.92-3-.34,1.73h1.3l.34-1.73Z" transform="translate(-54.04 -88.14)"/><path class="cls-2" d="M754.29,722.15h-.8v-1.29h1.06l.35-1.73h-1.41v-1.3h1.67l.47-2.28h1.31l-.46,2.28h1.29l.45-2.28h1.36l-.47,2.28h.81v1.3h-1.07l-.35,1.73h1.42v1.29h-1.69l-.46,2.28h-1.31l.46-2.28h-1.31l-.46,2.28h-1.32Zm1.93-3-.35,1.73h1.3l.34-1.73Z" transform="translate(-54.04 -88.14)"/><path class="cls-2" d="M761,722.15h-.79v-1.29h1.05l.35-1.73h-1.4v-1.3h1.67l.46-2.28h1.31l-.46,2.28h1.29l.46-2.28h1.36l-.47,2.28h.81v1.3h-1.08l-.35,1.73h1.43v1.29h-1.69l-.47,2.28h-1.3l.45-2.28h-1.3l-.46,2.28H760.5Zm1.93-3-.34,1.73h1.3l.34-1.73Z" transform="translate(-54.04 -88.14)"/><path class="cls-2" d="M767.64,722.15h-.8v-1.29h1.06l.35-1.73h-1.41v-1.3h1.67l.46-2.28h1.32l-.47,2.28h1.3l.45-2.28h1.36l-.47,2.28h.81v1.3H772.2l-.35,1.73h1.42v1.29h-1.69l-.46,2.28h-1.31l.45-2.28H769l-.46,2.28h-1.32Zm1.93-3-.35,1.73h1.3l.34-1.73Z" transform="translate(-54.04 -88.14)"/><path class="cls-2" d="M774.31,722.15h-.79v-1.29h1.05l.35-1.73h-1.4v-1.3h1.67l.46-2.28H777l-.46,2.28h1.29l.45-2.28h1.36l-.47,2.28h.81v1.3h-1.07l-.35,1.73h1.42v1.29h-1.68l-.47,2.28h-1.3l.45-2.28h-1.3l-.47,2.28h-1.32Zm1.93-3-.35,1.73h1.3l.34-1.73Z" transform="translate(-54.04 -88.14)"/><path class="cls-2" d="M781,722.15h-.8v-1.29h1l.36-1.73h-1.41v-1.3h1.67l.46-2.28h1.31l-.46,2.28h1.3l.45-2.28h1.36l-.47,2.28h.81v1.3h-1.08l-.35,1.73h1.43v1.29h-1.69l-.46,2.28h-1.31l.45-2.28h-1.3l-.46,2.28h-1.33Zm1.92-3-.34,1.73h1.3l.34-1.73Z" transform="translate(-54.04 -88.14)"/><path class="cls-2" d="M787.66,722.15h-.8v-1.29h1.06l.35-1.73h-1.41v-1.3h1.67l.47-2.28h1.31l-.46,2.28h1.29l.45-2.28H793l-.47,2.28h.81v1.3h-1.07l-.35,1.73h1.42v1.29H791.6l-.46,2.28h-1.31l.45-2.28H789l-.46,2.28H787.2Zm1.93-3-.35,1.73h1.3l.34-1.73Z" transform="translate(-54.04 -88.14)"/><path class="cls-2" d="M794.33,722.15h-.79v-1.29h1.05l.35-1.73h-1.4v-1.3h1.67l.46-2.28H797l-.46,2.28h1.29l.46-2.28h1.35l-.46,2.28h.8v1.3h-1.07l-.35,1.73H800v1.29h-1.68l-.47,2.28h-1.3l.45-2.28h-1.3l-.47,2.28h-1.32Zm1.93-3-.34,1.73h1.3l.34-1.73Z" transform="translate(-54.04 -88.14)"/><path class="cls-2" d="M897.62,672.15h-.8v-1.29h1l.36-1.73h-1.41v-1.3h1.67l.46-2.28h1.32l-.47,2.28h1.3l.45-2.28h1.36l-.47,2.28h.81v1.3h-1.07l-.36,1.73h1.43v1.29h-1.69l-.46,2.28h-1.31l.45-2.28h-1.3l-.46,2.28h-1.33Zm1.92-3-.34,1.73h1.3l.34-1.73Z" transform="translate(-54.04 -88.14)"/><path class="cls-2" d="M904.29,672.15h-.8v-1.29h1.06l.35-1.73h-1.41v-1.3h1.67l.47-2.28h1.31l-.46,2.28h1.29l.45-2.28h1.36l-.47,2.28h.81v1.3h-1.07l-.35,1.73h1.42v1.29h-1.69l-.46,2.28h-1.31l.46-2.28h-1.31l-.46,2.28h-1.32Zm1.93-3-.35,1.73h1.3l.34-1.73Z" transform="translate(-54.04 -88.14)"/><path class="cls-2" d="M911,672.15h-.79v-1.29h1.05l.35-1.73h-1.4v-1.3h1.67l.46-2.28h1.31l-.46,2.28h1.29l.46-2.28h1.36l-.47,2.28h.81v1.3h-1.08l-.35,1.73h1.43v1.29h-1.69l-.47,2.28h-1.3l.45-2.28h-1.3l-.46,2.28H910.5Zm1.93-3-.34,1.73h1.3l.34-1.73Z" transform="translate(-54.04 -88.14)"/><path class="cls-2" d="M917.64,672.15h-.8v-1.29h1.06l.35-1.73h-1.41v-1.3h1.67l.46-2.28h1.32l-.47,2.28h1.3l.45-2.28h1.36l-.47,2.28h.81v1.3H922.2l-.35,1.73h1.42v1.29h-1.69l-.46,2.28h-1.31l.45-2.28H919l-.46,2.28h-1.32Zm1.93-3-.35,1.73h1.3l.34-1.73Z" transform="translate(-54.04 -88.14)"/><path class="cls-2" d="M924.31,672.15h-.79v-1.29h1.05l.35-1.73h-1.4v-1.3h1.67l.46-2.28H927l-.46,2.28h1.29l.45-2.28h1.36l-.47,2.28h.81v1.3h-1.07l-.35,1.73h1.42v1.29h-1.68l-.47,2.28h-1.3l.45-2.28h-1.3l-.47,2.28h-1.32Zm1.93-3-.35,1.73h1.3l.34-1.73Z" transform="translate(-54.04 -88.14)"/><path class="cls-2" d="M931,672.15h-.8v-1.29h1l.36-1.73h-1.41v-1.3h1.67l.46-2.28h1.31l-.46,2.28h1.3l.45-2.28h1.36l-.47,2.28h.81v1.3h-1.08l-.35,1.73h1.43v1.29h-1.69l-.46,2.28h-1.31l.45-2.28h-1.3l-.46,2.28h-1.33Zm1.92-3-.34,1.73h1.3l.34-1.73Z" transform="translate(-54.04 -88.14)"/><path class="cls-2" d="M937.66,672.15h-.8v-1.29h1.06l.35-1.73h-1.41v-1.3h1.67l.47-2.28h1.31l-.46,2.28h1.29l.45-2.28H943l-.47,2.28h.81v1.3h-1.07l-.35,1.73h1.42v1.29H941.6l-.46,2.28h-1.31l.45-2.28H939l-.46,2.28H937.2Zm1.93-3-.35,1.73h1.3l.34-1.73Z" transform="translate(-54.04 -88.14)"/><path class="cls-2" d="M944.33,672.15h-.79v-1.29h1.05l.35-1.73h-1.4v-1.3h1.67l.46-2.28H947l-.46,2.28h1.29l.46-2.28h1.35l-.46,2.28h.8v1.3h-1.07l-.35,1.73H950v1.29h-1.68l-.47,2.28h-1.3l.45-2.28h-1.3l-.47,2.28h-1.32Zm1.93-3-.34,1.73h1.3l.34-1.73Z" transform="translate(-54.04 -88.14)"/><path class="cls-2" d="M1047.62,622.15h-.8v-1.29h1.06l.35-1.73h-1.41v-1.3h1.67l.46-2.28h1.32l-.47,2.28h1.3l.45-2.28h1.36l-.47,2.28h.81v1.3h-1.07l-.36,1.73h1.43v1.29h-1.69l-.46,2.28h-1.31l.45-2.28h-1.3l-.46,2.28h-1.33Zm1.92-3-.34,1.73h1.3l.34-1.73Z" transform="translate(-54.04 -88.14)"/><path class="cls-2" d="M1054.29,622.15h-.8v-1.29h1.06l.35-1.73h-1.41v-1.3h1.67l.47-2.28h1.31l-.46,2.28h1.29l.45-2.28h1.36l-.47,2.28h.81v1.3h-1.07l-.35,1.73h1.42v1.29h-1.69l-.46,2.28h-1.31l.46-2.28h-1.3l-.47,2.28h-1.32Zm1.93-3-.35,1.73h1.3l.34-1.73Z" transform="translate(-54.04 -88.14)"/><path class="cls-2" d="M1061,622.15h-.79v-1.29h1l.35-1.73h-1.4v-1.3h1.67l.46-2.28h1.31l-.46,2.28h1.3l.45-2.28h1.36l-.47,2.28h.81v1.3h-1.08l-.35,1.73h1.43v1.29h-1.69l-.46,2.28h-1.31l.45-2.28h-1.3l-.46,2.28h-1.33Zm1.93-3-.34,1.73h1.3l.34-1.73Z" transform="translate(-54.04 -88.14)"/><path class="cls-2" d="M1067.64,622.15h-.8v-1.29h1.06l.35-1.73h-1.41v-1.3h1.67l.46-2.28h1.32l-.47,2.28h1.3l.45-2.28h1.36l-.47,2.28h.81v1.3h-1.07l-.35,1.73h1.42v1.29h-1.69l-.46,2.28h-1.31l.45-2.28H1069l-.46,2.28h-1.32Zm1.93-3-.35,1.73h1.3l.34-1.73Z" transform="translate(-54.04 -88.14)"/><path class="cls-2" d="M1074.31,622.15h-.79v-1.29h1l.35-1.73h-1.4v-1.3h1.67l.46-2.28H1077l-.46,2.28h1.29l.45-2.28h1.36l-.47,2.28h.81v1.3h-1.07l-.35,1.73h1.42v1.29h-1.68l-.47,2.28h-1.3l.45-2.28h-1.3l-.47,2.28h-1.32Zm1.93-3-.35,1.73h1.31l.34-1.73Z" transform="translate(-54.04 -88.14)"/><path class="cls-2" d="M1081,622.15h-.8v-1.29h1l.36-1.73h-1.41v-1.3h1.67l.46-2.28h1.31l-.46,2.28h1.3l.45-2.28h1.36l-.47,2.28h.81v1.3h-1.08l-.35,1.73h1.43v1.29h-1.69l-.46,2.28h-1.31l.45-2.28h-1.3l-.46,2.28h-1.33Zm1.92-3-.34,1.73h1.3l.34-1.73Z" transform="translate(-54.04 -88.14)"/><path class="cls-2" d="M1087.66,622.15h-.8v-1.29h1.06l.35-1.73h-1.41v-1.3h1.67l.47-2.28h1.31l-.46,2.28h1.29l.45-2.28H1093l-.47,2.28h.81v1.3h-1.07l-.35,1.73h1.42v1.29h-1.69l-.46,2.28h-1.31l.46-2.28H1089l-.46,2.28h-1.32Zm1.93-3-.35,1.73h1.3l.34-1.73Z" transform="translate(-54.04 -88.14)"/><path class="cls-2" d="M1094.33,622.15h-.79v-1.29h1l.35-1.73h-1.4v-1.3h1.67l.46-2.28H1097l-.46,2.28h1.29l.46-2.28h1.35l-.46,2.28h.8v1.3h-1.07l-.35,1.73H1100v1.29h-1.68l-.47,2.28h-1.3l.45-2.28h-1.3l-.46,2.28h-1.33Zm1.93-3-.34,1.73h1.3l.34-1.73Z" transform="translate(-54.04 -88.14)"/><path class="cls-2" d="M1197.62,572.15h-.8v-1.29h1.06l.35-1.73h-1.41v-1.3h1.67l.46-2.28h1.32l-.47,2.28h1.3l.45-2.28h1.36l-.47,2.28h.81v1.3h-1.07l-.36,1.73h1.43v1.29h-1.69l-.46,2.28h-1.31l.45-2.28h-1.3l-.46,2.28h-1.33Zm1.92-3-.34,1.73h1.3l.34-1.73Z" transform="translate(-54.04 -88.14)"/><path class="cls-2" d="M1204.29,572.15h-.8v-1.29h1.06l.35-1.73h-1.41v-1.3h1.67l.47-2.28h1.31l-.46,2.28h1.29l.45-2.28h1.36l-.47,2.28h.81v1.3h-1.07l-.35,1.73h1.42v1.29h-1.69l-.46,2.28h-1.31l.46-2.28h-1.3l-.47,2.28h-1.32Zm1.93-3-.35,1.73h1.3l.34-1.73Z" transform="translate(-54.04 -88.14)"/><path class="cls-2" d="M1211,572.15h-.79v-1.29h1l.35-1.73h-1.4v-1.3h1.67l.46-2.28h1.31l-.46,2.28h1.3l.45-2.28h1.36l-.47,2.28h.81v1.3h-1.08l-.35,1.73h1.43v1.29h-1.69l-.46,2.28h-1.31l.45-2.28h-1.3l-.46,2.28h-1.33Zm1.93-3-.34,1.73h1.3l.34-1.73Z" transform="translate(-54.04 -88.14)"/><path class="cls-2" d="M1217.64,572.15h-.8v-1.29h1.06l.35-1.73h-1.41v-1.3h1.67l.46-2.28h1.32l-.47,2.28h1.3l.45-2.28h1.36l-.47,2.28h.81v1.3h-1.07l-.35,1.73h1.42v1.29h-1.69l-.46,2.28h-1.31l.45-2.28H1219l-.46,2.28h-1.32Zm1.93-3-.35,1.73h1.3l.34-1.73Z" transform="translate(-54.04 -88.14)"/><path class="cls-2" d="M1224.31,572.15h-.79v-1.29h1l.35-1.73h-1.4v-1.3h1.67l.46-2.28H1227l-.46,2.28h1.29l.45-2.28h1.36l-.47,2.28h.81v1.3h-1.07l-.35,1.73h1.42v1.29h-1.68l-.47,2.28h-1.3l.45-2.28h-1.3l-.47,2.28h-1.32Zm1.93-3-.35,1.73h1.31l.34-1.73Z" transform="translate(-54.04 -88.14)"/><path class="cls-2" d="M1231,572.15h-.8v-1.29h1l.36-1.73h-1.41v-1.3h1.67l.46-2.28h1.31l-.46,2.28h1.3l.45-2.28h1.36l-.47,2.28h.81v1.3h-1.08l-.35,1.73h1.43v1.29h-1.69l-.46,2.28h-1.31l.45-2.28h-1.3l-.46,2.28h-1.33Zm1.92-3-.34,1.73h1.3l.34-1.73Z" transform="translate(-54.04 -88.14)"/><path class="cls-2" d="M1237.66,572.15h-.8v-1.29h1.06l.35-1.73h-1.41v-1.3h1.67l.47-2.28h1.31l-.46,2.28h1.29l.45-2.28H1243l-.47,2.28h.81v1.3h-1.07l-.35,1.73h1.42v1.29h-1.69l-.46,2.28h-1.31l.46-2.28H1239l-.46,2.28h-1.32Zm1.93-3-.35,1.73h1.3l.34-1.73Z" transform="translate(-54.04 -88.14)"/><path class="cls-2" d="M1244.33,572.15h-.79v-1.29h1l.35-1.73h-1.4v-1.3h1.67l.46-2.28H1247l-.46,2.28h1.29l.46-2.28h1.35l-.46,2.28h.8v1.3h-1.07l-.35,1.73H1250v1.29h-1.68l-.47,2.28h-1.3l.45-2.28h-1.3l-.46,2.28h-1.33Zm1.93-3-.34,1.73h1.3l.34-1.73Z" transform="translate(-54.04 -88.14)"/><path class="cls-2" d="M1347.62,522.15h-.8v-1.29h1.06l.35-1.73h-1.41v-1.3h1.67l.46-2.28h1.32l-.47,2.28h1.3l.45-2.28h1.36l-.47,2.28h.81v1.3h-1.07l-.36,1.73h1.43v1.29h-1.69l-.46,2.28h-1.31l.45-2.28h-1.3l-.46,2.28h-1.33Zm1.92-3-.34,1.73h1.3l.34-1.73Z" transform="translate(-54.04 -88.14)"/><path class="cls-2" d="M1354.29,522.15h-.8v-1.29h1.06l.35-1.73h-1.41v-1.3h1.67l.47-2.28h1.31l-.46,2.28h1.29l.45-2.28h1.36l-.47,2.28h.81v1.3h-1.07l-.35,1.73h1.42v1.29h-1.69l-.46,2.28h-1.31l.46-2.28h-1.3l-.47,2.28h-1.32Zm1.93-3-.35,1.73h1.3l.34-1.73Z" transform="translate(-54.04 -88.14)"/><path class="cls-2" d="M1361,522.15h-.79v-1.29h1l.35-1.73h-1.4v-1.3h1.67l.46-2.28h1.31l-.46,2.28h1.3l.45-2.28h1.36l-.47,2.28h.81v1.3h-1.08l-.35,1.73h1.43v1.29h-1.69l-.46,2.28h-1.31l.45-2.28h-1.3l-.46,2.28h-1.33Zm1.93-3-.34,1.73h1.3l.34-1.73Z" transform="translate(-54.04 -88.14)"/><path class="cls-2" d="M1367.64,522.15h-.8v-1.29h1.06l.35-1.73h-1.41v-1.3h1.67l.46-2.28h1.32l-.47,2.28h1.3l.45-2.28h1.36l-.47,2.28h.81v1.3h-1.07l-.35,1.73h1.42v1.29h-1.69l-.46,2.28h-1.31l.45-2.28H1369l-.46,2.28h-1.32Zm1.93-3-.35,1.73h1.3l.34-1.73Z" transform="translate(-54.04 -88.14)"/><path class="cls-2" d="M1374.31,522.15h-.79v-1.29h1l.35-1.73h-1.4v-1.3h1.67l.46-2.28H1377l-.46,2.28h1.29l.45-2.28h1.36l-.47,2.28h.81v1.3h-1.07l-.35,1.73h1.42v1.29h-1.68l-.47,2.28h-1.3l.45-2.28h-1.3l-.47,2.28h-1.32Zm1.93-3-.35,1.73h1.31l.34-1.73Z" transform="translate(-54.04 -88.14)"/><path class="cls-2" d="M1381,522.15h-.8v-1.29h1l.36-1.73h-1.41v-1.3h1.67l.46-2.28h1.31l-.46,2.28h1.3l.45-2.28h1.36l-.47,2.28h.81v1.3h-1.08l-.35,1.73h1.43v1.29h-1.69l-.46,2.28h-1.31l.45-2.28h-1.3l-.46,2.28h-1.33Zm1.92-3-.34,1.73h1.3l.34-1.73Z" transform="translate(-54.04 -88.14)"/><path class="cls-2" d="M1387.66,522.15h-.8v-1.29h1.06l.35-1.73h-1.41v-1.3h1.67l.47-2.28h1.31l-.46,2.28h1.29l.45-2.28H1393l-.47,2.28h.81v1.3h-1.07l-.35,1.73h1.42v1.29h-1.69l-.46,2.28h-1.31l.46-2.28H1389l-.46,2.28h-1.32Zm1.93-3-.35,1.73h1.3l.34-1.73Z" transform="translate(-54.04 -88.14)"/><path class="cls-2" d="M1394.33,522.15h-.79v-1.29h1l.35-1.73h-1.4v-1.3h1.67l.46-2.28H1397l-.46,2.28h1.29l.46-2.28h1.35l-.46,2.28h.8v1.3h-1.07l-.35,1.73H1400v1.29h-1.68l-.47,2.28h-1.3l.45-2.28h-1.3l-.46,2.28h-1.33Zm1.93-3-.34,1.73h1.3l.34-1.73Z" transform="translate(-54.04 -88.14)"/><path class="cls-2" d="M1497.62,472.15h-.8v-1.29h1.06l.35-1.73h-1.41v-1.3h1.67l.46-2.28h1.32l-.47,2.28h1.3l.45-2.28h1.36l-.47,2.28h.81v1.3h-1.07l-.36,1.73h1.43v1.29h-1.69l-.46,2.28h-1.31l.45-2.28h-1.3l-.46,2.28h-1.33Zm1.92-3-.34,1.73h1.3l.34-1.73Z" transform="translate(-54.04 -88.14)"/><path class="cls-2" d="M1504.29,472.15h-.8v-1.29h1.06l.35-1.73h-1.41v-1.3h1.67l.47-2.28h1.31l-.46,2.28h1.29l.45-2.28h1.36l-.47,2.28h.81v1.3h-1.07l-.35,1.73h1.42v1.29h-1.69l-.46,2.28h-1.31l.46-2.28h-1.3l-.47,2.28h-1.32Zm1.93-3-.35,1.73h1.3l.34-1.73Z" transform="translate(-54.04 -88.14)"/><path class="cls-2" d="M1511,472.15h-.79v-1.29h1l.35-1.73h-1.4v-1.3h1.67l.46-2.28h1.31l-.46,2.28h1.3l.45-2.28h1.36l-.47,2.28h.81v1.3h-1.08l-.35,1.73h1.43v1.29h-1.69l-.46,2.28h-1.31l.45-2.28h-1.3l-.46,2.28h-1.33Zm1.93-3-.34,1.73h1.3l.34-1.73Z" transform="translate(-54.04 -88.14)"/><path class="cls-2" d="M1517.64,472.15h-.8v-1.29h1.06l.35-1.73h-1.41v-1.3h1.67l.46-2.28h1.32l-.47,2.28h1.3l.45-2.28h1.36l-.47,2.28h.81v1.3h-1.07l-.35,1.73h1.42v1.29h-1.69l-.46,2.28h-1.31l.45-2.28H1519l-.46,2.28h-1.32Zm1.93-3-.35,1.73h1.3l.34-1.73Z" transform="translate(-54.04 -88.14)"/><path class="cls-2" d="M1524.31,472.15h-.79v-1.29h1l.35-1.73h-1.4v-1.3h1.67l.46-2.28H1527l-.46,2.28h1.29l.45-2.28h1.36l-.47,2.28h.81v1.3h-1.07l-.35,1.73h1.42v1.29h-1.68l-.47,2.28h-1.3l.45-2.28h-1.3l-.47,2.28h-1.32Zm1.93-3-.35,1.73h1.31l.34-1.73Z" transform="translate(-54.04 -88.14)"/><path class="cls-2" d="M1531,472.15h-.8v-1.29h1l.36-1.73h-1.41v-1.3h1.67l.46-2.28h1.31l-.46,2.28h1.3l.45-2.28h1.36l-.47,2.28h.81v1.3h-1.08l-.35,1.73h1.43v1.29h-1.69l-.46,2.28h-1.31l.45-2.28h-1.3l-.46,2.28h-1.33Zm1.92-3-.34,1.73h1.3l.34-1.73Z" transform="translate(-54.04 -88.14)"/><path class="cls-2" d="M1537.66,472.15h-.8v-1.29h1.06l.35-1.73h-1.41v-1.3h1.67l.47-2.28h1.31l-.46,2.28h1.29l.45-2.28H1543l-.47,2.28h.81v1.3h-1.07l-.35,1.73h1.42v1.29h-1.69l-.46,2.28h-1.31l.46-2.28H1539l-.46,2.28h-1.32Zm1.93-3-.35,1.73h1.3l.34-1.73Z" transform="translate(-54.04 -88.14)"/><path class="cls-2" d="M1544.33,472.15h-.79v-1.29h1l.35-1.73h-1.4v-1.3h1.67l.46-2.28H1547l-.46,2.28h1.29l.46-2.28h1.35l-.46,2.28h.8v1.3h-1.07l-.35,1.73H1550v1.29h-1.68l-.47,2.28h-1.3l.45-2.28h-1.3l-.46,2.28h-1.33Zm1.93-3-.34,1.73h1.3l.34-1.73Z" transform="translate(-54.04 -88.14)"/><path class="cls-2" d="M1647.62,422.15h-.8v-1.29h1.06l.35-1.73h-1.41v-1.3h1.67l.46-2.28h1.32l-.47,2.28h1.3l.45-2.28h1.36l-.47,2.28h.81v1.3h-1.07l-.36,1.73h1.43v1.29h-1.69l-.46,2.28h-1.31l.45-2.28h-1.3l-.46,2.28h-1.33Zm1.92-3-.34,1.73h1.3l.34-1.73Z" transform="translate(-54.04 -88.14)"/><path class="cls-2" d="M1654.29,422.15h-.8v-1.29h1.06l.35-1.73h-1.41v-1.3h1.67l.47-2.28h1.31l-.46,2.28h1.29l.45-2.28h1.36l-.47,2.28h.81v1.3h-1.07l-.35,1.73h1.42v1.29h-1.69l-.46,2.28h-1.31l.46-2.28h-1.3l-.47,2.28h-1.32Zm1.93-3-.35,1.73h1.3l.34-1.73Z" transform="translate(-54.04 -88.14)"/><path class="cls-2" d="M1661,422.15h-.79v-1.29h1l.35-1.73h-1.4v-1.3h1.67l.46-2.28h1.31l-.46,2.28h1.3l.45-2.28h1.36l-.47,2.28h.81v1.3h-1.08l-.35,1.73h1.43v1.29h-1.69l-.46,2.28h-1.31l.45-2.28h-1.3l-.46,2.28h-1.33Zm1.93-3-.34,1.73h1.3l.34-1.73Z" transform="translate(-54.04 -88.14)"/><path class="cls-2" d="M1667.64,422.15h-.8v-1.29h1.06l.35-1.73h-1.41v-1.3h1.67l.46-2.28h1.32l-.47,2.28h1.3l.45-2.28h1.36l-.47,2.28h.81v1.3h-1.07l-.35,1.73h1.42v1.29h-1.69l-.46,2.28h-1.31l.45-2.28H1669l-.46,2.28h-1.32Zm1.93-3-.35,1.73h1.3l.34-1.73Z" transform="translate(-54.04 -88.14)"/><path class="cls-2" d="M1674.31,422.15h-.79v-1.29h1l.35-1.73h-1.4v-1.3h1.67l.46-2.28H1677l-.46,2.28h1.29l.45-2.28h1.36l-.47,2.28h.81v1.3h-1.07l-.35,1.73h1.42v1.29h-1.68l-.47,2.28h-1.3l.45-2.28h-1.3l-.47,2.28h-1.32Zm1.93-3-.35,1.73h1.31l.34-1.73Z" transform="translate(-54.04 -88.14)"/><path class="cls-2" d="M1681,422.15h-.8v-1.29h1l.36-1.73h-1.41v-1.3h1.67l.46-2.28h1.31l-.46,2.28h1.3l.45-2.28h1.36l-.47,2.28h.81v1.3h-1.08l-.35,1.73h1.43v1.29h-1.69l-.46,2.28h-1.31l.45-2.28h-1.3l-.46,2.28h-1.33Zm1.92-3-.34,1.73h1.3l.34-1.73Z" transform="translate(-54.04 -88.14)"/><path class="cls-2" d="M1687.66,422.15h-.8v-1.29h1.06l.35-1.73h-1.41v-1.3h1.67l.47-2.28h1.31l-.46,2.28h1.29l.45-2.28H1693l-.47,2.28h.81v1.3h-1.07l-.35,1.73h1.42v1.29h-1.69l-.46,2.28h-1.31l.46-2.28H1689l-.46,2.28h-1.32Zm1.93-3-.35,1.73h1.3l.34-1.73Z" transform="translate(-54.04 -88.14)"/><path class="cls-2" d="M1694.33,422.15h-.79v-1.29h1l.35-1.73h-1.4v-1.3h1.67l.46-2.28H1697l-.46,2.28h1.29l.46-2.28h1.35l-.46,2.28h.8v1.3h-1.07l-.35,1.73H1700v1.29h-1.68l-.47,2.28h-1.3l.45-2.28h-1.3l-.46,2.28h-1.33Zm1.93-3-.34,1.73h1.3l.34-1.73Z" transform="translate(-54.04 -88.14)"/></g><g id="learned-skills"><polygon class="cls-3" points="394.42 717.41 388.96 656.14 448.96 656.14 443.5 717.39 418.91 724.21 394.42 717.41"/><polygon class="cls-4" points="418.96 719.01 438.81 713.51 443.5 661.15 418.96 661.15 418.96 719.01"/><polygon class="cls-5" points="418.96 683.88 409 683.88 408.32 676.19 418.96 676.19 418.96 668.68 418.93 668.68 400.11 668.68 400.3 670.68 402.13 691.39 418.96 691.39 418.96 683.88"/><polygon class="cls-5" points="418.96 703.39 418.93 703.41 410.56 701.13 410.01 695.15 405.94 695.15 402.49 695.15 403.52 706.94 418.93 711.22 418.96 711.2 418.96 703.39"/><path class="cls-3" d="M448.58,727.65h3.81v3.76h3.48v-3.76h3.81v11.41h-3.81v-3.84h-3.48v3.84h-3.81V727.65Z" transform="translate(-54.04 -88.14)"/><path class="cls-3" d="M464.72,731.44h-3.37v-3.79h10.54v3.79h-3.36v7.62h-3.81v-7.62Z" transform="translate(-54.04 -88.14)"/><path class="cls-3" d="M473.59,727.65h4l2.45,4,2.45-4h4v11.41h-3.79v-5.65L480,737.48h-.07l-2.63-4.07v5.67h-3.75V727.65Z" transform="translate(-54.04 -88.14)"/><path class="cls-3" d="M488.34,727.65h3.81v7.64h5.37v3.77h-9.18Z" transform="translate(-54.04 -88.14)"/><polygon class="cls-6" points="418.93 683.88 418.93 691.39 428.18 691.39 427.31 701.13 418.93 703.39 418.93 711.22 434.32 706.94 434.44 705.67 436.2 685.91 436.39 683.88 434.37 683.88 418.93 683.88"/><polygon class="cls-6" points="418.93 668.68 418.93 673.34 418.93 676.16 418.93 676.19 437.05 676.19 437.05 676.19 437.07 676.19 437.24 674.5 437.57 670.68 437.76 668.68 418.93 668.68"/><polygon class="cls-7" points="545.41 667.41 539.96 606.14 599.96 606.14 594.5 667.39 569.91 674.21 545.41 667.41"/><polygon class="cls-8" points="569.96 669.01 589.82 663.51 594.5 611.15 569.96 611.15 569.96 669.01"/><polygon class="cls-5" points="550.45 625.29 549.72 618.21 590.19 618.21 589.72 626.42 572.62 633.98 589.01 633.98 587.25 657.27 570.71 661.72 553.56 657.55 552.5 645.74 560.07 645.74 560.5 651.98 570.43 653.84 579.6 651.01 580.03 641.04 551.84 641.04 551.32 633.62 569.96 625.46 550.45 625.29"/><polygon class="cls-9" points="551.32 633.62 551.84 641.04 569.96 641.04 569.96 625.46 551.32 633.62"/><polygon class="cls-9" points="560.5 651.98 560.07 645.74 552.5 645.74 553.56 657.55 569.96 661.53 569.96 653.74 560.5 651.98"/><polygon class="cls-9" points="549.72 618.21 550.45 625.29 569.96 625.46 569.96 618.21 549.72 618.21"/><polygon class="cls-7" points="575.6 592.33 575.6 589.51 564.31 589.51 564.31 596.1 572.07 596.1 572.07 598.21 564.07 598.21 564.07 600.8 575.37 600.8 575.37 593.98 567.37 593.98 567.37 592.33 575.6 592.33"/><polygon class="cls-7" points="555.13 596.16 555.13 598.21 563.13 598.21 563.13 600.8 551.84 600.8 551.84 594.05 551.84 589.51 562.9 589.51 562.9 592.33 555.13 592.33 555.13 596.16"/><polygon class="cls-7" points="588.07 592.33 588.07 589.51 576.78 589.51 576.78 596.1 584.54 596.1 584.54 598.21 576.54 598.21 576.54 600.8 587.84 600.8 587.84 593.98 579.84 593.98 579.84 592.33 588.07 592.33"/><path class="cls-10" d="M921.83,601.16c-15.23,0-14.28,6.61-14.28,6.61v6.84h14.53v2H901.8s-9.75-1.1-9.75,14.26,8.51,14.82,8.51,14.82h5.07v-7.12s-.27-8.51,8.36-8.51h14.42s8.09.13,8.09-7.83V609.13S937.74,601.16,921.83,601.16Zm-8,4.6a2.62,2.62,0,1,1-2.61,2.62A2.61,2.61,0,0,1,913.82,605.76Z" transform="translate(-54.04 -88.14)"/><path class="cls-11" d="M922.26,660.84c15.23,0,14.28-6.61,14.28-6.61v-6.84H922v-2h20.3s9.75,1.1,9.75-14.26-8.51-14.82-8.51-14.82h-5.07v7.12s.27,8.51-8.36,8.51H915.69s-8.09-.13-8.09,7.83v13.15S906.34,660.84,922.26,660.84Zm8-4.6a2.62,2.62,0,1,1,2.61-2.62A2.61,2.61,0,0,1,930.27,656.24Z" transform="translate(-54.04 -88.14)"/><ellipse class="cls-12" cx="719.96" cy="607.86" rx="30" ry="15.77"/><ellipse class="cls-13" cx="719.96" cy="607.86" rx="28.83" ry="14.6"/><path class="cls-6" d="M779.84,700.73l1.43-7.35c.32-1.67,0-2.91-.8-3.68s-2.23-1.13-4.29-1.13H773.7l.7-3.66a.46.46,0,0,0-.1-.39.41.41,0,0,0-.35-.17h-3.42a.49.49,0,0,0-.47.38l-1.52,7.8a4.19,4.19,0,0,0-1-2.25,6,6,0,0,0-4.71-1.73h-6.59a.48.48,0,0,0-.47.37l-3.07,15.85a.46.46,0,0,0,.1.39.41.41,0,0,0,.35.17h3.44A.48.48,0,0,0,757,705l.75-3.82h2.56a11.3,11.3,0,0,0,3.35-.42,6.64,6.64,0,0,0,2.46-1.48,7.31,7.31,0,0,0,1.45-1.8l-.61,3.16a.48.48,0,0,0,.1.4.41.41,0,0,0,.35.17h3.42a.49.49,0,0,0,.47-.38l1.69-8.67h2.34c1,0,1.29.19,1.38.28s.21.35,0,1.22l-1.36,7a.52.52,0,0,0,.09.4.44.44,0,0,0,.35.16h3.52A.66.66,0,0,0,779.84,700.73ZM764,694.64A3.72,3.72,0,0,1,762.8,697a4.72,4.72,0,0,1-2.82.68h-1.52l1.1-5.67h2c1.45,0,2,.31,2.27.56A2.67,2.67,0,0,1,764,694.64Z" transform="translate(-54.04 -88.14)"/><path class="cls-6" d="M794.46,690.28a6,6,0,0,0-4.71-1.73h-6.63a.47.47,0,0,0-.47.37l-3.07,15.82a.48.48,0,0,0,.09.4.42.42,0,0,0,.35.16h3.45a.48.48,0,0,0,.47-.37l.75-3.82h2.55a11.21,11.21,0,0,0,3.35-.42,6.62,6.62,0,0,0,2.46-1.48,7.35,7.35,0,0,0,1.5-1.87,7.55,7.55,0,0,0,.82-2.25A5.42,5.42,0,0,0,794.46,690.28Zm-3.58,4.36a3.73,3.73,0,0,1-1.2,2.34,4.71,4.71,0,0,1-2.81.68h-1.53l1.11-5.67h2c1.46,0,2,.31,2.28.56A2.5,2.5,0,0,1,790.88,694.64Z" transform="translate(-54.04 -88.14)"/><path class="cls-14" d="M761.53,691.52a3.55,3.55,0,0,1,2.63.73,2.81,2.81,0,0,1,.3,2.48,4.16,4.16,0,0,1-1.38,2.63,5.08,5.08,0,0,1-3.1.77H757.9l1.29-6.61Zm-8.39,13.32h3.45l.82-4.2h3a10.28,10.28,0,0,0,3.21-.42,6.31,6.31,0,0,0,2.3-1.38,7.18,7.18,0,0,0,1.4-1.76A6.62,6.62,0,0,0,768,695a4.86,4.86,0,0,0-.82-4.38,5.44,5.44,0,0,0-4.36-1.57h-6.63Z" transform="translate(-54.04 -88.14)"/><path class="cls-14" d="M770.55,684.82H774l-.82,4.2h3c1.92,0,3.24.32,4,1s.94,1.76.66,3.26l-1.43,7.36h-3.47l1.36-7a1.87,1.87,0,0,0-.16-1.61,2.38,2.38,0,0,0-1.71-.45h-2.75l-1.75,9.07h-3.43Z" transform="translate(-54.04 -88.14)"/><path class="cls-14" d="M788.41,691.52a3.53,3.53,0,0,1,2.63.73,2.81,2.81,0,0,1,.3,2.48,4.16,4.16,0,0,1-1.38,2.63,5.06,5.06,0,0,1-3.09.77h-2.09l1.29-6.61ZM780,704.84h3.45l.82-4.2h3a10.28,10.28,0,0,0,3.21-.42,6.15,6.15,0,0,0,2.3-1.38,7.23,7.23,0,0,0,1.41-1.76,6.87,6.87,0,0,0,.75-2.11,4.92,4.92,0,0,0-.82-4.38,5.47,5.47,0,0,0-4.36-1.57h-6.64Z" transform="translate(-54.04 -88.14)"/><rect class="cls-15" x="1139.96" y="413.86" width="60" height="60"/><path d="M1209.77,552.14l4.6-2.77c.89,1.57,1.68,2.89,3.62,2.89s3-.72,3-3.54V529.55h5.64V548.8c0,5.84-3.42,8.5-8.42,8.5a8.77,8.77,0,0,1-8.46-5.16" transform="translate(-54.04 -88.14)"/><path d="M1229.72,551.54l4.59-2.66c1.21,2,2.78,3.42,5.56,3.42,2.33,0,3.82-1.17,3.82-2.78,0-1.93-1.54-2.61-4.12-3.75l-1.4-.61c-4.07-1.73-6.76-3.9-6.76-8.5,0-4.23,3.22-7.45,8.26-7.45,3.58,0,6.16,1.25,8,4.51l-4.39,2.83c-1-1.74-2-2.42-3.62-2.42a2.46,2.46,0,0,0-2.7,2.42c0,1.68,1,2.38,3.47,3.42l1.41.61c4.79,2,7.49,4.15,7.49,8.86,0,5.07-4,7.85-9.34,7.85s-8.63-2.5-10.28-5.75" transform="translate(-54.04 -88.14)"/><rect class="cls-16" x="995.01" y="473.91" width="50" height="50" rx="1.95"/><path class="cls-6" d="M1072.31,565.08h7.19v33a47.32,47.32,0,0,1-9.33,1c-8.79,0-13.36-3.93-13.36-11.47,0-7.26,4.85-12,12.36-12a11.88,11.88,0,0,1,3.13.36V565.08Zm.26,16.8a7.39,7.39,0,0,0-2.43-.37c-3.64,0-5.74,2.22-5.74,6.11s2,5.88,5.7,5.88a18,18,0,0,0,2.47-.18Z" transform="translate(-54.04 -88.14)"/><path class="cls-6" d="M1091.27,576.46V593c0,5.68-.43,8.41-1.67,10.77s-2.7,3.7-5.88,5.28l-6.67-3.15c3.17-1.48,4.71-2.78,5.69-4.77s1.36-4.39,1.36-10.59v-14Z" transform="translate(-54.04 -88.14)"/><rect class="cls-6" x="1029.32" y="476.94" width="7.19" height="7.31"/><path class="cls-17" d="M1108.69,532.92c-1.35-.93-4.46-1.29-6.87-.82a9.44,9.44,0,0,0-3.83-6.21l-1.29-.94-.91,1.35a11.22,11.22,0,0,0-1.52,6.56,7.94,7.94,0,0,0,1.18,3.58,9.35,9.35,0,0,1-4.56,1h-40.7l-.11.47a21,21,0,0,0,4.22,15.3c3.49,4.27,8.67,6.44,15.48,6.44,14.75,0,25.67-7.09,30.8-19.92,2,.06,6.36,0,8.55-4.4.06-.11.16-.35.56-1.23l.23-.47Zm-26-16.52h-6.19v5.86h6.19Zm0,7h-6.19v5.86h6.19Zm-7.33,0h-6.18v5.86h6.18Zm-7.31,0h-6.19v5.86h6.19Zm-7.32,7h-6.19v5.86h6.19Zm7.32,0h-6.19v5.86h6.19Zm7.31,0h-6.18v5.86h6.18Zm7.33,0h-6.19v5.86h6.19Zm7.31,0h-6.19v5.86h6.19Z" transform="translate(-54.04 -88.14)"/><circle class="cls-18" cx="1203.48" cy="624.73" r="6.74"/><path class="cls-19" d="M1261.19,699.67a75.53,75.53,0,0,1,22,9.74c6.65,4.58,10.11,9.67,9.14,13.15s-6.94,6.36-15.56,6.78c-6.52.31-14.67-.84-22.94-3.15-8.48-2.36-16.24-5.56-21.71-9.31-6.91-4.74-10.36-10.15-9.37-13.7s6.34-6,14.29-6.56c6.72-.43,15.37.6,24.17,3Z" transform="translate(-54.04 -88.14)"/><path class="cls-19" d="M1247.86,703.11a75.37,75.37,0,0,1,19.41-14.18c7.29-3.47,13.43-3.91,16-1.34s2,9.19-1.9,16.87c-3,5.81-8.06,12.29-14.19,18.3-6.28,6.17-12.94,11.29-18.91,14.15-7.56,3.62-14,3.91-16.55,1.28s-2.08-8.52,1.45-15.66c3-6,8.21-13,14.73-19.42Z" transform="translate(-54.04 -88.14)"/><path class="cls-19" d="M1244.17,716.38a75.59,75.59,0,0,1-2.58-23.9c.63-8.05,3.31-13.59,6.8-14.49s9,2.81,13.67,10.07c3.54,5.49,6.62,13.11,8.77,21.43,2.2,8.52,3.32,16.84,2.81,23.45-.64,8.35-3.59,14-7.16,15s-8.41-2.45-12.84-9.08c-3.74-5.6-7.18-13.61-9.47-22.45Z" transform="translate(-54.04 -88.14)"/><path class="cls-20" d="M1267.37,722.33a4.65,4.65,0,0,0,2-9.06l-.16,0a4.63,4.63,0,0,0-5.59,3.42,4.77,4.77,0,0,0,.46,3.31c-4.2,4.58-9.43,7.33-16.56,8.87a22.37,22.37,0,0,1-13.67-1.15,11.49,11.49,0,0,1-6.82-7,12.16,12.16,0,0,1,2.8-12.53,19.47,19.47,0,0,1,7.2-4.86c0-1.13,0-3,.09-4.35-13.88,5.15-15.84,16.79-13.82,23.11,1.52,4.72,6.17,8.67,12.07,10.32a20.21,20.21,0,0,0,4.93.77,31.73,31.73,0,0,0,27.07-10.84Zm16.77-6c-4.08-8.78-11.91-15.17-22.11-18l-1.28-.36a4.57,4.57,0,0,0-3.24-3.48l-.16,0a4.63,4.63,0,0,0-2.32,9l.15,0a4.64,4.64,0,0,0,4.66-1.62l1.44.4a31.6,31.6,0,0,1,15.53,9.91,22.17,22.17,0,0,1,5.61,12.55,11.49,11.49,0,0,1-2.78,9.36,12.15,12.15,0,0,1-12.74,3.49,20.8,20.8,0,0,1-7.34-3.85,45.26,45.26,0,0,1-4.39,1.87,25.52,25.52,0,0,0,9.59,5.34c7.65,2.13,14.49-.52,17.81-4.14,3.6-4,5.66-12,1.57-20.43Zm-43.61,0a4.65,4.65,0,0,0,3.27,5.54l.16,0a4.63,4.63,0,0,0,2.32-9l-.16-.05a1.41,1.41,0,0,0-.58-.07,30.34,30.34,0,0,1,.79-18.85,22.21,22.21,0,0,1,8.14-11c3.13-2.3,8-2.5,11-1.73,8.49,2.19,9.15,13.71,8.21,18,1,.53,2.57,1.57,3.65,2.3,2.64-13.17-3.46-22.09-11.11-24.22-7.17-2-15.23,1.34-20,8.26-6.51,9.18-6.85,19.65-4.54,28.62a3.78,3.78,0,0,0-1.2,2.16Z" transform="translate(-54.04 -88.14)"/></g><g id="stairs-2" data-name="stairs"><rect class="cls-21" x="1203.86" y="782.86" width="30" height="7" rx="2.5"/><rect class="cls-21" x="1222.36" y="729.86" width="30" height="7" rx="2.5"/><rect class="cls-21" x="1242.36" y="676.86" width="30" height="7" rx="2.5"/><rect class="cls-21" x="1262.36" y="626.86" width="30" height="7" rx="2.5"/><rect class="cls-21" x="1279.86" y="576.86" width="30" height="7" rx="2.5"/><rect class="cls-21" x="1313.36" y="548.36" width="50" height="6.25" rx="1.25"/><path class="cls-21" d="M1259.81,928h-4c-.83,0-1.24-.67-.93-1.5l156.24-407a2.42,2.42,0,0,1,2.07-1.5h4c.83,0,1.24.67.93,1.5l-156.24,407A2.42,2.42,0,0,1,1259.81,928Z" transform="translate(-54.04 -88.14)"/><path class="cls-21" d="M1526.1,934h-4a2.37,2.37,0,0,1-2-1.5l-128.12-352a1,1,0,0,1,1-1.5h4a2.37,2.37,0,0,1,2,1.5l128.12,352A1,1,0,0,1,1526.1,934Z" transform="translate(-54.04 -88.14)"/><path class="cls-21" d="M1307.8,669.09a17,17,0,0,0,1.19-4c.19-1.43.06-2.22.41-2.36.64-.26,1.44,2.33,3.52,3.84,3.07,2.23,7.59,1.16,12.07.1a49.58,49.58,0,0,0,6.17-2c3.3-1.23,6.25-2.57,8.32-3.52,3.13-1.44,2.85-1.42,4.16-1.92,3.91-1.5,5.19-.9,6.72-2.24,1.85-1.63,2.71-4.83,1.6-6.08s-4.94-.59-7,1.28c-1.61,1.43-1.21,2.63-3.2,4.16a15,15,0,0,1-3.2,1.6c-2.78,1.2-4.8,1.92-4.8,1.92-1.08.39-4.29,1.52-10.24,3.2-3.75,1.06-4.58,1.2-5.76,1a7.74,7.74,0,0,1-4.8-3.2c-1.1-1.76-1-3.73-.69-7.68.23-3.32.82-4.93.25-7.09a14.7,14.7,0,0,1-.52-2.51c-.12-1.13,0-1.26-.15-2.67a16.38,16.38,0,0,1-.17-3.09c.1-2,.38-3.4.38-4.37a6.64,6.64,0,0,0,2.35-1.13c3-2.33,2.92-6.78,2.82-14.14a37.34,37.34,0,0,0-1-9c-1-4-1.86-7.59-4.94-10.74a14.8,14.8,0,0,0-8.27-4.44c-1-.16-6-.95-9.74,2-6.1,4.9-3.37,15.66-2.76,17.77.75,2.65,1.87,4.51,4.11,8.23,3.41,5.66,5.17,8.58,8.74,10.28a15.52,15.52,0,0,0,5.31,1.42c0,.57,0,1.4,0,2.75-.09,3.19-.44,4.29-1.1,5.17a4.15,4.15,0,0,1-.76.79c-.9.69-1.93.74-3.72,1.77-3,1.71-2.94,3.45-6.4,7a43.82,43.82,0,0,1-5.44,4.48c-7.94,6-8.42,4.72-10.94,7.4-3.7,3.94-6.41,10.33-6.66,14.36a10.54,10.54,0,0,1-1,4.16c-1.18,3-2.54,3.59-2.64,5.58s1.09,4.38,2.64,4.66c1.88.34,4.17-2.46,4.8-5.12s-1-3.52-1-7,1.58-6,3.52-9.28a28.55,28.55,0,0,1,4.48-5.76,32.16,32.16,0,0,1,7-5.12c2.81-1.52,2.77-1,4.8-2.24s3.6-2.85,6.67-6c2.88-3,3.83-4.2,4.4-3.92s.24,1.36-.19,5.12c-.65,5.62-.36,5.79-1,8.32-.49,2.07-1.22,4.27-1.6,5.44s-.68,2-1.6,4.48c-1.59,4.34-2.38,6.5-2.56,7-.56,1.7-1.12,3.7-2.24,7.68-.4,1.43-.72,2.58-1.28,4.48-.86,2.9-.84,2.63-1,3.2-.41,2-.1,2.87,0,6.72v10.88s0,1.17,0,7.68c0,2.71,0,3,0,4.16,0,.18,0,.69-.09,1.36,0,.41-.18,2.21-.55,4.4a51.39,51.39,0,0,1-1.6,6.72c-.63,2-.84,2.19-2.24,5.76-2.94,7.51-2.27,7.35-3.84,10.24-1.36,2.51-2.23,3.29-2.56,5.44a8.57,8.57,0,0,0,.64,5.12,9.91,9.91,0,0,0,4.48,4.16,18,18,0,0,0,6.08,1.92c3.64.72,4.47.22,4.79,0a4,4,0,0,0,1.29-3.18c-.11-2.22-2.07-3.72-3.52-4.8-3.38-2.52-5.33-1.84-6.72-3.84-1.21-1.75-.88-3.91-.64-5.44.67-4.31,3.92-8.44,4.48-10.56.12-.45.36-1.46.8-2.94.59-2,1.12-3.51,1.34-4.15,0-.11.07-.18.08-.22l0,0c4.53-12.69,2.52-27.82,2.52-27.82-.36-2.72-.24-5.49-.39-8.24s-.26-4.43.75-5.22c1.46-1.14,4.8-.32,4.8-.32s3.51-2.07,7-4.48c2.7-1.84,3.32-2.46,5.12-3.2,1.62-.67,3.59-1.49,4.8-.64,1,.72,1,2.28,1,4.8,0,3.41.08,6.83,0,10.24-.2,8.19.27,6.16,0,9.6-.24,3.11-.6,4.48.32,5.76.63.87,1.55,1.25,6.08,1.92,8.42,1.25,9.93.61,10.88,0a5.37,5.37,0,0,0,2.56-3.52,4.83,4.83,0,0,0-1.92-4.48c-.48-.35-1.75-1.1-6.08-.32-5.36,1-6.42,2.64-7.68,1.92-1.61-.93-.37-4-.32-14.4,0-5-.26-5,0-7.68.19-2,.43-3,0-4.48a7.41,7.41,0,0,0-3.52-4.48c-2.27-1.12-4.58-.43-7,.32a23.3,23.3,0,0,0-5.44,2.56c-5.5,3.27-7.1,5.65-8,5.12-1.27-.78.73-6.53,1.9-9.92C1307.31,670.44,1307.8,669.09,1307.8,669.09Zm-7.06-43.28a45.5,45.5,0,0,1-4.82-6.73c-2.72-4.53-4.08-6.8-4.44-10a12.35,12.35,0,0,1,1-7.33c1.86-3.6,6.18-6.72,10.49-6,3.12.5,5.12,2.82,6.23,4.11.4.46,1.27,1.52,3.6,6.94a54,54,0,0,1,2.65,6.67,22.61,22.61,0,0,1-.08,10.81c-.59,2.56-1,4-2.31,5.14-2.59,2.17-6.33,1.14-6.68,1C1304.29,629.82,1303.08,628.47,1300.74,625.81Z" transform="translate(-54.04 -88.14)"/><path class="cls-21" d="M1289,604c.86-.12,1.31.34,2,0,1.33-.65,1.84-3.31,1-4-1-.81-3.8,1.16-5,2-1.8,1.26-3.2,2.2-4,4-1,2.33-.66,4.48,0,8,1.21,6.43,2.1,6.44,2,9-.23,5.9-5.5,9.53-5,10s4.35-2.23,6-6a11.33,11.33,0,0,0,1-5,24,24,0,0,0-1-5c-1-4.16-1.49-6.24-1-8C1285.58,606.9,1287,604.27,1289,604Z" transform="translate(-54.04 -88.14)"/></g><g id="left-skills"><polygon class="cls-22" points="1625.8 862.18 1648.22 840.16 1680.16 836.78 1692.16 874.38 1674.97 897.89 1646.36 895.81 1625.8 862.18"/><polygon class="cls-23" points="1680.16 836.78 1648.22 840.16 1674.97 897.89 1692.17 874.41 1680.16 836.78"/><path class="cls-6" d="M1705.43,935h0l.52,45,6.2-3-.53-10,7.15-3.32h0l7.85-3.63,7.61,6.8,6-2.67Zm5.57,11.92,11.14,9.2-5.43,2.52-.28.13-4.94,2.28Z" transform="translate(-54.04 -88.14)"/><path class="cls-24" d="M1507,942.86h0a6.28,6.28,0,0,0-2.46-4.2l-.06-.06h0l-.07-.06h0l-.76-.55,0,0-.1-.07h0l-.11,0c-2.41-1.44-6.4-2.44-12.5-.29-1.46-2.45-1.62-4.41-.65-7.42a.77.77,0,0,0-.5-1.09,5.77,5.77,0,0,0-3.49.05,1,1,0,0,0-.85.79c-.64,3-2.51,5.76-4.32,8.41l-.1.16a7.73,7.73,0,0,1-.11-6.48.73.73,0,0,0-.4-1,5.66,5.66,0,0,0-3.7,0c-.9.26-1.87,2.71-3,5.64-.27.74-.5,1.37-.65,1.66-.33.68-.65,1.46-1,2.29a18.26,18.26,0,0,1-2.86,5.3c-.45-1,.26-2.55.94-4.07.81-1.79,1.58-3.48.7-4.57a1.66,1.66,0,0,0-1.14-.59,1.84,1.84,0,0,0-.84.14,4.89,4.89,0,0,0-.13-2.12,2.21,2.21,0,0,0-2.32-1.61c-2.63.08-4.85,2-6.25,3.67-.94,1.09-3,1.92-4.83,2.65-.72.31-1.4.58-2,.86a38.89,38.89,0,0,0-3.29-2.37c-3.41-2.29-7.29-4.89-7.42-8.42-.19-5.21,5.74-8.91,10.92-11.54a47.27,47.27,0,0,1,10.43-4c4.35-1,8-.81,10.92.61a3.53,3.53,0,0,1,1.85,4.2c-1.23,4.5-6.33,7.59-10.69,9a19.26,19.26,0,0,1-6.83,1.07,11.74,11.74,0,0,1-5.36-1.91,2.76,2.76,0,0,0-.44-.25h0a.43.43,0,0,0-.44.14.79.79,0,0,0,0,.71,6.55,6.55,0,0,0,5.16,4.13,12.36,12.36,0,0,0,2.57.24c6,0,13.76-3.48,16.59-6.35a12.73,12.73,0,0,0,3.92-7.43c.61-3.63-1.85-6.16-4.36-7.32-6.09-2.81-13-1.7-17.75-.27a47.52,47.52,0,0,0-15.71,8.33c-5.49,4.47-7.47,8.61-5.9,12.34s5.56,6.21,9.36,8.52c1.23.74,2.4,1.45,3.46,2.18l-1,.47c-3.2,1.55-6.83,3.29-8.84,6.18a6,6,0,0,0-.81,6.2,3.92,3.92,0,0,0,2.58,2.17,6.79,6.79,0,0,0,2,.26,13.32,13.32,0,0,0,6.39-1.84,10.55,10.55,0,0,0,4.82-6.27,9.9,9.9,0,0,0-.43-6.64l3.07-1.55c-1.48,4.92-.35,7.86.9,9.48a3.09,3.09,0,0,0,4.47,0,18.45,18.45,0,0,0,2.21-3.77,6,6,0,0,0,.3,2.48,2,2,0,0,0,1.26,1.27,2.3,2.3,0,0,0,2-.43c3-2.07,5.1-7.05,6.76-11.05l.69-1.63a20.32,20.32,0,0,0,1.71,4.25.46.46,0,0,1-.07.66c-.33.36-.79.8-1.28,1.26-1.47,1.4-3.31,3.15-3.55,4.68a1.16,1.16,0,0,0,1,1.31,8.83,8.83,0,0,0,6.38-1.54,4.52,4.52,0,0,0,2-5.09c-.46-2.06.58-4.61,3.09-7.6a14.11,14.11,0,0,0,1.71,4.31l0,0c-1.83,1.59-4.33,3.77-3.94,6.41a1.84,1.84,0,0,0,.77,1.26,1.93,1.93,0,0,0,1.53.29,9.35,9.35,0,0,0,5.49-3.09c1.31-1.57.83-3.32.39-4.67a15.5,15.5,0,0,1,9.31.07,5.74,5.74,0,0,1,3.41,2.68c.83,1.56.38,3-1.27,4.06-.51.32-.75.52-.77.77a.37.37,0,0,0,.14.3c.19.16.78.43,2.12-.41A4.29,4.29,0,0,0,1507,944,5.06,5.06,0,0,0,1507,942.86Zm-54.65,3.43v.17a7.63,7.63,0,0,1-3,5.2,6.85,6.85,0,0,1-3.45,1.58,2.27,2.27,0,0,1-1.66-.31,1.34,1.34,0,0,1-.41-1c-.22-3.48,5.24-7,8.32-8.08A6.94,6.94,0,0,1,1452.31,946.29Zm14-9.82h0c-.5,2.88-2,8.32-4.29,10.43-.12.1-.21.14-.25.13s-.08-.06-.11-.14c-.77-1.79-.49-4.82.68-7.2a6,6,0,0,1,3.63-3.42l.18,0a.22.22,0,0,1,.14,0A.25.25,0,0,1,1466.3,936.47ZM1477.72,947c-.44.45-1,.39-.89.22l2.22-2.35a4.67,4.67,0,0,1-1.33,2.13Zm9.21-2a2,2,0,0,1-.67.19c-.07-1.24,1.14-2.64,2.32-3.57a3.06,3.06,0,0,1-1.65,3.38Z" transform="translate(-54.04 -88.14)"/><polygon class="cls-25" points="1483.74 846.79 1461.76 880.02 1500.38 857.98 1483.96 816.24 1483.74 846.79"/><polygon class="cls-26" points="1500.43 857.92 1485.53 835.9 1482.16 852.77 1500.43 857.92"/><polygon class="cls-27" points="1500.47 857.9 1474.38 868.1 1461.88 879.91 1500.47 857.9"/><polygon class="cls-28" points="1461.91 879.89 1458.22 856.29 1445.84 865.92 1461.91 879.89"/><polygon class="cls-29" points="1482.19 852.83 1465.44 833 1456.41 856.52 1482.19 852.83"/><polygon class="cls-30" points="1485.86 823.51 1464.04 818.31 1466.51 834.5 1485.86 823.51"/><polygon class="cls-31" points="1470.15 809.73 1463.42 819.27 1455.13 816.93 1470.15 809.73"/><polygon class="cls-32" points="1445.55 874.6 1446 865.69 1438.83 858.84 1445.55 874.6"/><path class="cls-6" d="M1492.53,946.82l7.44,7.37,12.14-9.65,8.55-22-2.36-16L1509,905l-9.62,10.08c-2,5.24-5.9,15.53-6.11,15.78S1492.74,941.73,1492.53,946.82Z" transform="translate(-54.04 -88.14)"/><path class="cls-33" d="M1495.82,925.52c4.17-11.83,12.23-21.55,18.13-19.47s6.4,13.85,2.24,25.68-12,21.74-17.88,19.67S1491.64,937.35,1495.82,925.52Z" transform="translate(-54.04 -88.14)"/><path class="cls-34" d="M1516,968l-3.77-23.66L1536.1,941C1532,951.65,1526.57,961.6,1516,968Z" transform="translate(-54.04 -88.14)"/><path class="cls-35" d="M1520.68,922.51l15.5,18.47c3.07-9.6,5.26-19.39,3.78-29.45Z" transform="translate(-54.04 -88.14)"/><path class="cls-36" d="M1539.94,911.65c-1-7.45-4.94-16.88-15.8-13.74l-6,8.52Z" transform="translate(-54.04 -88.14)"/><path class="cls-37" d="M1499.55,962.64c5.42,10.45,13.14,6.92,16.44,5.43l-16-13.93Z" transform="translate(-54.04 -88.14)"/><path class="cls-38" d="M1520.73,922.52l19,1.89c.39,0,1-8.54,0-12.75Z" transform="translate(-54.04 -88.14)"/><path class="cls-39" d="M1512.18,944.37l16.12,12a59.91,59.91,0,0,0,7.76-15.37Z" transform="translate(-54.04 -88.14)"/><path class="cls-40" d="M1500,954.18l5.63,14.63c3.69,2,6.89.74,10-1C1510.43,963.09,1500.18,953.77,1500,954.18Z" transform="translate(-54.04 -88.14)"/><path class="cls-41" d="M1518.09,906.5l17.67-5.68c-2.69-3.32-6.58-4.41-11.57-2.93Z" transform="translate(-54.04 -88.14)"/><path class="cls-42" d="M1529,978.57l-3.07,1.49-3.33-2.16c-.25-.17-.49-.31-.7-.43a3.57,3.57,0,0,0-.61-.28,1.65,1.65,0,0,0-.55-.1,1,1,0,0,0-.51.11l-.73.35,2.21,4.55-2.68,1.3-5.75-11.88,4.24-2.06c2.88-1.4,4.85-1,5.89,1.14a3.91,3.91,0,0,1,.37,1.24,3.78,3.78,0,0,1-.08,1.21,3.88,3.88,0,0,1-.49,1.13,4.62,4.62,0,0,1-.87,1l0,0a2,2,0,0,1,.64,0,3.59,3.59,0,0,1,.69.2,7.4,7.4,0,0,1,.71.32c.23.12.45.25.65.38Zm-12.08-6.35,1.61,3.31,1.16-.56a2.16,2.16,0,0,0,1.14-1.17,1.85,1.85,0,0,0-.08-1.51c-.5-1-1.37-1.25-2.62-.65Z" transform="translate(-54.04 -88.14)"/><path class="cls-42" d="M1537.89,974.25l-2.61,1.27-.63-1.3,0,0a3.28,3.28,0,0,1-1.87,2.76q-2.94,1.43-4.68-2.14l-2.48-5.12,2.61-1.27,2.37,4.89c.58,1.2,1.35,1.57,2.3,1.11a1.54,1.54,0,0,0,.88-1,2.17,2.17,0,0,0-.22-1.54l-2.35-4.86,2.61-1.26Z" transform="translate(-54.04 -88.14)"/><path class="cls-42" d="M1542.27,970.92h0l.48,1-2.62,1.27L1534,960.62l2.62-1.27,2.59,5.36,0,0a3.47,3.47,0,0,1,2-2.82,3.39,3.39,0,0,1,3.08-.1,5.48,5.48,0,0,1,2.38,2.66,5.85,5.85,0,0,1,.61,3.91,3.75,3.75,0,0,1-2.15,2.62A3,3,0,0,1,1542.27,970.92Zm-1.81-3.55.42.87a2.15,2.15,0,0,0,1.13,1.13,1.69,1.69,0,0,0,1.47,0,1.74,1.74,0,0,0,1-1.36,3.67,3.67,0,0,0-.45-2.2,2.92,2.92,0,0,0-1.25-1.42,1.7,1.7,0,0,0-1.58,0,1.86,1.86,0,0,0-1,1.22A2.48,2.48,0,0,0,1540.46,967.37Z" transform="translate(-54.04 -88.14)"/><path class="cls-42" d="M1554.59,955.69l1,10.83q.36,3.91-2.15,5.13a5.62,5.62,0,0,1-1.67.54l-1-2.09a2.5,2.5,0,0,0,1.29-.24,1.58,1.58,0,0,0,.94-1.64l-.06-1.27-7.55-6.8,2.9-1.4,4.08,4.39a7.87,7.87,0,0,1,.79,1l0,0a7.67,7.67,0,0,1-.27-1.25L1552,957Z" transform="translate(-54.04 -88.14)"/><g id="layer1"><g id="g16337"><path id="path16197" class="cls-43" d="M1651.78,949.1l3.3,3,.81-4.4-7.82,2.17-1.46-1.32,9.44-2.57a1.18,1.18,0,0,1,1.12.31,1.25,1.25,0,0,1,.42,1.06L1656,957l-1.46-1.32.35-1.76-3.35-3Zm14.1,14.89,4.81-5.3-1.23-1.12-5.28,5.81a.83.83,0,0,0-.21.6.85.85,0,0,0,.28.59l5.64,5.13,1.76-.47Zm-19.59-19.54a2.93,2.93,0,1,0,4-4.34l-5.42-4.92-5.84,6.43,1.23,1.12,4.81-5.3,4.09,3.72a1.4,1.4,0,0,1-1.88,2.07l-3.49-3.17.77,6.58,1.79,1.63-.58-4.34.57.52Zm-14.92-9.75a4.35,4.35,0,1,1,5.85-6.44l3.73,3.39a4.35,4.35,0,1,1-5.85,6.44Zm4.68,2.18a2.81,2.81,0,1,0,3.78-4.15l-3.57-3.25a2.83,2.83,0,0,0-4,.19,2.8,2.8,0,0,0,.2,4Zm22.46,22.48a4.35,4.35,0,0,1,5.85-6.44l4.44,4-1.76.47-3.64-3.3a2.81,2.81,0,1,0-3.78,4.15l4.47,4.06-1.76.47-3.81-3.46ZM1674.67,972a2.8,2.8,0,0,1-.62-3.33l5.29,4.81,1.76-.47-6-5.47a2.82,2.82,0,0,1,3.37.3l3.63,3.3,1.76-.47-4.44-4a4.35,4.35,0,1,0-5.85,6.44l3.81,3.46,1.75-.47-4.45-4" transform="translate(-54.04 -88.14)"/><path id="path16199" class="cls-43" d="M1683.9,971.92a.76.76,0,1,1,0,1.08A.74.74,0,0,1,1683.9,971.92Zm-.1,1.23a1,1,0,1,0,1.32-1.45,1,1,0,0,0-1.38.08A1,1,0,0,0,1683.8,973.15Zm1-1.21a.54.54,0,0,1,.18.22.29.29,0,0,1,0,.37.14.14,0,0,1-.07.05.25.25,0,0,1-.23,0s0,0,0,0l-.13.5-.18-.16.11-.46-.11-.11-.28.31-.15-.14.73-.81Zm-.28.42c.06,0,.1.09.19.07s.06,0,.08-.06a.19.19,0,0,0,0-.15.68.68,0,0,0-.15-.15l0,0-.21.24.09.09" transform="translate(-54.04 -88.14)"/></g></g><path class="cls-44" d="M1571,969.26l-1.1,3.44-3.61-1.16,4.59-14.28c2.35.76,4.64,1.37,6.83,2.23,2.74,1.08,3.85,2.89,3.48,5.16-.46,2.81-2.18,4.52-5.36,5l3.21,5.22-.46.37c-1.63-.53-3.53-.7-4.81-1.68S1571.92,970.82,1571,969.26Zm4.69-3.39.79-2.46-3-1-.79,2.46Z" transform="translate(-54.04 -88.14)"/><path class="cls-44" d="M1588.75,978.38l.71-2.21-3.64-1.17-.87,2.15-3.56-1.14c1.2-3.72,2.32-7.41,3.59-11a2.64,2.64,0,0,1,3.15-1.83,40.43,40.43,0,0,1,6.46,2.31,2.39,2.39,0,0,1,1.36,2.92c-1.12,3.72-2.35,7.4-3.57,11.19Zm-.3-11.41-1.27,4c1,.3,1.82.64,2.73.84.3.07.9-.13,1-.37.44-1.08.76-2.23,1.1-3.28Z" transform="translate(-54.04 -88.14)"/><path class="cls-44" d="M1630.49,976.55l-1.17,3.65-6-1.94c-.82.92-.67,1.45.38,1.78s2,.64,3,1a2.78,2.78,0,0,1,1.95,3.23,15.89,15.89,0,0,1-1.39,4.12,2.65,2.65,0,0,1-3.25,1.35c-2.67-.76-5.29-1.68-8-2.56l1-3.15c1.71.55,3.4,1.1,5.09,1.63a3.41,3.41,0,0,0,1.22.3,5.6,5.6,0,0,0,1.37-.44c-.27-.38-.46-.91-.83-1.13-.77-.44-1.65-.69-2.46-1.06-2.46-1.14-3.5-3.28-2.77-5.65.83-2.68,2.61-3.84,5.45-3.19C1626.21,975,1628.32,975.85,1630.49,976.55Z" transform="translate(-54.04 -88.14)"/><path class="cls-44" d="M1614.77,982.87l-1.15,3.56-9.17-2.95,4.41-13.7,3.62,1.17-3.26,10.14Z" transform="translate(-54.04 -88.14)"/><path class="cls-44" d="M1596.42,980.66l4.39-13.64,3.73,1.2-4.39,13.64Z" transform="translate(-54.04 -88.14)"/><path class="cls-44" d="M1575.28,953.86c1.44-3.62,2.66-7.2,4.27-10.61,6-12.69,15-23.1,25.74-31.91,6.89-5.62,14.83-8.5,23.89-7.66a26.29,26.29,0,0,1,18.06,9.6c1.77,2.06,3.28,4.34,4.94,6.58l-1.78,1.44c-2.13-1.77-3.94-3.76-6.17-5-4.62-2.58-9.59-2-14.41-.44-9.32,3-15.1,9.6-18.33,18.63s-4,18.47-3.61,28c0,.48,0,1,0,1.42a1.6,1.6,0,0,1-.15.4Z" transform="translate(-54.04 -88.14)"/><path class="cls-44" d="M1571.7,941.44l2.67-5.81,6.13,2.42-3.08,6Z" transform="translate(-54.04 -88.14)"/><path class="cls-44" d="M1592,921l-3.24,4.15-5-3.59,3.39-4.54Z" transform="translate(-54.04 -88.14)"/><path class="cls-44" d="M1609,953.41c1.7.54,3.22,1,4.68,1.54a1.75,1.75,0,0,1,.8,1.15c.25,1.34.36,2.71.57,4.43-2.07-.83-4-1.58-5.93-2.39-.17-.08-.25-.54-.24-.83C1608.89,956.11,1609,954.91,1609,953.41Z" transform="translate(-54.04 -88.14)"/><path class="cls-44" d="M1603.19,904.2l3.31,4.18c-1.37.85-2.66,1.71-4,2.45-.22.12-.84-.17-1.08-.45-.92-1.07-1.77-2.2-2.76-3.47Z" transform="translate(-54.04 -88.14)"/><path class="cls-44" d="M1612.48,937.67c1.24,1.29,2.38,2.38,3.37,3.58.25.29.15,1,.07,1.45-.15.87-.4,1.73-.69,2.91-1.46-1.27-2.78-2.39-4.06-3.56a1,1,0,0,1-.1-.86C1611.48,940.07,1612,939,1612.48,937.67Z" transform="translate(-54.04 -88.14)"/><path class="cls-44" d="M1615.69,898.85l.9-.18c4.1-.7,4.1-.7,5.38,3.56-1.26.3-2.51.66-3.79.85a1.43,1.43,0,0,1-1.11-.73C1616.54,901.27,1616.17,900.11,1615.69,898.85Z" transform="translate(-54.04 -88.14)"/><path class="cls-44" d="M1618.06,934.38l-2.87-4.78,2.41-2.49C1620.57,930.12,1620.64,931.09,1618.06,934.38Z" transform="translate(-54.04 -88.14)"/><path class="cls-44" d="M1630.86,902.87l.42-3.3c1.5.49,2.92.87,4.26,1.43.33.14.59.83.62,1.28a11.89,11.89,0,0,1-.32,2.2Z" transform="translate(-54.04 -88.14)"/><path class="cls-44" d="M1624.88,924.62a4.63,4.63,0,0,1-.31-.51c-.61-1.38-1.22-2.76-1.88-4.28l3.13-1.49C1627.47,923.69,1627.62,922.45,1624.88,924.62Z" transform="translate(-54.04 -88.14)"/><path class="cls-44" d="M1632.83,919.36l-.62-3.23,3.36.2C1636,918.56,1635.93,918.58,1632.83,919.36Z" transform="translate(-54.04 -88.14)"/><path class="cls-44" d="M1649,913.53c-3.27-3.11-3.1-2.69-1.84-4.61.79,1.07,1.54,2.14,2.35,3.15C1650.14,912.91,1649.73,913.25,1649,913.53Z" transform="translate(-54.04 -88.14)"/><path class="cls-44" d="M1642.68,919.65l.49-1.54c2.55.89,3,1.43,2.46,2.92Z" transform="translate(-54.04 -88.14)"/></g></svg>